<?xml version="1.0" encoding="utf-8" standalone="no"?>
<!DOCTYPE svg PUBLIC "-//W3C//DTD SVG 1.1//EN"
  "http://www.w3.org/Graphics/SVG/1.1/DTD/svg11.dtd">
<svg xmlns:xlink="http://www.w3.org/1999/xlink" width="707.609453pt" height="425.0925pt" viewBox="0 0 707.609453 425.0925" xmlns="http://www.w3.org/2000/svg" version="1.1">
 <metadata>
  <rdf:RDF xmlns:dc="http://purl.org/dc/elements/1.1/" xmlns:cc="http://creativecommons.org/ns#" xmlns:rdf="http://www.w3.org/1999/02/22-rdf-syntax-ns#">
   <cc:Work>
    <dc:type rdf:resource="http://purl.org/dc/dcmitype/StillImage"/>
    <dc:date>2025-07-26T05:33:53.694815</dc:date>
    <dc:format>image/svg+xml</dc:format>
    <dc:creator>
     <cc:Agent>
      <dc:title>Matplotlib v3.10.0, https://matplotlib.org/</dc:title>
     </cc:Agent>
    </dc:creator>
   </cc:Work>
  </rdf:RDF>
 </metadata>
 <defs>
  <style type="text/css">*{stroke-linejoin: round; stroke-linecap: butt}</style>
 </defs>
 <g id="figure_1">
  <g id="patch_1">
   <path d="M 0 425.0925 
L 707.609453 425.0925 
L 707.609453 0 
L 0 0 
z
" style="fill: #ffffff"/>
  </g>
  <g id="axes_1">
   <g id="patch_2">
    <path d="M 23.2 200.38625 
L 198.049453 200.38625 
L 198.049453 53.79 
L 23.2 53.79 
z
" style="fill: #ffffff"/>
   </g>
   <g id="matplotlib.axis_1">
    <g id="xtick_1">
     <g id="line2d_1">
      <defs>
       <path id="mc197ed9894" d="M 0 0 
L 0 3.5 
" style="stroke: #323034; stroke-width: 0.8"/>
      </defs>
      <g>
       <use xlink:href="#mc197ed9894" x="23.2" y="200.38625" style="fill: #323034; stroke: #323034; stroke-width: 0.8"/>
      </g>
     </g>
     <g id="text_1">
      <!-- $\mathdefault{2000}$ -->
      <g style="fill: #323034" transform="translate(7.2 218.31375) scale(0.16 -0.16)">
       <defs>
        <path id="STIXGeneral-Regular-32" d="M 3034 877 
L 2688 0 
L 186 0 
L 186 77 
L 1325 1286 
Q 1773 1754 1965 2144 
Q 2157 2534 2157 2950 
Q 2157 3379 1920 3616 
Q 1683 3853 1267 3853 
Q 922 3853 720 3673 
Q 518 3494 326 3021 
L 192 3053 
Q 301 3648 630 3987 
Q 960 4326 1523 4326 
Q 2054 4326 2380 4006 
Q 2707 3686 2707 3200 
Q 2707 2477 1888 1613 
L 832 486 
L 2330 486 
Q 2541 486 2665 569 
Q 2790 653 2944 915 
L 3034 877 
z
" transform="scale(0.015625)"/>
        <path id="STIXGeneral-Regular-30" d="M 3046 2112 
Q 3046 1683 2963 1302 
Q 2880 922 2717 602 
Q 2554 282 2266 96 
Q 1978 -90 1600 -90 
Q 1210 -90 915 108 
Q 621 307 461 640 
Q 301 973 227 1350 
Q 154 1728 154 2150 
Q 154 2746 301 3222 
Q 448 3699 790 4012 
Q 1133 4326 1626 4326 
Q 2253 4326 2649 3712 
Q 3046 3098 3046 2112 
z
M 2432 2080 
Q 2432 3091 2217 3625 
Q 2003 4160 1587 4160 
Q 1190 4160 979 3622 
Q 768 3085 768 2106 
Q 768 1120 979 598 
Q 1190 77 1600 77 
Q 2003 77 2217 598 
Q 2432 1120 2432 2080 
z
" transform="scale(0.015625)"/>
       </defs>
       <use xlink:href="#STIXGeneral-Regular-32" transform="translate(0 0.40625)"/>
       <use xlink:href="#STIXGeneral-Regular-30" transform="translate(49.999985 0.40625)"/>
       <use xlink:href="#STIXGeneral-Regular-30" transform="translate(99.999969 0.40625)"/>
       <use xlink:href="#STIXGeneral-Regular-30" transform="translate(149.999954 0.40625)"/>
      </g>
     </g>
    </g>
    <g id="xtick_2">
     <g id="line2d_2">
      <g>
       <use xlink:href="#mc197ed9894" x="102.677024" y="200.38625" style="fill: #323034; stroke: #323034; stroke-width: 0.8"/>
      </g>
     </g>
     <g id="text_2">
      <!-- $\mathdefault{2010}$ -->
      <g style="fill: #323034" transform="translate(86.677024 218.31375) scale(0.16 -0.16)">
       <defs>
        <path id="STIXGeneral-Regular-31" d="M 2522 0 
L 755 0 
L 755 96 
Q 1107 115 1235 227 
Q 1363 339 1363 608 
L 1363 3482 
Q 1363 3795 1171 3795 
Q 1082 3795 883 3718 
L 710 3654 
L 710 3744 
L 1856 4326 
L 1914 4307 
L 1914 486 
Q 1914 275 2042 185 
Q 2170 96 2522 96 
L 2522 0 
z
" transform="scale(0.015625)"/>
       </defs>
       <use xlink:href="#STIXGeneral-Regular-32" transform="translate(0 0.40625)"/>
       <use xlink:href="#STIXGeneral-Regular-30" transform="translate(49.999985 0.40625)"/>
       <use xlink:href="#STIXGeneral-Regular-31" transform="translate(99.999969 0.40625)"/>
       <use xlink:href="#STIXGeneral-Regular-30" transform="translate(149.999954 0.40625)"/>
      </g>
     </g>
    </g>
    <g id="xtick_3">
     <g id="line2d_3">
      <g>
       <use xlink:href="#mc197ed9894" x="182.154048" y="200.38625" style="fill: #323034; stroke: #323034; stroke-width: 0.8"/>
      </g>
     </g>
     <g id="text_3">
      <!-- $\mathdefault{2020}$ -->
      <g style="fill: #323034" transform="translate(166.154048 218.31375) scale(0.16 -0.16)">
       <use xlink:href="#STIXGeneral-Regular-32" transform="translate(0 0.40625)"/>
       <use xlink:href="#STIXGeneral-Regular-30" transform="translate(49.999985 0.40625)"/>
       <use xlink:href="#STIXGeneral-Regular-32" transform="translate(99.999969 0.40625)"/>
       <use xlink:href="#STIXGeneral-Regular-30" transform="translate(149.999954 0.40625)"/>
      </g>
     </g>
    </g>
   </g>
   <g id="matplotlib.axis_2">
    <g id="ytick_1">
     <g id="line2d_4">
      <defs>
       <path id="me24544a1e0" d="M 0 0 
L 3.5 0 
" style="stroke: #323034; stroke-width: 0.8"/>
      </defs>
      <g>
       <use xlink:href="#me24544a1e0" x="198.049453" y="166.52055" style="fill: #323034; stroke: #323034; stroke-width: 0.8"/>
      </g>
     </g>
     <g id="text_4">
      <!-- $\mathdefault{100}$ -->
      <g style="fill: #323034" transform="translate(205.049453 171.9843) scale(0.16 -0.16)">
       <use xlink:href="#STIXGeneral-Regular-31" transform="translate(0 0.40625)"/>
       <use xlink:href="#STIXGeneral-Regular-30" transform="translate(49.999985 0.40625)"/>
       <use xlink:href="#STIXGeneral-Regular-30" transform="translate(99.999969 0.40625)"/>
      </g>
     </g>
    </g>
    <g id="ytick_2">
     <g id="line2d_5">
      <g>
       <use xlink:href="#me24544a1e0" x="198.049453" y="96.17689" style="fill: #323034; stroke: #323034; stroke-width: 0.8"/>
      </g>
     </g>
     <g id="text_5">
      <!-- $\mathdefault{120}$ -->
      <g style="fill: #323034" transform="translate(205.049453 101.64064) scale(0.16 -0.16)">
       <use xlink:href="#STIXGeneral-Regular-31" transform="translate(0 0.40625)"/>
       <use xlink:href="#STIXGeneral-Regular-32" transform="translate(49.999985 0.40625)"/>
       <use xlink:href="#STIXGeneral-Regular-30" transform="translate(99.999969 0.40625)"/>
      </g>
     </g>
    </g>
   </g>
   <g id="line2d_6">
    <path d="M 23.2 166.52055 
L 31.147702 161.365392 
L 39.095405 162.778304 
L 47.043107 164.85769 
L 54.99081 160.672481 
L 62.938512 157.300649 
L 70.886214 142.960759 
L 78.833917 131.598155 
L 86.781619 127.335597 
L 94.729322 148.07508 
L 102.677024 132.134195 
L 110.624727 110.128998 
L 118.572429 108.962415 
L 126.520131 108.501391 
L 134.467834 101.353668 
L 142.415536 98.116523 
L 150.363239 91.931093 
L 158.310941 81.985904 
L 166.258643 78.439092 
L 174.206346 75.094845 
L 182.154048 93.589253 
L 190.101751 78.190912 
L 198.049453 75.367524 
" clip-path="url(#p20713e2d3a)" style="fill: none; stroke: #000000; stroke-opacity: 0.1; stroke-linecap: square"/>
   </g>
   <g id="line2d_7">
    <path d="M 23.2 166.52055 
L 31.147702 159.683147 
L 39.095405 159.425928 
L 47.043107 161.122278 
L 54.99081 158.546601 
L 62.938512 157.91347 
L 70.886214 152.894083 
L 78.833917 149.800079 
L 86.781619 156.37156 
L 94.729322 177.550052 
L 102.677024 173.866836 
L 110.624727 172.670174 
L 118.572429 184.384405 
L 126.520131 191.108135 
L 134.467834 191.161992 
L 142.415536 187.766067 
L 150.363239 183.044125 
L 158.310941 177.027388 
L 166.258643 175.044173 
L 174.206346 171.150135 
L 182.154048 200.38625 
L 190.101751 170.208812 
L 198.049453 152.69091 
" clip-path="url(#p20713e2d3a)" style="fill: none; stroke: #000000; stroke-opacity: 0.1; stroke-linecap: square"/>
   </g>
   <g id="line2d_8">
    <path d="M 23.2 166.52055 
L 31.147702 166.012276 
L 39.095405 166.682887 
L 47.043107 162.049056 
L 54.99081 154.384837 
L 62.938512 147.85606 
L 70.886214 143.010982 
L 78.833917 137.880032 
L 86.781619 142.718615 
L 94.729322 164.053618 
L 102.677024 149.605612 
L 110.624727 148.83424 
L 118.572429 143.15728 
L 126.520131 135.084132 
L 134.467834 133.438938 
L 142.415536 127.018686 
L 150.363239 123.867944 
L 158.310941 116.932491 
L 166.258643 113.837743 
L 174.206346 114.897965 
L 182.154048 130.573482 
L 190.101751 118.284422 
L 198.049453 112.720946 
" clip-path="url(#p20713e2d3a)" style="fill: none; stroke: #000000; stroke-opacity: 0.1; stroke-linecap: square"/>
   </g>
   <g id="line2d_9">
    <path d="M 23.2 166.52055 
L 31.147702 158.857807 
L 39.095405 153.949982 
L 47.043107 144.212018 
L 54.99081 137.19291 
L 62.938512 129.45881 
L 70.886214 123.118176 
L 78.833917 115.891901 
L 86.781619 120.039255 
L 94.729322 141.300221 
L 102.677024 135.890953 
L 110.624727 134.548759 
L 118.572429 131.523224 
L 126.520131 127.18965 
L 134.467834 117.700816 
L 142.415536 111.741296 
L 150.363239 107.207085 
L 158.310941 98.584346 
L 166.258643 94.760945 
L 174.206346 90.090566 
L 182.154048 134.826878 
L 190.101751 103.437212 
L 198.049453 87.352863 
" clip-path="url(#p20713e2d3a)" style="fill: none; stroke: #000000; stroke-opacity: 0.1; stroke-linecap: square"/>
   </g>
   <g id="line2d_10">
    <path d="M 23.2 166.52055 
L 31.147702 166.656777 
L 39.095405 163.980405 
L 47.043107 157.193229 
L 54.99081 146.755 
L 62.938512 137.341188 
L 70.886214 130.491891 
L 78.833917 126.465744 
L 86.781619 129.713105 
L 94.729322 143.027229 
L 102.677024 136.161143 
L 110.624727 133.246668 
L 118.572429 127.565315 
L 126.520131 122.298401 
L 134.467834 115.524076 
L 142.415536 106.956676 
L 150.363239 102.750634 
L 158.310941 95.479004 
L 166.258643 85.483091 
L 174.206346 76.582318 
L 182.154048 87.896708 
L 190.101751 62.556695 
L 198.049453 53.79 
" clip-path="url(#p20713e2d3a)" style="fill: none; stroke: #000000; stroke-opacity: 0.1; stroke-linecap: square"/>
   </g>
   <g id="line2d_11">
    <path d="M 23.2 166.52055 
L 31.147702 162.442984 
L 39.095405 161.248865 
L 47.043107 160.328307 
L 54.99081 152.750033 
L 62.938512 148.636991 
L 70.886214 141.240107 
L 78.833917 134.082531 
L 86.781619 134.767907 
L 94.729322 147.507289 
L 102.677024 141.951044 
L 110.624727 134.634748 
L 118.572429 135.784021 
L 126.520131 134.781437 
L 134.467834 132.789821 
L 142.415536 130.060724 
L 150.363239 127.754 
L 158.310941 120.772929 
L 166.258643 115.676756 
L 174.206346 108.878656 
L 182.154048 140.565458 
L 190.101751 116.010826 
L 198.049453 107.01705 
" clip-path="url(#p20713e2d3a)" style="fill: none; stroke: #bc80bd; stroke-width: 3; stroke-linecap: square"/>
   </g>
   <g id="patch_3">
    <path d="M 198.049453 200.38625 
L 198.049453 53.79 
" style="fill: none; stroke: #000000; stroke-width: 0.6; stroke-linejoin: miter; stroke-linecap: square"/>
   </g>
   <g id="patch_4">
    <path d="M 23.2 200.38625 
L 198.049453 200.38625 
" style="fill: none; stroke: #000000; stroke-width: 0.6; stroke-linejoin: miter; stroke-linecap: square"/>
   </g>
   <g id="text_6">
    <!-- France -->
    <g style="fill: #323034" transform="translate(92.937617 47.79) scale(0.13 -0.13)">
     <defs>
      <path id="STIXGeneral-Regular-46" d="M 3494 3322 
L 3334 3322 
Q 3264 3757 3094 3875 
Q 2925 3994 2349 3994 
L 1504 3994 
Q 1370 3994 1328 3946 
Q 1286 3898 1286 3744 
L 1286 2355 
L 2195 2355 
Q 2598 2355 2736 2470 
Q 2874 2586 2918 2963 
L 3066 2963 
L 3066 1472 
L 2918 1472 
Q 2880 1862 2745 1977 
Q 2611 2093 2195 2093 
L 1286 2093 
L 1286 717 
Q 1286 352 1392 246 
Q 1498 141 1869 122 
L 1869 0 
L 70 0 
L 70 122 
Q 435 147 534 259 
Q 634 371 634 787 
L 634 3526 
Q 634 3878 538 3984 
Q 442 4090 77 4115 
L 77 4237 
L 3462 4237 
L 3494 3322 
z
" transform="scale(0.015625)"/>
      <path id="STIXGeneral-Regular-72" d="M 1024 2931 
L 1024 2342 
Q 1267 2688 1430 2816 
Q 1594 2944 1792 2944 
Q 1958 2944 2051 2854 
Q 2144 2765 2144 2605 
Q 2144 2470 2077 2393 
Q 2010 2317 1894 2317 
Q 1773 2317 1638 2445 
Q 1536 2541 1472 2541 
Q 1338 2541 1181 2355 
Q 1024 2170 1024 2016 
L 1024 576 
Q 1024 301 1133 205 
Q 1242 109 1568 96 
L 1568 0 
L 32 0 
L 32 96 
Q 339 154 412 224 
Q 486 294 486 538 
L 486 2138 
Q 486 2349 438 2435 
Q 390 2522 269 2522 
Q 166 2522 45 2496 
L 45 2598 
Q 448 2726 992 2944 
L 1024 2931 
z
" transform="scale(0.015625)"/>
      <path id="STIXGeneral-Regular-61" d="M 2829 422 
L 2829 243 
Q 2586 -64 2253 -64 
Q 1888 -64 1843 403 
L 1837 403 
Q 1427 -64 909 -64 
Q 608 -64 422 112 
Q 237 288 237 602 
Q 237 1050 685 1350 
Q 992 1555 1837 1869 
L 1837 2214 
Q 1837 2502 1699 2646 
Q 1562 2790 1338 2790 
Q 1146 2790 1018 2697 
Q 890 2605 890 2477 
Q 890 2419 909 2348 
Q 928 2278 928 2208 
Q 928 2112 841 2029 
Q 755 1946 634 1946 
Q 525 1946 441 2029 
Q 358 2112 358 2240 
Q 358 2547 685 2752 
Q 986 2944 1421 2944 
Q 1939 2944 2176 2656 
Q 2291 2522 2323 2384 
Q 2355 2246 2355 1946 
L 2355 723 
Q 2355 301 2554 301 
Q 2682 301 2829 422 
z
M 1837 813 
L 1837 1715 
Q 1248 1510 1018 1293 
Q 800 1094 800 800 
Q 800 557 921 432 
Q 1043 307 1242 307 
Q 1453 307 1613 410 
Q 1747 506 1792 589 
Q 1837 672 1837 813 
z
" transform="scale(0.015625)"/>
      <path id="STIXGeneral-Regular-6e" d="M 3104 0 
L 1773 0 
L 1779 96 
Q 2016 115 2096 233 
Q 2176 352 2176 672 
L 2176 1946 
Q 2176 2592 1709 2592 
Q 1549 2592 1408 2515 
Q 1267 2438 1050 2227 
L 1050 461 
Q 1050 269 1136 192 
Q 1222 115 1466 96 
L 1466 0 
L 115 0 
L 115 96 
Q 358 115 435 214 
Q 512 314 512 602 
L 512 2157 
Q 512 2394 467 2483 
Q 422 2573 288 2573 
Q 160 2573 102 2547 
L 102 2656 
Q 550 2784 979 2944 
L 1030 2925 
L 1030 2426 
L 1037 2426 
Q 1491 2944 1958 2944 
Q 2323 2944 2518 2688 
Q 2714 2432 2714 1958 
L 2714 544 
Q 2714 288 2790 205 
Q 2867 122 3104 96 
L 3104 0 
z
" transform="scale(0.015625)"/>
      <path id="STIXGeneral-Regular-63" d="M 2547 998 
L 2637 941 
Q 2362 403 2112 205 
Q 1786 -64 1376 -64 
Q 845 -64 502 336 
Q 160 736 160 1357 
Q 160 2170 698 2618 
Q 1094 2944 1562 2944 
Q 1965 2944 2256 2749 
Q 2547 2554 2547 2285 
Q 2547 2176 2457 2096 
Q 2368 2016 2246 2016 
Q 2022 2016 1939 2310 
L 1901 2451 
Q 1850 2630 1773 2694 
Q 1696 2758 1523 2758 
Q 1133 2758 893 2451 
Q 653 2144 653 1645 
Q 653 1094 928 745 
Q 1203 397 1645 397 
Q 1920 397 2118 528 
Q 2317 659 2547 998 
z
" transform="scale(0.015625)"/>
      <path id="STIXGeneral-Regular-65" d="M 2611 1050 
L 2714 1005 
Q 2330 -64 1376 -64 
Q 813 -64 486 329 
Q 160 723 160 1389 
Q 160 2074 525 2509 
Q 890 2944 1485 2944 
Q 2061 2944 2374 2502 
Q 2560 2246 2592 1773 
L 621 1773 
Q 646 1370 700 1158 
Q 755 947 915 730 
Q 1184 378 1626 378 
Q 1939 378 2153 531 
Q 2368 685 2611 1050 
z
M 634 1978 
L 1939 1978 
Q 1882 2381 1750 2547 
Q 1619 2714 1312 2714 
Q 1043 2714 864 2525 
Q 685 2336 634 1978 
z
" transform="scale(0.015625)"/>
     </defs>
     <use xlink:href="#STIXGeneral-Regular-46"/>
     <use xlink:href="#STIXGeneral-Regular-72" transform="translate(55.599991 0)"/>
     <use xlink:href="#STIXGeneral-Regular-61" transform="translate(88.899979 0)"/>
     <use xlink:href="#STIXGeneral-Regular-6e" transform="translate(133.299973 0)"/>
     <use xlink:href="#STIXGeneral-Regular-63" transform="translate(183.299957 0)"/>
     <use xlink:href="#STIXGeneral-Regular-65" transform="translate(227.699951 0)"/>
    </g>
   </g>
  </g>
  <g id="axes_2">
   <g id="patch_5">
    <path d="M 258.88 200.38625 
L 433.729453 200.38625 
L 433.729453 53.79 
L 258.88 53.79 
z
" style="fill: #ffffff"/>
   </g>
   <g id="matplotlib.axis_3">
    <g id="xtick_4">
     <g id="line2d_12">
      <g>
       <use xlink:href="#mc197ed9894" x="258.88" y="200.38625" style="fill: #323034; stroke: #323034; stroke-width: 0.8"/>
      </g>
     </g>
     <g id="text_7">
      <!-- $\mathdefault{2000}$ -->
      <g style="fill: #323034" transform="translate(242.88 218.31375) scale(0.16 -0.16)">
       <use xlink:href="#STIXGeneral-Regular-32" transform="translate(0 0.40625)"/>
       <use xlink:href="#STIXGeneral-Regular-30" transform="translate(49.999985 0.40625)"/>
       <use xlink:href="#STIXGeneral-Regular-30" transform="translate(99.999969 0.40625)"/>
       <use xlink:href="#STIXGeneral-Regular-30" transform="translate(149.999954 0.40625)"/>
      </g>
     </g>
    </g>
    <g id="xtick_5">
     <g id="line2d_13">
      <g>
       <use xlink:href="#mc197ed9894" x="338.357024" y="200.38625" style="fill: #323034; stroke: #323034; stroke-width: 0.8"/>
      </g>
     </g>
     <g id="text_8">
      <!-- $\mathdefault{2010}$ -->
      <g style="fill: #323034" transform="translate(322.357024 218.31375) scale(0.16 -0.16)">
       <use xlink:href="#STIXGeneral-Regular-32" transform="translate(0 0.40625)"/>
       <use xlink:href="#STIXGeneral-Regular-30" transform="translate(49.999985 0.40625)"/>
       <use xlink:href="#STIXGeneral-Regular-31" transform="translate(99.999969 0.40625)"/>
       <use xlink:href="#STIXGeneral-Regular-30" transform="translate(149.999954 0.40625)"/>
      </g>
     </g>
    </g>
    <g id="xtick_6">
     <g id="line2d_14">
      <g>
       <use xlink:href="#mc197ed9894" x="417.834048" y="200.38625" style="fill: #323034; stroke: #323034; stroke-width: 0.8"/>
      </g>
     </g>
     <g id="text_9">
      <!-- $\mathdefault{2020}$ -->
      <g style="fill: #323034" transform="translate(401.834048 218.31375) scale(0.16 -0.16)">
       <use xlink:href="#STIXGeneral-Regular-32" transform="translate(0 0.40625)"/>
       <use xlink:href="#STIXGeneral-Regular-30" transform="translate(49.999985 0.40625)"/>
       <use xlink:href="#STIXGeneral-Regular-32" transform="translate(99.999969 0.40625)"/>
       <use xlink:href="#STIXGeneral-Regular-30" transform="translate(149.999954 0.40625)"/>
      </g>
     </g>
    </g>
   </g>
   <g id="matplotlib.axis_4">
    <g id="ytick_3">
     <g id="line2d_15">
      <g>
       <use xlink:href="#me24544a1e0" x="433.729453" y="166.52055" style="fill: #323034; stroke: #323034; stroke-width: 0.8"/>
      </g>
     </g>
     <g id="text_10">
      <!-- $\mathdefault{100}$ -->
      <g style="fill: #323034" transform="translate(440.729453 171.9843) scale(0.16 -0.16)">
       <use xlink:href="#STIXGeneral-Regular-31" transform="translate(0 0.40625)"/>
       <use xlink:href="#STIXGeneral-Regular-30" transform="translate(49.999985 0.40625)"/>
       <use xlink:href="#STIXGeneral-Regular-30" transform="translate(99.999969 0.40625)"/>
      </g>
     </g>
    </g>
    <g id="ytick_4">
     <g id="line2d_16">
      <g>
       <use xlink:href="#me24544a1e0" x="433.729453" y="96.17689" style="fill: #323034; stroke: #323034; stroke-width: 0.8"/>
      </g>
     </g>
     <g id="text_11">
      <!-- $\mathdefault{120}$ -->
      <g style="fill: #323034" transform="translate(440.729453 101.64064) scale(0.16 -0.16)">
       <use xlink:href="#STIXGeneral-Regular-31" transform="translate(0 0.40625)"/>
       <use xlink:href="#STIXGeneral-Regular-32" transform="translate(49.999985 0.40625)"/>
       <use xlink:href="#STIXGeneral-Regular-30" transform="translate(99.999969 0.40625)"/>
      </g>
     </g>
    </g>
   </g>
   <g id="line2d_17">
    <path d="M 258.88 166.52055 
L 266.827702 162.442984 
L 274.775405 161.248865 
L 282.723107 160.328307 
L 290.67081 152.750033 
L 298.618512 148.636991 
L 306.566214 141.240107 
L 314.513917 134.082531 
L 322.461619 134.767907 
L 330.409322 147.507289 
L 338.357024 141.951044 
L 346.304727 134.634748 
L 354.252429 135.784021 
L 362.200131 134.781437 
L 370.147834 132.789821 
L 378.095536 130.060724 
L 386.043239 127.754 
L 393.990941 120.772929 
L 401.938643 115.676756 
L 409.886346 108.878656 
L 417.834048 140.565458 
L 425.781751 116.010826 
L 433.729453 107.01705 
" clip-path="url(#p160334a06b)" style="fill: none; stroke: #000000; stroke-opacity: 0.1; stroke-linecap: square"/>
   </g>
   <g id="line2d_18">
    <path d="M 258.88 166.52055 
L 266.827702 159.683147 
L 274.775405 159.425928 
L 282.723107 161.122278 
L 290.67081 158.546601 
L 298.618512 157.91347 
L 306.566214 152.894083 
L 314.513917 149.800079 
L 322.461619 156.37156 
L 330.409322 177.550052 
L 338.357024 173.866836 
L 346.304727 172.670174 
L 354.252429 184.384405 
L 362.200131 191.108135 
L 370.147834 191.161992 
L 378.095536 187.766067 
L 386.043239 183.044125 
L 393.990941 177.027388 
L 401.938643 175.044173 
L 409.886346 171.150135 
L 417.834048 200.38625 
L 425.781751 170.208812 
L 433.729453 152.69091 
" clip-path="url(#p160334a06b)" style="fill: none; stroke: #000000; stroke-opacity: 0.1; stroke-linecap: square"/>
   </g>
   <g id="line2d_19">
    <path d="M 258.88 166.52055 
L 266.827702 166.012276 
L 274.775405 166.682887 
L 282.723107 162.049056 
L 290.67081 154.384837 
L 298.618512 147.85606 
L 306.566214 143.010982 
L 314.513917 137.880032 
L 322.461619 142.718615 
L 330.409322 164.053618 
L 338.357024 149.605612 
L 346.304727 148.83424 
L 354.252429 143.15728 
L 362.200131 135.084132 
L 370.147834 133.438938 
L 378.095536 127.018686 
L 386.043239 123.867944 
L 393.990941 116.932491 
L 401.938643 113.837743 
L 409.886346 114.897965 
L 417.834048 130.573482 
L 425.781751 118.284422 
L 433.729453 112.720946 
" clip-path="url(#p160334a06b)" style="fill: none; stroke: #000000; stroke-opacity: 0.1; stroke-linecap: square"/>
   </g>
   <g id="line2d_20">
    <path d="M 258.88 166.52055 
L 266.827702 158.857807 
L 274.775405 153.949982 
L 282.723107 144.212018 
L 290.67081 137.19291 
L 298.618512 129.45881 
L 306.566214 123.118176 
L 314.513917 115.891901 
L 322.461619 120.039255 
L 330.409322 141.300221 
L 338.357024 135.890953 
L 346.304727 134.548759 
L 354.252429 131.523224 
L 362.200131 127.18965 
L 370.147834 117.700816 
L 378.095536 111.741296 
L 386.043239 107.207085 
L 393.990941 98.584346 
L 401.938643 94.760945 
L 409.886346 90.090566 
L 417.834048 134.826878 
L 425.781751 103.437212 
L 433.729453 87.352863 
" clip-path="url(#p160334a06b)" style="fill: none; stroke: #000000; stroke-opacity: 0.1; stroke-linecap: square"/>
   </g>
   <g id="line2d_21">
    <path d="M 258.88 166.52055 
L 266.827702 166.656777 
L 274.775405 163.980405 
L 282.723107 157.193229 
L 290.67081 146.755 
L 298.618512 137.341188 
L 306.566214 130.491891 
L 314.513917 126.465744 
L 322.461619 129.713105 
L 330.409322 143.027229 
L 338.357024 136.161143 
L 346.304727 133.246668 
L 354.252429 127.565315 
L 362.200131 122.298401 
L 370.147834 115.524076 
L 378.095536 106.956676 
L 386.043239 102.750634 
L 393.990941 95.479004 
L 401.938643 85.483091 
L 409.886346 76.582318 
L 417.834048 87.896708 
L 425.781751 62.556695 
L 433.729453 53.79 
" clip-path="url(#p160334a06b)" style="fill: none; stroke: #000000; stroke-opacity: 0.1; stroke-linecap: square"/>
   </g>
   <g id="line2d_22">
    <path d="M 258.88 166.52055 
L 266.827702 161.365392 
L 274.775405 162.778304 
L 282.723107 164.85769 
L 290.67081 160.672481 
L 298.618512 157.300649 
L 306.566214 142.960759 
L 314.513917 131.598155 
L 322.461619 127.335597 
L 330.409322 148.07508 
L 338.357024 132.134195 
L 346.304727 110.128998 
L 354.252429 108.962415 
L 362.200131 108.501391 
L 370.147834 101.353668 
L 378.095536 98.116523 
L 386.043239 91.931093 
L 393.990941 81.985904 
L 401.938643 78.439092 
L 409.886346 75.094845 
L 417.834048 93.589253 
L 425.781751 78.190912 
L 433.729453 75.367524 
" clip-path="url(#p160334a06b)" style="fill: none; stroke: #fb8072; stroke-width: 3; stroke-linecap: square"/>
   </g>
   <g id="patch_6">
    <path d="M 433.729453 200.38625 
L 433.729453 53.79 
" style="fill: none; stroke: #000000; stroke-width: 0.6; stroke-linejoin: miter; stroke-linecap: square"/>
   </g>
   <g id="patch_7">
    <path d="M 258.88 200.38625 
L 433.729453 200.38625 
" style="fill: none; stroke: #000000; stroke-width: 0.6; stroke-linejoin: miter; stroke-linecap: square"/>
   </g>
   <g id="text_12">
    <!-- Germany -->
    <g style="fill: #323034" transform="translate(322.117617 47.79) scale(0.13 -0.13)">
     <defs>
      <path id="STIXGeneral-Regular-47" d="M 4538 2266 
L 4538 2150 
Q 4256 2125 4173 2035 
Q 4090 1946 4090 1638 
L 4090 358 
Q 3539 -90 2464 -90 
Q 1965 -90 1507 89 
Q 1050 269 736 595 
Q 205 1152 205 2093 
Q 205 3155 890 3776 
Q 1491 4326 2419 4326 
Q 2829 4326 3270 4179 
Q 3443 4115 3552 4115 
Q 3654 4115 3731 4176 
Q 3808 4237 3840 4326 
L 3981 4326 
L 4032 2976 
L 3885 2976 
Q 3680 3475 3430 3718 
Q 3059 4070 2496 4070 
Q 1856 4070 1427 3629 
Q 934 3136 934 2074 
Q 934 1190 1395 678 
Q 1856 166 2618 166 
Q 2982 166 3225 281 
Q 3469 397 3469 557 
L 3469 1562 
Q 3469 1933 3376 2025 
Q 3283 2118 2899 2150 
L 2899 2266 
L 4538 2266 
z
" transform="scale(0.015625)"/>
      <path id="STIXGeneral-Regular-6d" d="M 4960 0 
L 3565 0 
L 3565 96 
Q 3834 122 3907 208 
Q 3981 294 3981 576 
L 3981 1894 
Q 3981 2278 3869 2444 
Q 3757 2611 3488 2611 
Q 3264 2611 3107 2521 
Q 2950 2432 2803 2221 
L 2803 608 
Q 2803 301 2896 201 
Q 2989 102 3264 96 
L 3264 0 
L 1830 0 
L 1830 96 
Q 2112 115 2189 188 
Q 2266 262 2266 550 
L 2266 1901 
Q 2266 2611 1850 2611 
Q 1670 2611 1468 2531 
Q 1267 2451 1171 2336 
Q 1088 2240 1088 2227 
L 1088 448 
Q 1088 243 1177 176 
Q 1267 109 1523 96 
L 1523 0 
L 102 0 
L 102 96 
Q 371 102 460 195 
Q 550 288 550 563 
L 550 2150 
Q 550 2387 499 2480 
Q 448 2573 326 2573 
Q 230 2573 122 2547 
L 122 2656 
Q 557 2778 1011 2944 
L 1062 2925 
L 1062 2451 
L 1075 2451 
Q 1363 2752 1584 2848 
Q 1805 2944 2054 2944 
Q 2560 2944 2733 2406 
Q 3232 2944 3776 2944 
Q 4518 2944 4518 1792 
L 4518 493 
Q 4518 282 4582 202 
Q 4646 122 4794 109 
L 4960 96 
L 4960 0 
z
" transform="scale(0.015625)"/>
      <path id="STIXGeneral-Regular-79" d="M 3040 2880 
L 3040 2784 
Q 2925 2771 2854 2700 
Q 2784 2630 2720 2458 
L 1760 -160 
Q 1510 -838 1257 -1116 
Q 1005 -1395 640 -1395 
Q 435 -1395 313 -1289 
Q 192 -1184 192 -1024 
Q 192 -902 272 -816 
Q 352 -730 467 -730 
Q 653 -730 800 -813 
Q 883 -858 966 -858 
Q 1101 -858 1286 -576 
Q 1376 -448 1459 -211 
Q 1542 26 1542 115 
Q 1542 198 1274 762 
L 429 2566 
Q 346 2752 90 2790 
L 90 2880 
L 1402 2880 
L 1402 2784 
Q 1197 2778 1117 2739 
Q 1037 2701 1037 2611 
Q 1037 2541 1120 2349 
L 1837 749 
L 2458 2515 
Q 2483 2573 2483 2630 
Q 2483 2784 2189 2784 
L 2189 2880 
L 3040 2880 
z
" transform="scale(0.015625)"/>
     </defs>
     <use xlink:href="#STIXGeneral-Regular-47"/>
     <use xlink:href="#STIXGeneral-Regular-65" transform="translate(72.199982 0)"/>
     <use xlink:href="#STIXGeneral-Regular-72" transform="translate(116.599976 0)"/>
     <use xlink:href="#STIXGeneral-Regular-6d" transform="translate(149.899963 0)"/>
     <use xlink:href="#STIXGeneral-Regular-61" transform="translate(227.699951 0)"/>
     <use xlink:href="#STIXGeneral-Regular-6e" transform="translate(272.099945 0)"/>
     <use xlink:href="#STIXGeneral-Regular-79" transform="translate(322.09993 0)"/>
    </g>
   </g>
  </g>
  <g id="axes_3">
   <g id="patch_8">
    <path d="M 494.56 200.38625 
L 669.409453 200.38625 
L 669.409453 53.79 
L 494.56 53.79 
z
" style="fill: #ffffff"/>
   </g>
   <g id="matplotlib.axis_5">
    <g id="xtick_7">
     <g id="line2d_23">
      <g>
       <use xlink:href="#mc197ed9894" x="494.56" y="200.38625" style="fill: #323034; stroke: #323034; stroke-width: 0.8"/>
      </g>
     </g>
     <g id="text_13">
      <!-- $\mathdefault{2000}$ -->
      <g style="fill: #323034" transform="translate(478.56 218.31375) scale(0.16 -0.16)">
       <use xlink:href="#STIXGeneral-Regular-32" transform="translate(0 0.40625)"/>
       <use xlink:href="#STIXGeneral-Regular-30" transform="translate(49.999985 0.40625)"/>
       <use xlink:href="#STIXGeneral-Regular-30" transform="translate(99.999969 0.40625)"/>
       <use xlink:href="#STIXGeneral-Regular-30" transform="translate(149.999954 0.40625)"/>
      </g>
     </g>
    </g>
    <g id="xtick_8">
     <g id="line2d_24">
      <g>
       <use xlink:href="#mc197ed9894" x="574.037024" y="200.38625" style="fill: #323034; stroke: #323034; stroke-width: 0.8"/>
      </g>
     </g>
     <g id="text_14">
      <!-- $\mathdefault{2010}$ -->
      <g style="fill: #323034" transform="translate(558.037024 218.31375) scale(0.16 -0.16)">
       <use xlink:href="#STIXGeneral-Regular-32" transform="translate(0 0.40625)"/>
       <use xlink:href="#STIXGeneral-Regular-30" transform="translate(49.999985 0.40625)"/>
       <use xlink:href="#STIXGeneral-Regular-31" transform="translate(99.999969 0.40625)"/>
       <use xlink:href="#STIXGeneral-Regular-30" transform="translate(149.999954 0.40625)"/>
      </g>
     </g>
    </g>
    <g id="xtick_9">
     <g id="line2d_25">
      <g>
       <use xlink:href="#mc197ed9894" x="653.514048" y="200.38625" style="fill: #323034; stroke: #323034; stroke-width: 0.8"/>
      </g>
     </g>
     <g id="text_15">
      <!-- $\mathdefault{2020}$ -->
      <g style="fill: #323034" transform="translate(637.514048 218.31375) scale(0.16 -0.16)">
       <use xlink:href="#STIXGeneral-Regular-32" transform="translate(0 0.40625)"/>
       <use xlink:href="#STIXGeneral-Regular-30" transform="translate(49.999985 0.40625)"/>
       <use xlink:href="#STIXGeneral-Regular-32" transform="translate(99.999969 0.40625)"/>
       <use xlink:href="#STIXGeneral-Regular-30" transform="translate(149.999954 0.40625)"/>
      </g>
     </g>
    </g>
   </g>
   <g id="matplotlib.axis_6">
    <g id="ytick_5">
     <g id="line2d_26">
      <g>
       <use xlink:href="#me24544a1e0" x="669.409453" y="166.52055" style="fill: #323034; stroke: #323034; stroke-width: 0.8"/>
      </g>
     </g>
     <g id="text_16">
      <!-- $\mathdefault{100}$ -->
      <g style="fill: #323034" transform="translate(676.409453 171.9843) scale(0.16 -0.16)">
       <use xlink:href="#STIXGeneral-Regular-31" transform="translate(0 0.40625)"/>
       <use xlink:href="#STIXGeneral-Regular-30" transform="translate(49.999985 0.40625)"/>
       <use xlink:href="#STIXGeneral-Regular-30" transform="translate(99.999969 0.40625)"/>
      </g>
     </g>
    </g>
    <g id="ytick_6">
     <g id="line2d_27">
      <g>
       <use xlink:href="#me24544a1e0" x="669.409453" y="96.17689" style="fill: #323034; stroke: #323034; stroke-width: 0.8"/>
      </g>
     </g>
     <g id="text_17">
      <!-- $\mathdefault{120}$ -->
      <g style="fill: #323034" transform="translate(676.409453 101.64064) scale(0.16 -0.16)">
       <use xlink:href="#STIXGeneral-Regular-31" transform="translate(0 0.40625)"/>
       <use xlink:href="#STIXGeneral-Regular-32" transform="translate(49.999985 0.40625)"/>
       <use xlink:href="#STIXGeneral-Regular-30" transform="translate(99.999969 0.40625)"/>
      </g>
     </g>
    </g>
   </g>
   <g id="line2d_28">
    <path d="M 494.56 166.52055 
L 502.507702 162.442984 
L 510.455405 161.248865 
L 518.403107 160.328307 
L 526.35081 152.750033 
L 534.298512 148.636991 
L 542.246214 141.240107 
L 550.193917 134.082531 
L 558.141619 134.767907 
L 566.089322 147.507289 
L 574.037024 141.951044 
L 581.984727 134.634748 
L 589.932429 135.784021 
L 597.880131 134.781437 
L 605.827834 132.789821 
L 613.775536 130.060724 
L 621.723239 127.754 
L 629.670941 120.772929 
L 637.618643 115.676756 
L 645.566346 108.878656 
L 653.514048 140.565458 
L 661.461751 116.010826 
L 669.409453 107.01705 
" clip-path="url(#p64ab0ce5bb)" style="fill: none; stroke: #000000; stroke-opacity: 0.1; stroke-linecap: square"/>
   </g>
   <g id="line2d_29">
    <path d="M 494.56 166.52055 
L 502.507702 161.365392 
L 510.455405 162.778304 
L 518.403107 164.85769 
L 526.35081 160.672481 
L 534.298512 157.300649 
L 542.246214 142.960759 
L 550.193917 131.598155 
L 558.141619 127.335597 
L 566.089322 148.07508 
L 574.037024 132.134195 
L 581.984727 110.128998 
L 589.932429 108.962415 
L 597.880131 108.501391 
L 605.827834 101.353668 
L 613.775536 98.116523 
L 621.723239 91.931093 
L 629.670941 81.985904 
L 637.618643 78.439092 
L 645.566346 75.094845 
L 653.514048 93.589253 
L 661.461751 78.190912 
L 669.409453 75.367524 
" clip-path="url(#p64ab0ce5bb)" style="fill: none; stroke: #000000; stroke-opacity: 0.1; stroke-linecap: square"/>
   </g>
   <g id="line2d_30">
    <path d="M 494.56 166.52055 
L 502.507702 166.012276 
L 510.455405 166.682887 
L 518.403107 162.049056 
L 526.35081 154.384837 
L 534.298512 147.85606 
L 542.246214 143.010982 
L 550.193917 137.880032 
L 558.141619 142.718615 
L 566.089322 164.053618 
L 574.037024 149.605612 
L 581.984727 148.83424 
L 589.932429 143.15728 
L 597.880131 135.084132 
L 605.827834 133.438938 
L 613.775536 127.018686 
L 621.723239 123.867944 
L 629.670941 116.932491 
L 637.618643 113.837743 
L 645.566346 114.897965 
L 653.514048 130.573482 
L 661.461751 118.284422 
L 669.409453 112.720946 
" clip-path="url(#p64ab0ce5bb)" style="fill: none; stroke: #000000; stroke-opacity: 0.1; stroke-linecap: square"/>
   </g>
   <g id="line2d_31">
    <path d="M 494.56 166.52055 
L 502.507702 158.857807 
L 510.455405 153.949982 
L 518.403107 144.212018 
L 526.35081 137.19291 
L 534.298512 129.45881 
L 542.246214 123.118176 
L 550.193917 115.891901 
L 558.141619 120.039255 
L 566.089322 141.300221 
L 574.037024 135.890953 
L 581.984727 134.548759 
L 589.932429 131.523224 
L 597.880131 127.18965 
L 605.827834 117.700816 
L 613.775536 111.741296 
L 621.723239 107.207085 
L 629.670941 98.584346 
L 637.618643 94.760945 
L 645.566346 90.090566 
L 653.514048 134.826878 
L 661.461751 103.437212 
L 669.409453 87.352863 
" clip-path="url(#p64ab0ce5bb)" style="fill: none; stroke: #000000; stroke-opacity: 0.1; stroke-linecap: square"/>
   </g>
   <g id="line2d_32">
    <path d="M 494.56 166.52055 
L 502.507702 166.656777 
L 510.455405 163.980405 
L 518.403107 157.193229 
L 526.35081 146.755 
L 534.298512 137.341188 
L 542.246214 130.491891 
L 550.193917 126.465744 
L 558.141619 129.713105 
L 566.089322 143.027229 
L 574.037024 136.161143 
L 581.984727 133.246668 
L 589.932429 127.565315 
L 597.880131 122.298401 
L 605.827834 115.524076 
L 613.775536 106.956676 
L 621.723239 102.750634 
L 629.670941 95.479004 
L 637.618643 85.483091 
L 645.566346 76.582318 
L 653.514048 87.896708 
L 661.461751 62.556695 
L 669.409453 53.79 
" clip-path="url(#p64ab0ce5bb)" style="fill: none; stroke: #000000; stroke-opacity: 0.1; stroke-linecap: square"/>
   </g>
   <g id="line2d_33">
    <path d="M 494.56 166.52055 
L 502.507702 159.683147 
L 510.455405 159.425928 
L 518.403107 161.122278 
L 526.35081 158.546601 
L 534.298512 157.91347 
L 542.246214 152.894083 
L 550.193917 149.800079 
L 558.141619 156.37156 
L 566.089322 177.550052 
L 574.037024 173.866836 
L 581.984727 172.670174 
L 589.932429 184.384405 
L 597.880131 191.108135 
L 605.827834 191.161992 
L 613.775536 187.766067 
L 621.723239 183.044125 
L 629.670941 177.027388 
L 637.618643 175.044173 
L 645.566346 171.150135 
L 653.514048 200.38625 
L 661.461751 170.208812 
L 669.409453 152.69091 
" clip-path="url(#p64ab0ce5bb)" style="fill: none; stroke: #b3de69; stroke-width: 3; stroke-linecap: square"/>
   </g>
   <g id="patch_9">
    <path d="M 669.409453 200.38625 
L 669.409453 53.79 
" style="fill: none; stroke: #000000; stroke-width: 0.6; stroke-linejoin: miter; stroke-linecap: square"/>
   </g>
   <g id="patch_10">
    <path d="M 494.56 200.38625 
L 669.409453 200.38625 
" style="fill: none; stroke: #000000; stroke-width: 0.6; stroke-linejoin: miter; stroke-linecap: square"/>
   </g>
   <g id="text_18">
    <!-- Italy -->
    <g style="fill: #323034" transform="translate(570.07043 47.79) scale(0.13 -0.13)">
     <defs>
      <path id="STIXGeneral-Regular-49" d="M 2016 0 
L 115 0 
L 115 122 
Q 518 134 627 240 
Q 736 346 736 717 
L 736 3526 
Q 736 3898 633 3994 
Q 531 4090 115 4115 
L 115 4237 
L 2016 4237 
L 2016 4115 
Q 1613 4096 1501 3993 
Q 1389 3891 1389 3526 
L 1389 717 
Q 1389 358 1504 246 
Q 1619 134 2016 122 
L 2016 0 
z
" transform="scale(0.015625)"/>
      <path id="STIXGeneral-Regular-74" d="M 1702 493 
L 1786 422 
Q 1478 -64 1011 -64 
Q 448 -64 448 749 
L 448 2675 
L 109 2675 
Q 83 2694 83 2720 
Q 83 2771 192 2842 
Q 435 2982 813 3526 
Q 826 3546 874 3606 
Q 922 3667 941 3706 
Q 986 3706 986 3622 
L 986 2880 
L 1632 2880 
L 1632 2675 
L 986 2675 
L 986 845 
Q 986 538 1062 403 
Q 1139 269 1318 269 
Q 1510 269 1702 493 
z
" transform="scale(0.015625)"/>
      <path id="STIXGeneral-Regular-6c" d="M 1645 0 
L 134 0 
L 134 96 
Q 435 122 531 221 
Q 627 320 627 589 
L 627 3590 
Q 627 3821 569 3910 
Q 512 4000 358 4000 
Q 224 4000 122 3987 
L 122 4090 
Q 730 4237 1133 4371 
L 1165 4346 
L 1165 557 
Q 1165 288 1254 201 
Q 1344 115 1645 96 
L 1645 0 
z
" transform="scale(0.015625)"/>
     </defs>
     <use xlink:href="#STIXGeneral-Regular-49"/>
     <use xlink:href="#STIXGeneral-Regular-74" transform="translate(33.299988 0)"/>
     <use xlink:href="#STIXGeneral-Regular-61" transform="translate(61.099976 0)"/>
     <use xlink:href="#STIXGeneral-Regular-6c" transform="translate(105.499969 0)"/>
     <use xlink:href="#STIXGeneral-Regular-79" transform="translate(133.299957 0)"/>
    </g>
   </g>
  </g>
  <g id="axes_4">
   <g id="patch_11">
    <path d="M 23.2 396.4925 
L 198.049453 396.4925 
L 198.049453 249.89625 
L 23.2 249.89625 
z
" style="fill: #ffffff"/>
   </g>
   <g id="matplotlib.axis_7">
    <g id="xtick_10">
     <g id="line2d_34">
      <g>
       <use xlink:href="#mc197ed9894" x="23.2" y="396.4925" style="fill: #323034; stroke: #323034; stroke-width: 0.8"/>
      </g>
     </g>
     <g id="text_19">
      <!-- $\mathdefault{2000}$ -->
      <g style="fill: #323034" transform="translate(7.2 414.42) scale(0.16 -0.16)">
       <use xlink:href="#STIXGeneral-Regular-32" transform="translate(0 0.40625)"/>
       <use xlink:href="#STIXGeneral-Regular-30" transform="translate(49.999985 0.40625)"/>
       <use xlink:href="#STIXGeneral-Regular-30" transform="translate(99.999969 0.40625)"/>
       <use xlink:href="#STIXGeneral-Regular-30" transform="translate(149.999954 0.40625)"/>
      </g>
     </g>
    </g>
    <g id="xtick_11">
     <g id="line2d_35">
      <g>
       <use xlink:href="#mc197ed9894" x="102.677024" y="396.4925" style="fill: #323034; stroke: #323034; stroke-width: 0.8"/>
      </g>
     </g>
     <g id="text_20">
      <!-- $\mathdefault{2010}$ -->
      <g style="fill: #323034" transform="translate(86.677024 414.42) scale(0.16 -0.16)">
       <use xlink:href="#STIXGeneral-Regular-32" transform="translate(0 0.40625)"/>
       <use xlink:href="#STIXGeneral-Regular-30" transform="translate(49.999985 0.40625)"/>
       <use xlink:href="#STIXGeneral-Regular-31" transform="translate(99.999969 0.40625)"/>
       <use xlink:href="#STIXGeneral-Regular-30" transform="translate(149.999954 0.40625)"/>
      </g>
     </g>
    </g>
    <g id="xtick_12">
     <g id="line2d_36">
      <g>
       <use xlink:href="#mc197ed9894" x="182.154048" y="396.4925" style="fill: #323034; stroke: #323034; stroke-width: 0.8"/>
      </g>
     </g>
     <g id="text_21">
      <!-- $\mathdefault{2020}$ -->
      <g style="fill: #323034" transform="translate(166.154048 414.42) scale(0.16 -0.16)">
       <use xlink:href="#STIXGeneral-Regular-32" transform="translate(0 0.40625)"/>
       <use xlink:href="#STIXGeneral-Regular-30" transform="translate(49.999985 0.40625)"/>
       <use xlink:href="#STIXGeneral-Regular-32" transform="translate(99.999969 0.40625)"/>
       <use xlink:href="#STIXGeneral-Regular-30" transform="translate(149.999954 0.40625)"/>
      </g>
     </g>
    </g>
   </g>
   <g id="matplotlib.axis_8">
    <g id="ytick_7">
     <g id="line2d_37">
      <g>
       <use xlink:href="#me24544a1e0" x="198.049453" y="362.6268" style="fill: #323034; stroke: #323034; stroke-width: 0.8"/>
      </g>
     </g>
     <g id="text_22">
      <!-- $\mathdefault{100}$ -->
      <g style="fill: #323034" transform="translate(205.049453 368.09055) scale(0.16 -0.16)">
       <use xlink:href="#STIXGeneral-Regular-31" transform="translate(0 0.40625)"/>
       <use xlink:href="#STIXGeneral-Regular-30" transform="translate(49.999985 0.40625)"/>
       <use xlink:href="#STIXGeneral-Regular-30" transform="translate(99.999969 0.40625)"/>
      </g>
     </g>
    </g>
    <g id="ytick_8">
     <g id="line2d_38">
      <g>
       <use xlink:href="#me24544a1e0" x="198.049453" y="292.28314" style="fill: #323034; stroke: #323034; stroke-width: 0.8"/>
      </g>
     </g>
     <g id="text_23">
      <!-- $\mathdefault{120}$ -->
      <g style="fill: #323034" transform="translate(205.049453 297.74689) scale(0.16 -0.16)">
       <use xlink:href="#STIXGeneral-Regular-31" transform="translate(0 0.40625)"/>
       <use xlink:href="#STIXGeneral-Regular-32" transform="translate(49.999985 0.40625)"/>
       <use xlink:href="#STIXGeneral-Regular-30" transform="translate(99.999969 0.40625)"/>
      </g>
     </g>
    </g>
   </g>
   <g id="line2d_39">
    <path d="M 23.2 362.6268 
L 31.147702 358.549234 
L 39.095405 357.355115 
L 47.043107 356.434557 
L 54.99081 348.856283 
L 62.938512 344.743241 
L 70.886214 337.346357 
L 78.833917 330.188781 
L 86.781619 330.874157 
L 94.729322 343.613539 
L 102.677024 338.057294 
L 110.624727 330.740998 
L 118.572429 331.890271 
L 126.520131 330.887687 
L 134.467834 328.896071 
L 142.415536 326.166974 
L 150.363239 323.86025 
L 158.310941 316.879179 
L 166.258643 311.783006 
L 174.206346 304.984906 
L 182.154048 336.671708 
L 190.101751 312.117076 
L 198.049453 303.1233 
" clip-path="url(#p86a9518b1f)" style="fill: none; stroke: #000000; stroke-opacity: 0.1; stroke-linecap: square"/>
   </g>
   <g id="line2d_40">
    <path d="M 23.2 362.6268 
L 31.147702 357.471642 
L 39.095405 358.884554 
L 47.043107 360.96394 
L 54.99081 356.778731 
L 62.938512 353.406899 
L 70.886214 339.067009 
L 78.833917 327.704405 
L 86.781619 323.441847 
L 94.729322 344.18133 
L 102.677024 328.240445 
L 110.624727 306.235248 
L 118.572429 305.068665 
L 126.520131 304.607641 
L 134.467834 297.459918 
L 142.415536 294.222773 
L 150.363239 288.037343 
L 158.310941 278.092154 
L 166.258643 274.545342 
L 174.206346 271.201095 
L 182.154048 289.695503 
L 190.101751 274.297162 
L 198.049453 271.473774 
" clip-path="url(#p86a9518b1f)" style="fill: none; stroke: #000000; stroke-opacity: 0.1; stroke-linecap: square"/>
   </g>
   <g id="line2d_41">
    <path d="M 23.2 362.6268 
L 31.147702 355.789397 
L 39.095405 355.532178 
L 47.043107 357.228528 
L 54.99081 354.652851 
L 62.938512 354.01972 
L 70.886214 349.000333 
L 78.833917 345.906329 
L 86.781619 352.47781 
L 94.729322 373.656302 
L 102.677024 369.973086 
L 110.624727 368.776424 
L 118.572429 380.490655 
L 126.520131 387.214385 
L 134.467834 387.268242 
L 142.415536 383.872317 
L 150.363239 379.150375 
L 158.310941 373.133638 
L 166.258643 371.150423 
L 174.206346 367.256385 
L 182.154048 396.4925 
L 190.101751 366.315062 
L 198.049453 348.79716 
" clip-path="url(#p86a9518b1f)" style="fill: none; stroke: #000000; stroke-opacity: 0.1; stroke-linecap: square"/>
   </g>
   <g id="line2d_42">
    <path d="M 23.2 362.6268 
L 31.147702 354.964057 
L 39.095405 350.056232 
L 47.043107 340.318268 
L 54.99081 333.29916 
L 62.938512 325.56506 
L 70.886214 319.224426 
L 78.833917 311.998151 
L 86.781619 316.145505 
L 94.729322 337.406471 
L 102.677024 331.997203 
L 110.624727 330.655009 
L 118.572429 327.629474 
L 126.520131 323.2959 
L 134.467834 313.807066 
L 142.415536 307.847546 
L 150.363239 303.313335 
L 158.310941 294.690596 
L 166.258643 290.867195 
L 174.206346 286.196816 
L 182.154048 330.933128 
L 190.101751 299.543462 
L 198.049453 283.459113 
" clip-path="url(#p86a9518b1f)" style="fill: none; stroke: #000000; stroke-opacity: 0.1; stroke-linecap: square"/>
   </g>
   <g id="line2d_43">
    <path d="M 23.2 362.6268 
L 31.147702 362.763027 
L 39.095405 360.086655 
L 47.043107 353.299479 
L 54.99081 342.86125 
L 62.938512 333.447438 
L 70.886214 326.598141 
L 78.833917 322.571994 
L 86.781619 325.819355 
L 94.729322 339.133479 
L 102.677024 332.267393 
L 110.624727 329.352918 
L 118.572429 323.671565 
L 126.520131 318.404651 
L 134.467834 311.630326 
L 142.415536 303.062926 
L 150.363239 298.856884 
L 158.310941 291.585254 
L 166.258643 281.589341 
L 174.206346 272.688568 
L 182.154048 284.002958 
L 190.101751 258.662945 
L 198.049453 249.89625 
" clip-path="url(#p86a9518b1f)" style="fill: none; stroke: #000000; stroke-opacity: 0.1; stroke-linecap: square"/>
   </g>
   <g id="line2d_44">
    <path d="M 23.2 362.6268 
L 31.147702 362.118526 
L 39.095405 362.789137 
L 47.043107 358.155306 
L 54.99081 350.491087 
L 62.938512 343.96231 
L 70.886214 339.117232 
L 78.833917 333.986282 
L 86.781619 338.824865 
L 94.729322 360.159868 
L 102.677024 345.711862 
L 110.624727 344.94049 
L 118.572429 339.26353 
L 126.520131 331.190382 
L 134.467834 329.545188 
L 142.415536 323.124936 
L 150.363239 319.974194 
L 158.310941 313.038741 
L 166.258643 309.943993 
L 174.206346 311.004215 
L 182.154048 326.679732 
L 190.101751 314.390672 
L 198.049453 308.827196 
" clip-path="url(#p86a9518b1f)" style="fill: none; stroke: #fdb462; stroke-width: 3; stroke-linecap: square"/>
   </g>
   <g id="patch_12">
    <path d="M 198.049453 396.4925 
L 198.049453 249.89625 
" style="fill: none; stroke: #000000; stroke-width: 0.6; stroke-linejoin: miter; stroke-linecap: square"/>
   </g>
   <g id="patch_13">
    <path d="M 23.2 396.4925 
L 198.049453 396.4925 
" style="fill: none; stroke: #000000; stroke-width: 0.6; stroke-linejoin: miter; stroke-linecap: square"/>
   </g>
   <g id="text_24">
    <!-- Japan -->
    <g style="fill: #323034" transform="translate(95.927617 243.89625) scale(0.13 -0.13)">
     <defs>
      <path id="STIXGeneral-Regular-4a" d="M 2266 4237 
L 2266 4115 
Q 1875 4083 1776 3984 
Q 1677 3885 1677 3514 
L 1677 1184 
Q 1677 -90 608 -90 
Q 314 -90 138 32 
Q -38 154 -38 371 
Q -38 499 54 601 
Q 147 704 275 704 
Q 486 704 589 435 
Q 602 403 621 348 
Q 640 294 649 265 
Q 659 237 678 208 
Q 698 179 723 166 
Q 749 154 787 154 
Q 928 154 976 253 
Q 1024 352 1024 602 
L 1024 3520 
Q 1024 3898 928 3990 
Q 832 4083 429 4115 
L 429 4237 
L 2266 4237 
z
" transform="scale(0.015625)"/>
      <path id="STIXGeneral-Regular-70" d="M 1018 2931 
L 1018 2438 
Q 1421 2944 1939 2944 
Q 2406 2944 2707 2560 
Q 3008 2176 3008 1581 
Q 3008 883 2621 409 
Q 2234 -64 1664 -64 
Q 1466 -64 1328 -6 
Q 1190 51 1018 211 
L 1018 -794 
Q 1018 -1094 1120 -1180 
Q 1222 -1267 1581 -1274 
L 1581 -1389 
L 32 -1389 
L 32 -1280 
Q 314 -1254 397 -1171 
Q 480 -1088 480 -838 
L 480 2157 
Q 480 2381 429 2451 
Q 378 2522 218 2522 
Q 115 2522 58 2515 
L 58 2618 
Q 506 2752 979 2944 
L 1018 2931 
z
M 1018 2138 
L 1018 563 
Q 1018 422 1238 281 
Q 1459 141 1683 141 
Q 2029 141 2243 467 
Q 2458 794 2458 1325 
Q 2458 1888 2243 2224 
Q 2029 2560 1670 2560 
Q 1446 2560 1232 2419 
Q 1018 2278 1018 2138 
z
" transform="scale(0.015625)"/>
     </defs>
     <use xlink:href="#STIXGeneral-Regular-4a"/>
     <use xlink:href="#STIXGeneral-Regular-61" transform="translate(37.299988 0)"/>
     <use xlink:href="#STIXGeneral-Regular-70" transform="translate(81.699982 0)"/>
     <use xlink:href="#STIXGeneral-Regular-61" transform="translate(131.699966 0)"/>
     <use xlink:href="#STIXGeneral-Regular-6e" transform="translate(176.09996 0)"/>
    </g>
   </g>
  </g>
  <g id="axes_5">
   <g id="patch_14">
    <path d="M 258.88 396.4925 
L 433.729453 396.4925 
L 433.729453 249.89625 
L 258.88 249.89625 
z
" style="fill: #ffffff"/>
   </g>
   <g id="matplotlib.axis_9">
    <g id="xtick_13">
     <g id="line2d_45">
      <g>
       <use xlink:href="#mc197ed9894" x="258.88" y="396.4925" style="fill: #323034; stroke: #323034; stroke-width: 0.8"/>
      </g>
     </g>
     <g id="text_25">
      <!-- $\mathdefault{2000}$ -->
      <g style="fill: #323034" transform="translate(242.88 414.42) scale(0.16 -0.16)">
       <use xlink:href="#STIXGeneral-Regular-32" transform="translate(0 0.40625)"/>
       <use xlink:href="#STIXGeneral-Regular-30" transform="translate(49.999985 0.40625)"/>
       <use xlink:href="#STIXGeneral-Regular-30" transform="translate(99.999969 0.40625)"/>
       <use xlink:href="#STIXGeneral-Regular-30" transform="translate(149.999954 0.40625)"/>
      </g>
     </g>
    </g>
    <g id="xtick_14">
     <g id="line2d_46">
      <g>
       <use xlink:href="#mc197ed9894" x="338.357024" y="396.4925" style="fill: #323034; stroke: #323034; stroke-width: 0.8"/>
      </g>
     </g>
     <g id="text_26">
      <!-- $\mathdefault{2010}$ -->
      <g style="fill: #323034" transform="translate(322.357024 414.42) scale(0.16 -0.16)">
       <use xlink:href="#STIXGeneral-Regular-32" transform="translate(0 0.40625)"/>
       <use xlink:href="#STIXGeneral-Regular-30" transform="translate(49.999985 0.40625)"/>
       <use xlink:href="#STIXGeneral-Regular-31" transform="translate(99.999969 0.40625)"/>
       <use xlink:href="#STIXGeneral-Regular-30" transform="translate(149.999954 0.40625)"/>
      </g>
     </g>
    </g>
    <g id="xtick_15">
     <g id="line2d_47">
      <g>
       <use xlink:href="#mc197ed9894" x="417.834048" y="396.4925" style="fill: #323034; stroke: #323034; stroke-width: 0.8"/>
      </g>
     </g>
     <g id="text_27">
      <!-- $\mathdefault{2020}$ -->
      <g style="fill: #323034" transform="translate(401.834048 414.42) scale(0.16 -0.16)">
       <use xlink:href="#STIXGeneral-Regular-32" transform="translate(0 0.40625)"/>
       <use xlink:href="#STIXGeneral-Regular-30" transform="translate(49.999985 0.40625)"/>
       <use xlink:href="#STIXGeneral-Regular-32" transform="translate(99.999969 0.40625)"/>
       <use xlink:href="#STIXGeneral-Regular-30" transform="translate(149.999954 0.40625)"/>
      </g>
     </g>
    </g>
   </g>
   <g id="matplotlib.axis_10">
    <g id="ytick_9">
     <g id="line2d_48">
      <g>
       <use xlink:href="#me24544a1e0" x="433.729453" y="362.6268" style="fill: #323034; stroke: #323034; stroke-width: 0.8"/>
      </g>
     </g>
     <g id="text_28">
      <!-- $\mathdefault{100}$ -->
      <g style="fill: #323034" transform="translate(440.729453 368.09055) scale(0.16 -0.16)">
       <use xlink:href="#STIXGeneral-Regular-31" transform="translate(0 0.40625)"/>
       <use xlink:href="#STIXGeneral-Regular-30" transform="translate(49.999985 0.40625)"/>
       <use xlink:href="#STIXGeneral-Regular-30" transform="translate(99.999969 0.40625)"/>
      </g>
     </g>
    </g>
    <g id="ytick_10">
     <g id="line2d_49">
      <g>
       <use xlink:href="#me24544a1e0" x="433.729453" y="292.28314" style="fill: #323034; stroke: #323034; stroke-width: 0.8"/>
      </g>
     </g>
     <g id="text_29">
      <!-- $\mathdefault{120}$ -->
      <g style="fill: #323034" transform="translate(440.729453 297.74689) scale(0.16 -0.16)">
       <use xlink:href="#STIXGeneral-Regular-31" transform="translate(0 0.40625)"/>
       <use xlink:href="#STIXGeneral-Regular-32" transform="translate(49.999985 0.40625)"/>
       <use xlink:href="#STIXGeneral-Regular-30" transform="translate(99.999969 0.40625)"/>
      </g>
     </g>
    </g>
   </g>
   <g id="line2d_50">
    <path d="M 258.88 362.6268 
L 266.827702 358.549234 
L 274.775405 357.355115 
L 282.723107 356.434557 
L 290.67081 348.856283 
L 298.618512 344.743241 
L 306.566214 337.346357 
L 314.513917 330.188781 
L 322.461619 330.874157 
L 330.409322 343.613539 
L 338.357024 338.057294 
L 346.304727 330.740998 
L 354.252429 331.890271 
L 362.200131 330.887687 
L 370.147834 328.896071 
L 378.095536 326.166974 
L 386.043239 323.86025 
L 393.990941 316.879179 
L 401.938643 311.783006 
L 409.886346 304.984906 
L 417.834048 336.671708 
L 425.781751 312.117076 
L 433.729453 303.1233 
" clip-path="url(#pa20eede972)" style="fill: none; stroke: #000000; stroke-opacity: 0.1; stroke-linecap: square"/>
   </g>
   <g id="line2d_51">
    <path d="M 258.88 362.6268 
L 266.827702 357.471642 
L 274.775405 358.884554 
L 282.723107 360.96394 
L 290.67081 356.778731 
L 298.618512 353.406899 
L 306.566214 339.067009 
L 314.513917 327.704405 
L 322.461619 323.441847 
L 330.409322 344.18133 
L 338.357024 328.240445 
L 346.304727 306.235248 
L 354.252429 305.068665 
L 362.200131 304.607641 
L 370.147834 297.459918 
L 378.095536 294.222773 
L 386.043239 288.037343 
L 393.990941 278.092154 
L 401.938643 274.545342 
L 409.886346 271.201095 
L 417.834048 289.695503 
L 425.781751 274.297162 
L 433.729453 271.473774 
" clip-path="url(#pa20eede972)" style="fill: none; stroke: #000000; stroke-opacity: 0.1; stroke-linecap: square"/>
   </g>
   <g id="line2d_52">
    <path d="M 258.88 362.6268 
L 266.827702 355.789397 
L 274.775405 355.532178 
L 282.723107 357.228528 
L 290.67081 354.652851 
L 298.618512 354.01972 
L 306.566214 349.000333 
L 314.513917 345.906329 
L 322.461619 352.47781 
L 330.409322 373.656302 
L 338.357024 369.973086 
L 346.304727 368.776424 
L 354.252429 380.490655 
L 362.200131 387.214385 
L 370.147834 387.268242 
L 378.095536 383.872317 
L 386.043239 379.150375 
L 393.990941 373.133638 
L 401.938643 371.150423 
L 409.886346 367.256385 
L 417.834048 396.4925 
L 425.781751 366.315062 
L 433.729453 348.79716 
" clip-path="url(#pa20eede972)" style="fill: none; stroke: #000000; stroke-opacity: 0.1; stroke-linecap: square"/>
   </g>
   <g id="line2d_53">
    <path d="M 258.88 362.6268 
L 266.827702 362.118526 
L 274.775405 362.789137 
L 282.723107 358.155306 
L 290.67081 350.491087 
L 298.618512 343.96231 
L 306.566214 339.117232 
L 314.513917 333.986282 
L 322.461619 338.824865 
L 330.409322 360.159868 
L 338.357024 345.711862 
L 346.304727 344.94049 
L 354.252429 339.26353 
L 362.200131 331.190382 
L 370.147834 329.545188 
L 378.095536 323.124936 
L 386.043239 319.974194 
L 393.990941 313.038741 
L 401.938643 309.943993 
L 409.886346 311.004215 
L 417.834048 326.679732 
L 425.781751 314.390672 
L 433.729453 308.827196 
" clip-path="url(#pa20eede972)" style="fill: none; stroke: #000000; stroke-opacity: 0.1; stroke-linecap: square"/>
   </g>
   <g id="line2d_54">
    <path d="M 258.88 362.6268 
L 266.827702 362.763027 
L 274.775405 360.086655 
L 282.723107 353.299479 
L 290.67081 342.86125 
L 298.618512 333.447438 
L 306.566214 326.598141 
L 314.513917 322.571994 
L 322.461619 325.819355 
L 330.409322 339.133479 
L 338.357024 332.267393 
L 346.304727 329.352918 
L 354.252429 323.671565 
L 362.200131 318.404651 
L 370.147834 311.630326 
L 378.095536 303.062926 
L 386.043239 298.856884 
L 393.990941 291.585254 
L 401.938643 281.589341 
L 409.886346 272.688568 
L 417.834048 284.002958 
L 425.781751 258.662945 
L 433.729453 249.89625 
" clip-path="url(#pa20eede972)" style="fill: none; stroke: #000000; stroke-opacity: 0.1; stroke-linecap: square"/>
   </g>
   <g id="line2d_55">
    <path d="M 258.88 362.6268 
L 266.827702 354.964057 
L 274.775405 350.056232 
L 282.723107 340.318268 
L 290.67081 333.29916 
L 298.618512 325.56506 
L 306.566214 319.224426 
L 314.513917 311.998151 
L 322.461619 316.145505 
L 330.409322 337.406471 
L 338.357024 331.997203 
L 346.304727 330.655009 
L 354.252429 327.629474 
L 362.200131 323.2959 
L 370.147834 313.807066 
L 378.095536 307.847546 
L 386.043239 303.313335 
L 393.990941 294.690596 
L 401.938643 290.867195 
L 409.886346 286.196816 
L 417.834048 330.933128 
L 425.781751 299.543462 
L 433.729453 283.459113 
" clip-path="url(#pa20eede972)" style="fill: none; stroke: #fccde5; stroke-width: 3; stroke-linecap: square"/>
   </g>
   <g id="patch_15">
    <path d="M 433.729453 396.4925 
L 433.729453 249.89625 
" style="fill: none; stroke: #000000; stroke-width: 0.6; stroke-linejoin: miter; stroke-linecap: square"/>
   </g>
   <g id="patch_16">
    <path d="M 258.88 396.4925 
L 433.729453 396.4925 
" style="fill: none; stroke: #000000; stroke-width: 0.6; stroke-linejoin: miter; stroke-linecap: square"/>
   </g>
   <g id="text_30">
    <!-- United Kingdom -->
    <g style="fill: #323034" transform="translate(302.429727 243.89625) scale(0.13 -0.13)">
     <defs>
      <path id="STIXGeneral-Regular-55" d="M 4512 4237 
L 4512 4115 
Q 4122 4077 4016 3926 
Q 3910 3776 3910 3302 
L 3910 1670 
Q 3910 1178 3840 896 
Q 3770 614 3565 378 
Q 3155 -90 2272 -90 
Q 1574 -90 1184 205 
Q 666 589 666 1594 
L 666 3578 
Q 666 3898 566 3994 
Q 467 4090 90 4115 
L 90 4237 
L 1901 4237 
L 1901 4115 
Q 1517 4083 1417 3977 
Q 1318 3872 1318 3514 
L 1318 1517 
Q 1318 1101 1369 877 
Q 1421 653 1600 480 
Q 1901 192 2419 192 
Q 3066 192 3392 570 
Q 3539 749 3584 963 
Q 3629 1178 3629 1600 
L 3629 3283 
Q 3629 3782 3520 3936 
Q 3411 4090 3027 4115 
L 3027 4237 
L 4512 4237 
z
" transform="scale(0.015625)"/>
      <path id="STIXGeneral-Regular-69" d="M 1152 4045 
Q 1152 3904 1056 3811 
Q 960 3718 819 3718 
Q 685 3718 592 3811 
Q 499 3904 499 4045 
Q 499 4179 595 4275 
Q 691 4371 826 4371 
Q 966 4371 1059 4275 
Q 1152 4179 1152 4045 
z
M 1619 0 
L 102 0 
L 102 96 
Q 435 115 521 211 
Q 608 307 608 666 
L 608 2118 
Q 608 2342 563 2432 
Q 518 2522 397 2522 
Q 243 2522 128 2490 
L 128 2592 
L 1120 2944 
L 1146 2918 
L 1146 672 
Q 1146 314 1226 218 
Q 1306 122 1619 96 
L 1619 0 
z
" transform="scale(0.015625)"/>
      <path id="STIXGeneral-Regular-64" d="M 3142 269 
L 2202 -64 
L 2176 -45 
L 2176 365 
Q 1869 -64 1357 -64 
Q 826 -64 499 317 
Q 173 698 173 1312 
Q 173 1990 563 2467 
Q 954 2944 1504 2944 
Q 1850 2944 2176 2669 
L 2176 3667 
Q 2176 3866 2118 3930 
Q 2061 3994 1882 3994 
Q 1792 3994 1741 3987 
L 1741 4090 
Q 2323 4243 2682 4371 
L 2714 4358 
L 2714 730 
Q 2714 506 2768 435 
Q 2822 365 2995 365 
Q 3034 365 3142 371 
L 3142 269 
z
M 2176 653 
L 2176 2125 
Q 2176 2381 1981 2573 
Q 1786 2765 1523 2765 
Q 1158 2765 940 2438 
Q 723 2112 723 1568 
Q 723 979 963 624 
Q 1203 269 1606 269 
Q 1907 269 2080 474 
Q 2176 582 2176 653 
z
" transform="scale(0.015625)"/>
      <path id="STIXGeneral-Regular-20" transform="scale(0.015625)"/>
      <path id="STIXGeneral-Regular-4b" d="M 4627 0 
L 2688 0 
L 2688 122 
L 2861 128 
Q 3130 134 3130 282 
Q 3130 397 2922 643 
Q 2714 890 2253 1370 
L 1613 2029 
L 1446 1894 
L 1446 710 
Q 1446 352 1548 253 
Q 1651 154 2016 122 
L 2016 0 
L 211 0 
L 211 122 
Q 589 141 691 262 
Q 794 384 794 800 
L 794 3514 
Q 794 3872 691 3981 
Q 589 4090 218 4115 
L 218 4237 
L 2022 4237 
L 2022 4115 
Q 1632 4090 1539 3987 
Q 1446 3885 1446 3507 
L 1446 2227 
L 2586 3277 
Q 2861 3533 2973 3667 
Q 3085 3802 3085 3910 
Q 3085 4013 3030 4057 
Q 2976 4102 2822 4109 
L 2662 4115 
L 2662 4237 
L 4320 4237 
L 4320 4115 
Q 3994 4090 3824 4003 
Q 3654 3917 3322 3597 
L 2131 2458 
L 3629 819 
Q 4026 384 4214 253 
Q 4403 122 4627 122 
L 4627 0 
z
" transform="scale(0.015625)"/>
      <path id="STIXGeneral-Regular-67" d="M 3008 2483 
L 2477 2483 
Q 2598 2208 2598 1946 
Q 2598 1453 2265 1203 
Q 1933 954 1600 954 
Q 1530 954 1357 973 
L 1235 986 
Q 1107 947 979 812 
Q 851 678 851 582 
Q 851 435 1350 410 
L 2176 371 
Q 2528 358 2739 172 
Q 2950 -13 2950 -314 
Q 2950 -685 2566 -986 
Q 2035 -1395 1286 -1395 
Q 826 -1395 502 -1212 
Q 179 -1030 179 -774 
Q 179 -595 320 -419 
Q 461 -243 806 6 
Q 602 102 534 172 
Q 467 243 467 346 
Q 467 531 762 787 
Q 909 915 1037 1043 
Q 717 1203 579 1401 
Q 442 1600 442 1901 
Q 442 2336 752 2640 
Q 1062 2944 1510 2944 
Q 1766 2944 2022 2848 
L 2163 2797 
Q 2349 2733 2515 2733 
L 3008 2733 
L 3008 2483 
z
M 973 2163 
L 973 2144 
Q 973 1683 1155 1398 
Q 1338 1114 1632 1114 
Q 1850 1114 1978 1270 
Q 2106 1427 2106 1690 
Q 2106 2112 1914 2464 
Q 1754 2765 1446 2765 
Q 1222 2765 1097 2605 
Q 973 2445 973 2163 
z
M 2771 -410 
Q 2771 -230 2595 -163 
Q 2419 -96 1978 -96 
Q 1344 -96 941 -13 
Q 749 -243 688 -348 
Q 627 -454 627 -563 
Q 627 -774 880 -902 
Q 1133 -1030 1555 -1030 
Q 2099 -1030 2435 -860 
Q 2771 -691 2771 -410 
z
" transform="scale(0.015625)"/>
      <path id="STIXGeneral-Regular-6f" d="M 3008 1478 
Q 3008 806 2608 371 
Q 2208 -64 1568 -64 
Q 979 -64 582 368 
Q 186 800 186 1459 
Q 186 2125 582 2534 
Q 979 2944 1626 2944 
Q 2221 2944 2614 2537 
Q 3008 2131 3008 1478 
z
M 2432 1306 
Q 2432 2035 2112 2445 
Q 1856 2765 1504 2765 
Q 1171 2765 966 2493 
Q 762 2221 762 1747 
Q 762 928 1101 435 
Q 1318 115 1677 115 
Q 2029 115 2230 432 
Q 2432 749 2432 1306 
z
" transform="scale(0.015625)"/>
     </defs>
     <use xlink:href="#STIXGeneral-Regular-55"/>
     <use xlink:href="#STIXGeneral-Regular-6e" transform="translate(72.199982 0)"/>
     <use xlink:href="#STIXGeneral-Regular-69" transform="translate(122.199966 0)"/>
     <use xlink:href="#STIXGeneral-Regular-74" transform="translate(149.999954 0)"/>
     <use xlink:href="#STIXGeneral-Regular-65" transform="translate(177.799942 0)"/>
     <use xlink:href="#STIXGeneral-Regular-64" transform="translate(222.199936 0)"/>
     <use xlink:href="#STIXGeneral-Regular-20" transform="translate(272.199921 0)"/>
     <use xlink:href="#STIXGeneral-Regular-4b" transform="translate(297.199905 0)"/>
     <use xlink:href="#STIXGeneral-Regular-69" transform="translate(369.399887 0)"/>
     <use xlink:href="#STIXGeneral-Regular-6e" transform="translate(397.199875 0)"/>
     <use xlink:href="#STIXGeneral-Regular-67" transform="translate(447.19986 0)"/>
     <use xlink:href="#STIXGeneral-Regular-64" transform="translate(497.199844 0)"/>
     <use xlink:href="#STIXGeneral-Regular-6f" transform="translate(547.199829 0)"/>
     <use xlink:href="#STIXGeneral-Regular-6d" transform="translate(597.199814 0)"/>
    </g>
   </g>
  </g>
  <g id="axes_6">
   <g id="patch_17">
    <path d="M 494.56 396.4925 
L 669.409453 396.4925 
L 669.409453 249.89625 
L 494.56 249.89625 
z
" style="fill: #ffffff"/>
   </g>
   <g id="matplotlib.axis_11">
    <g id="xtick_16">
     <g id="line2d_56">
      <g>
       <use xlink:href="#mc197ed9894" x="494.56" y="396.4925" style="fill: #323034; stroke: #323034; stroke-width: 0.8"/>
      </g>
     </g>
     <g id="text_31">
      <!-- $\mathdefault{2000}$ -->
      <g style="fill: #323034" transform="translate(478.56 414.42) scale(0.16 -0.16)">
       <use xlink:href="#STIXGeneral-Regular-32" transform="translate(0 0.40625)"/>
       <use xlink:href="#STIXGeneral-Regular-30" transform="translate(49.999985 0.40625)"/>
       <use xlink:href="#STIXGeneral-Regular-30" transform="translate(99.999969 0.40625)"/>
       <use xlink:href="#STIXGeneral-Regular-30" transform="translate(149.999954 0.40625)"/>
      </g>
     </g>
    </g>
    <g id="xtick_17">
     <g id="line2d_57">
      <g>
       <use xlink:href="#mc197ed9894" x="574.037024" y="396.4925" style="fill: #323034; stroke: #323034; stroke-width: 0.8"/>
      </g>
     </g>
     <g id="text_32">
      <!-- $\mathdefault{2010}$ -->
      <g style="fill: #323034" transform="translate(558.037024 414.42) scale(0.16 -0.16)">
       <use xlink:href="#STIXGeneral-Regular-32" transform="translate(0 0.40625)"/>
       <use xlink:href="#STIXGeneral-Regular-30" transform="translate(49.999985 0.40625)"/>
       <use xlink:href="#STIXGeneral-Regular-31" transform="translate(99.999969 0.40625)"/>
       <use xlink:href="#STIXGeneral-Regular-30" transform="translate(149.999954 0.40625)"/>
      </g>
     </g>
    </g>
    <g id="xtick_18">
     <g id="line2d_58">
      <g>
       <use xlink:href="#mc197ed9894" x="653.514048" y="396.4925" style="fill: #323034; stroke: #323034; stroke-width: 0.8"/>
      </g>
     </g>
     <g id="text_33">
      <!-- $\mathdefault{2020}$ -->
      <g style="fill: #323034" transform="translate(637.514048 414.42) scale(0.16 -0.16)">
       <use xlink:href="#STIXGeneral-Regular-32" transform="translate(0 0.40625)"/>
       <use xlink:href="#STIXGeneral-Regular-30" transform="translate(49.999985 0.40625)"/>
       <use xlink:href="#STIXGeneral-Regular-32" transform="translate(99.999969 0.40625)"/>
       <use xlink:href="#STIXGeneral-Regular-30" transform="translate(149.999954 0.40625)"/>
      </g>
     </g>
    </g>
   </g>
   <g id="matplotlib.axis_12">
    <g id="ytick_11">
     <g id="line2d_59">
      <g>
       <use xlink:href="#me24544a1e0" x="669.409453" y="362.6268" style="fill: #323034; stroke: #323034; stroke-width: 0.8"/>
      </g>
     </g>
     <g id="text_34">
      <!-- $\mathdefault{100}$ -->
      <g style="fill: #323034" transform="translate(676.409453 368.09055) scale(0.16 -0.16)">
       <use xlink:href="#STIXGeneral-Regular-31" transform="translate(0 0.40625)"/>
       <use xlink:href="#STIXGeneral-Regular-30" transform="translate(49.999985 0.40625)"/>
       <use xlink:href="#STIXGeneral-Regular-30" transform="translate(99.999969 0.40625)"/>
      </g>
     </g>
    </g>
    <g id="ytick_12">
     <g id="line2d_60">
      <g>
       <use xlink:href="#me24544a1e0" x="669.409453" y="292.28314" style="fill: #323034; stroke: #323034; stroke-width: 0.8"/>
      </g>
     </g>
     <g id="text_35">
      <!-- $\mathdefault{120}$ -->
      <g style="fill: #323034" transform="translate(676.409453 297.74689) scale(0.16 -0.16)">
       <use xlink:href="#STIXGeneral-Regular-31" transform="translate(0 0.40625)"/>
       <use xlink:href="#STIXGeneral-Regular-32" transform="translate(49.999985 0.40625)"/>
       <use xlink:href="#STIXGeneral-Regular-30" transform="translate(99.999969 0.40625)"/>
      </g>
     </g>
    </g>
   </g>
   <g id="line2d_61">
    <path d="M 494.56 362.6268 
L 502.507702 358.549234 
L 510.455405 357.355115 
L 518.403107 356.434557 
L 526.35081 348.856283 
L 534.298512 344.743241 
L 542.246214 337.346357 
L 550.193917 330.188781 
L 558.141619 330.874157 
L 566.089322 343.613539 
L 574.037024 338.057294 
L 581.984727 330.740998 
L 589.932429 331.890271 
L 597.880131 330.887687 
L 605.827834 328.896071 
L 613.775536 326.166974 
L 621.723239 323.86025 
L 629.670941 316.879179 
L 637.618643 311.783006 
L 645.566346 304.984906 
L 653.514048 336.671708 
L 661.461751 312.117076 
L 669.409453 303.1233 
" clip-path="url(#p1f9148d819)" style="fill: none; stroke: #000000; stroke-opacity: 0.1; stroke-linecap: square"/>
   </g>
   <g id="line2d_62">
    <path d="M 494.56 362.6268 
L 502.507702 357.471642 
L 510.455405 358.884554 
L 518.403107 360.96394 
L 526.35081 356.778731 
L 534.298512 353.406899 
L 542.246214 339.067009 
L 550.193917 327.704405 
L 558.141619 323.441847 
L 566.089322 344.18133 
L 574.037024 328.240445 
L 581.984727 306.235248 
L 589.932429 305.068665 
L 597.880131 304.607641 
L 605.827834 297.459918 
L 613.775536 294.222773 
L 621.723239 288.037343 
L 629.670941 278.092154 
L 637.618643 274.545342 
L 645.566346 271.201095 
L 653.514048 289.695503 
L 661.461751 274.297162 
L 669.409453 271.473774 
" clip-path="url(#p1f9148d819)" style="fill: none; stroke: #000000; stroke-opacity: 0.1; stroke-linecap: square"/>
   </g>
   <g id="line2d_63">
    <path d="M 494.56 362.6268 
L 502.507702 355.789397 
L 510.455405 355.532178 
L 518.403107 357.228528 
L 526.35081 354.652851 
L 534.298512 354.01972 
L 542.246214 349.000333 
L 550.193917 345.906329 
L 558.141619 352.47781 
L 566.089322 373.656302 
L 574.037024 369.973086 
L 581.984727 368.776424 
L 589.932429 380.490655 
L 597.880131 387.214385 
L 605.827834 387.268242 
L 613.775536 383.872317 
L 621.723239 379.150375 
L 629.670941 373.133638 
L 637.618643 371.150423 
L 645.566346 367.256385 
L 653.514048 396.4925 
L 661.461751 366.315062 
L 669.409453 348.79716 
" clip-path="url(#p1f9148d819)" style="fill: none; stroke: #000000; stroke-opacity: 0.1; stroke-linecap: square"/>
   </g>
   <g id="line2d_64">
    <path d="M 494.56 362.6268 
L 502.507702 362.118526 
L 510.455405 362.789137 
L 518.403107 358.155306 
L 526.35081 350.491087 
L 534.298512 343.96231 
L 542.246214 339.117232 
L 550.193917 333.986282 
L 558.141619 338.824865 
L 566.089322 360.159868 
L 574.037024 345.711862 
L 581.984727 344.94049 
L 589.932429 339.26353 
L 597.880131 331.190382 
L 605.827834 329.545188 
L 613.775536 323.124936 
L 621.723239 319.974194 
L 629.670941 313.038741 
L 637.618643 309.943993 
L 645.566346 311.004215 
L 653.514048 326.679732 
L 661.461751 314.390672 
L 669.409453 308.827196 
" clip-path="url(#p1f9148d819)" style="fill: none; stroke: #000000; stroke-opacity: 0.1; stroke-linecap: square"/>
   </g>
   <g id="line2d_65">
    <path d="M 494.56 362.6268 
L 502.507702 354.964057 
L 510.455405 350.056232 
L 518.403107 340.318268 
L 526.35081 333.29916 
L 534.298512 325.56506 
L 542.246214 319.224426 
L 550.193917 311.998151 
L 558.141619 316.145505 
L 566.089322 337.406471 
L 574.037024 331.997203 
L 581.984727 330.655009 
L 589.932429 327.629474 
L 597.880131 323.2959 
L 605.827834 313.807066 
L 613.775536 307.847546 
L 621.723239 303.313335 
L 629.670941 294.690596 
L 637.618643 290.867195 
L 645.566346 286.196816 
L 653.514048 330.933128 
L 661.461751 299.543462 
L 669.409453 283.459113 
" clip-path="url(#p1f9148d819)" style="fill: none; stroke: #000000; stroke-opacity: 0.1; stroke-linecap: square"/>
   </g>
   <g id="line2d_66">
    <path d="M 494.56 362.6268 
L 502.507702 362.763027 
L 510.455405 360.086655 
L 518.403107 353.299479 
L 526.35081 342.86125 
L 534.298512 333.447438 
L 542.246214 326.598141 
L 550.193917 322.571994 
L 558.141619 325.819355 
L 566.089322 339.133479 
L 574.037024 332.267393 
L 581.984727 329.352918 
L 589.932429 323.671565 
L 597.880131 318.404651 
L 605.827834 311.630326 
L 613.775536 303.062926 
L 621.723239 298.856884 
L 629.670941 291.585254 
L 637.618643 281.589341 
L 645.566346 272.688568 
L 653.514048 284.002958 
L 661.461751 258.662945 
L 669.409453 249.89625 
" clip-path="url(#p1f9148d819)" style="fill: none; stroke: #8dd3c7; stroke-width: 3; stroke-linecap: square"/>
   </g>
   <g id="patch_18">
    <path d="M 669.409453 396.4925 
L 669.409453 249.89625 
" style="fill: none; stroke: #000000; stroke-width: 0.6; stroke-linejoin: miter; stroke-linecap: square"/>
   </g>
   <g id="patch_19">
    <path d="M 494.56 396.4925 
L 669.409453 396.4925 
" style="fill: none; stroke: #000000; stroke-width: 0.6; stroke-linejoin: miter; stroke-linecap: square"/>
   </g>
   <g id="text_36">
    <!-- United States -->
    <g style="fill: #323034" transform="translate(547.137617 243.89625) scale(0.13 -0.13)">
     <defs>
      <path id="STIXGeneral-Regular-53" d="M 3002 2963 
L 2842 2963 
Q 2733 3360 2579 3565 
Q 2189 4064 1651 4064 
Q 1357 4064 1181 3894 
Q 1005 3725 1005 3456 
Q 1005 3328 1069 3206 
Q 1133 3085 1206 2998 
Q 1280 2912 1465 2784 
Q 1651 2656 1766 2589 
Q 1882 2522 2150 2362 
Q 2669 2061 2905 1763 
Q 3142 1466 3142 1107 
Q 3142 576 2771 243 
Q 2400 -90 1837 -90 
Q 1421 -90 1082 58 
Q 915 128 781 128 
Q 704 128 653 70 
Q 602 13 602 -83 
L 461 -83 
L 275 1274 
L 416 1274 
Q 845 141 1734 141 
Q 2074 141 2285 342 
Q 2496 544 2496 858 
Q 2496 1158 2310 1363 
Q 2003 1696 1235 2106 
Q 454 2522 454 3206 
Q 454 3718 768 4022 
Q 1082 4326 1568 4326 
Q 1907 4326 2240 4186 
Q 2413 4109 2522 4109 
Q 2688 4109 2726 4326 
L 2861 4326 
L 3002 2963 
z
" transform="scale(0.015625)"/>
      <path id="STIXGeneral-Regular-73" d="M 998 1926 
L 1664 1523 
Q 1984 1331 2105 1164 
Q 2227 998 2227 736 
Q 2227 416 1961 176 
Q 1696 -64 1331 -64 
Q 1030 -64 864 -6 
Q 691 51 570 51 
Q 461 51 416 -26 
L 333 -26 
L 333 979 
L 435 979 
Q 538 512 730 294 
Q 922 77 1248 77 
Q 1485 77 1632 211 
Q 1779 346 1779 550 
Q 1779 845 1440 1030 
L 1094 1222 
Q 326 1651 326 2150 
Q 326 2522 566 2730 
Q 806 2938 1210 2938 
Q 1491 2938 1638 2867 
Q 1754 2816 1818 2816 
Q 1862 2816 1920 2880 
L 1990 2880 
L 2022 2010 
L 1926 2010 
Q 1818 2445 1654 2621 
Q 1491 2797 1203 2797 
Q 986 2797 854 2688 
Q 723 2579 723 2362 
Q 723 2253 796 2128 
Q 870 2003 998 1926 
z
" transform="scale(0.015625)"/>
     </defs>
     <use xlink:href="#STIXGeneral-Regular-55"/>
     <use xlink:href="#STIXGeneral-Regular-6e" transform="translate(72.199982 0)"/>
     <use xlink:href="#STIXGeneral-Regular-69" transform="translate(122.199966 0)"/>
     <use xlink:href="#STIXGeneral-Regular-74" transform="translate(149.999954 0)"/>
     <use xlink:href="#STIXGeneral-Regular-65" transform="translate(177.799942 0)"/>
     <use xlink:href="#STIXGeneral-Regular-64" transform="translate(222.199936 0)"/>
     <use xlink:href="#STIXGeneral-Regular-20" transform="translate(272.199921 0)"/>
     <use xlink:href="#STIXGeneral-Regular-53" transform="translate(297.199905 0)"/>
     <use xlink:href="#STIXGeneral-Regular-74" transform="translate(352.799896 0)"/>
     <use xlink:href="#STIXGeneral-Regular-61" transform="translate(380.599884 0)"/>
     <use xlink:href="#STIXGeneral-Regular-74" transform="translate(424.999878 0)"/>
     <use xlink:href="#STIXGeneral-Regular-65" transform="translate(452.799866 0)"/>
     <use xlink:href="#STIXGeneral-Regular-73" transform="translate(497.19986 0)"/>
    </g>
   </g>
  </g>
  <g id="text_37">
   <!-- GDP per capita (indexed to 100 in 2000) -->
   <g style="fill: #323034" transform="translate(231.668125 17.444531) scale(0.15 -0.15)">
    <defs>
     <path id="STIXGeneral-Regular-44" d="M 102 4237 
L 1830 4237 
Q 3078 4237 3750 3654 
Q 4384 3110 4384 2138 
Q 4384 966 3514 410 
Q 2880 0 1901 0 
L 102 0 
L 102 122 
Q 474 147 570 252 
Q 666 358 666 736 
L 666 3520 
Q 666 3891 570 3990 
Q 474 4090 102 4115 
L 102 4237 
z
M 1318 3731 
L 1318 538 
Q 1318 365 1379 301 
Q 1440 237 1626 237 
Q 2125 237 2432 307 
Q 2739 378 3021 570 
Q 3686 1018 3686 2099 
Q 3686 3027 3078 3558 
Q 2803 3802 2476 3901 
Q 2150 4000 1658 4000 
Q 1472 4000 1395 3942 
Q 1318 3885 1318 3731 
z
" transform="scale(0.015625)"/>
     <path id="STIXGeneral-Regular-50" d="M 102 4237 
L 1760 4237 
Q 2669 4237 3149 3834 
Q 3469 3565 3469 3072 
Q 3469 2560 3104 2234 
Q 2835 1990 2553 1916 
Q 2272 1843 1734 1843 
Q 1549 1843 1293 1862 
L 1293 717 
Q 1293 352 1398 246 
Q 1504 141 1894 122 
L 1894 0 
L 102 0 
L 102 122 
Q 474 147 557 256 
Q 640 365 640 781 
L 640 3526 
Q 640 3885 547 3987 
Q 454 4090 102 4115 
L 102 4237 
z
M 1293 3770 
L 1293 2118 
Q 1510 2099 1683 2099 
Q 2202 2099 2486 2352 
Q 2771 2605 2771 3040 
Q 2771 3558 2476 3779 
Q 2182 4000 1517 4000 
Q 1382 4000 1337 3952 
Q 1293 3904 1293 3770 
z
" transform="scale(0.015625)"/>
     <path id="STIXGeneral-Regular-28" d="M 1946 -1030 
L 1869 -1133 
Q 1126 -710 716 32 
Q 307 774 307 1613 
Q 307 3386 1888 4326 
L 1946 4224 
Q 1293 3667 1075 3126 
Q 858 2586 858 1632 
Q 858 685 1082 96 
Q 1306 -493 1946 -1030 
z
" transform="scale(0.015625)"/>
     <path id="STIXGeneral-Regular-78" d="M 3066 0 
L 1779 0 
L 1779 96 
Q 1939 109 1987 137 
Q 2035 166 2035 250 
Q 2035 307 1997 365 
L 1414 1261 
L 909 474 
Q 781 275 781 211 
Q 781 96 1037 96 
L 1037 0 
L 109 0 
L 109 96 
Q 269 109 355 169 
Q 442 230 576 422 
L 1306 1478 
L 704 2400 
Q 557 2624 454 2704 
Q 352 2784 211 2784 
L 154 2784 
L 154 2880 
L 1478 2880 
L 1478 2784 
Q 1203 2778 1203 2643 
Q 1203 2509 1498 2074 
Q 1581 1958 1587 1946 
Q 1619 1990 1779 2227 
Q 1811 2285 1856 2349 
Q 1901 2413 1923 2451 
Q 1946 2490 1971 2528 
Q 1997 2566 2006 2595 
Q 2016 2624 2016 2643 
Q 2016 2765 1760 2784 
L 1760 2880 
L 2771 2880 
L 2771 2784 
Q 2445 2771 2253 2502 
L 1722 1734 
L 2541 480 
Q 2790 96 3066 96 
L 3066 0 
z
" transform="scale(0.015625)"/>
     <path id="STIXGeneral-Regular-29" d="M 186 4224 
L 262 4326 
Q 992 3891 1408 3148 
Q 1824 2406 1824 1581 
Q 1824 -166 243 -1133 
L 186 -1030 
Q 845 -486 1059 54 
Q 1274 595 1274 1562 
Q 1274 2534 1059 3120 
Q 845 3706 186 4224 
z
" transform="scale(0.015625)"/>
    </defs>
    <use xlink:href="#STIXGeneral-Regular-47"/>
    <use xlink:href="#STIXGeneral-Regular-44" transform="translate(72.199982 0)"/>
    <use xlink:href="#STIXGeneral-Regular-50" transform="translate(144.399963 0)"/>
    <use xlink:href="#STIXGeneral-Regular-20" transform="translate(200.09996 0)"/>
    <use xlink:href="#STIXGeneral-Regular-70" transform="translate(225.099945 0)"/>
    <use xlink:href="#STIXGeneral-Regular-65" transform="translate(275.09993 0)"/>
    <use xlink:href="#STIXGeneral-Regular-72" transform="translate(319.499924 0)"/>
    <use xlink:href="#STIXGeneral-Regular-20" transform="translate(352.799911 0)"/>
    <use xlink:href="#STIXGeneral-Regular-63" transform="translate(377.799896 0)"/>
    <use xlink:href="#STIXGeneral-Regular-61" transform="translate(422.19989 0)"/>
    <use xlink:href="#STIXGeneral-Regular-70" transform="translate(466.599884 0)"/>
    <use xlink:href="#STIXGeneral-Regular-69" transform="translate(516.599869 0)"/>
    <use xlink:href="#STIXGeneral-Regular-74" transform="translate(544.399857 0)"/>
    <use xlink:href="#STIXGeneral-Regular-61" transform="translate(572.199844 0)"/>
    <use xlink:href="#STIXGeneral-Regular-20" transform="translate(616.599838 0)"/>
    <use xlink:href="#STIXGeneral-Regular-28" transform="translate(641.599823 0)"/>
    <use xlink:href="#STIXGeneral-Regular-69" transform="translate(674.899811 0)"/>
    <use xlink:href="#STIXGeneral-Regular-6e" transform="translate(702.699799 0)"/>
    <use xlink:href="#STIXGeneral-Regular-64" transform="translate(752.699783 0)"/>
    <use xlink:href="#STIXGeneral-Regular-65" transform="translate(802.699768 0)"/>
    <use xlink:href="#STIXGeneral-Regular-78" transform="translate(847.099762 0)"/>
    <use xlink:href="#STIXGeneral-Regular-65" transform="translate(897.099747 0)"/>
    <use xlink:href="#STIXGeneral-Regular-64" transform="translate(941.499741 0)"/>
    <use xlink:href="#STIXGeneral-Regular-20" transform="translate(991.499725 0)"/>
    <use xlink:href="#STIXGeneral-Regular-74" transform="translate(1016.49971 0)"/>
    <use xlink:href="#STIXGeneral-Regular-6f" transform="translate(1044.299698 0)"/>
    <use xlink:href="#STIXGeneral-Regular-20" transform="translate(1094.299683 0)"/>
    <use xlink:href="#STIXGeneral-Regular-31" transform="translate(1119.299667 0)"/>
    <use xlink:href="#STIXGeneral-Regular-30" transform="translate(1169.299652 0)"/>
    <use xlink:href="#STIXGeneral-Regular-30" transform="translate(1219.299637 0)"/>
    <use xlink:href="#STIXGeneral-Regular-20" transform="translate(1269.299622 0)"/>
    <use xlink:href="#STIXGeneral-Regular-69" transform="translate(1294.299606 0)"/>
    <use xlink:href="#STIXGeneral-Regular-6e" transform="translate(1322.099594 0)"/>
    <use xlink:href="#STIXGeneral-Regular-20" transform="translate(1372.099579 0)"/>
    <use xlink:href="#STIXGeneral-Regular-32" transform="translate(1397.099564 0)"/>
    <use xlink:href="#STIXGeneral-Regular-30" transform="translate(1447.099548 0)"/>
    <use xlink:href="#STIXGeneral-Regular-30" transform="translate(1497.099533 0)"/>
    <use xlink:href="#STIXGeneral-Regular-30" transform="translate(1547.099518 0)"/>
    <use xlink:href="#STIXGeneral-Regular-29" transform="translate(1597.099503 0)"/>
   </g>
  </g>
 </g>
 <defs>
  <clipPath id="p20713e2d3a">
   <rect x="23.2" y="53.79" width="174.849453" height="146.59625"/>
  </clipPath>
  <clipPath id="p160334a06b">
   <rect x="258.88" y="53.79" width="174.849453" height="146.59625"/>
  </clipPath>
  <clipPath id="p64ab0ce5bb">
   <rect x="494.56" y="53.79" width="174.849453" height="146.59625"/>
  </clipPath>
  <clipPath id="p86a9518b1f">
   <rect x="23.2" y="249.89625" width="174.849453" height="146.59625"/>
  </clipPath>
  <clipPath id="pa20eede972">
   <rect x="258.88" y="249.89625" width="174.849453" height="146.59625"/>
  </clipPath>
  <clipPath id="p1f9148d819">
   <rect x="494.56" y="249.89625" width="174.849453" height="146.59625"/>
  </clipPath>
 </defs>
</svg>
