<?xml version="1.0" encoding="utf-8" standalone="no"?>
<!DOCTYPE svg PUBLIC "-//W3C//DTD SVG 1.1//EN"
  "http://www.w3.org/Graphics/SVG/1.1/DTD/svg11.dtd">
<svg xmlns:xlink="http://www.w3.org/1999/xlink" width="438.403125pt" height="321.95625pt" viewBox="0 0 438.403125 321.95625" xmlns="http://www.w3.org/2000/svg" version="1.1">
 <metadata>
  <rdf:RDF xmlns:dc="http://purl.org/dc/elements/1.1/" xmlns:cc="http://creativecommons.org/ns#" xmlns:rdf="http://www.w3.org/1999/02/22-rdf-syntax-ns#">
   <cc:Work>
    <dc:type rdf:resource="http://purl.org/dc/dcmitype/StillImage"/>
    <dc:date>2025-08-01T22:18:03.317743</dc:date>
    <dc:format>image/svg+xml</dc:format>
    <dc:creator>
     <cc:Agent>
      <dc:title>Matplotlib v3.10.0, https://matplotlib.org/</dc:title>
     </cc:Agent>
    </dc:creator>
   </cc:Work>
  </rdf:RDF>
 </metadata>
 <defs>
  <style type="text/css">*{stroke-linejoin: round; stroke-linecap: butt}</style>
 </defs>
 <g id="figure_1">
  <g id="patch_1">
   <path d="M 0 321.95625 
L 438.403125 321.95625 
L 438.403125 0 
L 0 0 
z
" style="fill: #ffffff"/>
  </g>
  <g id="axes_1">
   <g id="patch_2">
    <path d="M 40.603125 284.4 
L 431.203125 284.4 
L 431.203125 7.2 
L 40.603125 7.2 
z
" style="fill: #ffffff"/>
   </g>
   <g id="FillBetweenPolyCollection_1">
    <defs>
     <path id="m46fb46e923" d="M 139.702538 -55.510821 
L 136.803712 -55.510821 
L 136.192997 -57.24504 
L 135.377304 -58.97926 
L 134.309467 -60.713479 
L 132.939199 -62.447699 
L 131.215508 -64.181919 
L 129.089903 -65.916138 
L 126.520237 -67.650358 
L 123.475021 -69.384578 
L 119.937901 -71.118797 
L 115.911943 -72.853017 
L 111.423313 -74.587237 
L 106.523928 -76.321456 
L 101.292675 -78.055676 
L 95.834842 -79.789896 
L 90.279516 -81.524115 
L 84.774844 -83.258335 
L 79.481232 -84.992554 
L 74.562775 -86.726774 
L 70.17747 -88.460994 
L 66.466952 -90.195213 
L 63.546695 -91.929433 
L 61.497702 -93.663653 
L 60.360629 -95.397872 
L 60.133125 -97.132092 
L 60.770791 -98.866312 
L 62.191763 -100.600531 
L 64.284423 -102.334751 
L 66.917319 -104.068971 
L 69.950118 -105.80319 
L 73.244276 -107.53741 
L 76.672217 -109.27163 
L 80.124131 -111.005849 
L 83.511878 -112.740069 
L 86.769993 -114.474288 
L 89.85419 -116.208508 
L 92.738098 -117.942728 
L 95.409113 -119.676947 
L 97.864234 -121.411167 
L 100.106585 -123.145387 
L 102.143047 -124.879606 
L 103.9831 -126.613826 
L 105.638687 -128.348046 
L 107.12467 -130.082265 
L 108.459369 -131.816485 
L 109.664686 -133.550705 
L 110.765464 -135.284924 
L 111.787968 -137.019144 
L 112.757625 -138.753364 
L 113.696401 -140.487583 
L 114.620337 -142.221803 
L 115.537791 -143.956022 
L 116.448847 -145.690242 
L 117.346118 -147.424462 
L 118.216894 -149.158681 
L 119.046308 -150.892901 
L 119.820951 -152.627121 
L 120.532252 -154.36134 
L 121.178978 -156.09556 
L 121.768359 -157.82978 
L 122.315621 -159.563999 
L 122.842015 -161.298219 
L 123.371724 -163.032439 
L 123.928228 -164.766658 
L 124.530791 -166.500878 
L 125.191674 -168.235098 
L 125.914509 -169.969317 
L 126.694024 -171.703537 
L 127.517057 -173.437756 
L 128.364563 -175.171976 
L 129.214212 -176.906196 
L 130.043097 -178.640415 
L 130.830168 -180.374635 
L 131.558089 -182.108855 
L 132.214391 -183.843074 
L 132.791925 -185.577294 
L 133.288728 -187.311514 
L 133.707464 -189.045733 
L 134.054615 -190.779953 
L 134.339556 -192.514173 
L 134.573622 -194.248392 
L 134.769191 -195.982612 
L 134.938823 -197.716832 
L 135.094449 -199.451051 
L 135.246632 -201.185271 
L 135.403948 -202.91949 
L 135.572502 -204.65371 
L 135.755677 -206.38793 
L 135.954105 -208.122149 
L 136.165903 -209.856369 
L 136.387138 -211.590589 
L 136.612455 -213.324808 
L 136.835801 -215.059028 
L 137.051128 -216.793248 
L 137.25302 -218.527467 
L 137.437154 -220.261687 
L 137.600571 -221.995907 
L 137.741757 -223.730126 
L 137.860556 -225.464346 
L 137.957951 -227.198566 
L 138.548299 -227.198566 
L 138.548299 -227.198566 
L 138.645694 -225.464346 
L 138.764493 -223.730126 
L 138.905679 -221.995907 
L 139.069096 -220.261687 
L 139.25323 -218.527467 
L 139.455122 -216.793248 
L 139.670449 -215.059028 
L 139.893795 -213.324808 
L 140.119112 -211.590589 
L 140.340347 -209.856369 
L 140.552145 -208.122149 
L 140.750573 -206.38793 
L 140.933748 -204.65371 
L 141.102302 -202.91949 
L 141.259618 -201.185271 
L 141.411801 -199.451051 
L 141.567427 -197.716832 
L 141.737059 -195.982612 
L 141.932628 -194.248392 
L 142.166694 -192.514173 
L 142.451635 -190.779953 
L 142.798786 -189.045733 
L 143.217522 -187.311514 
L 143.714325 -185.577294 
L 144.291859 -183.843074 
L 144.948161 -182.108855 
L 145.676082 -180.374635 
L 146.463153 -178.640415 
L 147.292038 -176.906196 
L 148.141687 -175.171976 
L 148.989193 -173.437756 
L 149.812226 -171.703537 
L 150.591741 -169.969317 
L 151.314576 -168.235098 
L 151.975459 -166.500878 
L 152.578022 -164.766658 
L 153.134526 -163.032439 
L 153.664235 -161.298219 
L 154.190629 -159.563999 
L 154.737891 -157.82978 
L 155.327272 -156.09556 
L 155.973998 -154.36134 
L 156.685299 -152.627121 
L 157.459942 -150.892901 
L 158.289356 -149.158681 
L 159.160132 -147.424462 
L 160.057403 -145.690242 
L 160.968459 -143.956022 
L 161.885913 -142.221803 
L 162.809849 -140.487583 
L 163.748625 -138.753364 
L 164.718282 -137.019144 
L 165.740786 -135.284924 
L 166.841564 -133.550705 
L 168.046881 -131.816485 
L 169.38158 -130.082265 
L 170.867563 -128.348046 
L 172.52315 -126.613826 
L 174.363203 -124.879606 
L 176.399665 -123.145387 
L 178.642016 -121.411167 
L 181.097137 -119.676947 
L 183.768152 -117.942728 
L 186.65206 -116.208508 
L 189.736257 -114.474288 
L 192.994372 -112.740069 
L 196.382119 -111.005849 
L 199.834033 -109.27163 
L 203.261974 -107.53741 
L 206.556132 -105.80319 
L 209.588931 -104.068971 
L 212.221827 -102.334751 
L 214.314487 -100.600531 
L 215.735459 -98.866312 
L 216.373125 -97.132092 
L 216.145621 -95.397872 
L 215.008548 -93.663653 
L 212.959555 -91.929433 
L 210.039298 -90.195213 
L 206.32878 -88.460994 
L 201.943475 -86.726774 
L 197.025018 -84.992554 
L 191.731406 -83.258335 
L 186.226734 -81.524115 
L 180.671408 -79.789896 
L 175.213575 -78.055676 
L 169.982322 -76.321456 
L 165.082937 -74.587237 
L 160.594307 -72.853017 
L 156.568349 -71.118797 
L 153.031229 -69.384578 
L 149.986013 -67.650358 
L 147.416347 -65.916138 
L 145.290742 -64.181919 
L 143.567051 -62.447699 
L 142.196783 -60.713479 
L 141.128946 -58.97926 
L 140.313253 -57.24504 
L 139.702538 -55.510821 
z
" style="stroke: #3f3f3f; stroke-width: 1.25"/>
    </defs>
    <g clip-path="url(#p2c91c65ce3)">
     <use xlink:href="#m46fb46e923" x="0" y="321.95625" style="fill: #3274a1; stroke: #3f3f3f; stroke-width: 1.25"/>
    </g>
   </g>
   <g id="FillBetweenPolyCollection_2">
    <defs>
     <path id="mc3b7ada06c" d="M 334.492261 -50.15625 
L 332.613989 -50.15625 
L 332.047254 -52.701705 
L 331.230489 -55.247159 
L 330.102117 -57.792614 
L 328.60541 -60.338068 
L 326.695678 -62.883523 
L 324.346593 -65.428977 
L 321.554489 -67.974432 
L 318.340203 -70.519886 
L 314.748987 -73.065341 
L 310.849605 -75.610795 
L 306.73362 -78.15625 
L 302.51478 -80.701705 
L 298.326966 -83.247159 
L 294.318009 -85.792614 
L 290.636941 -88.338068 
L 287.414337 -90.883523 
L 284.738814 -93.428977 
L 282.636243 -95.974432 
L 281.059856 -98.519886 
L 279.897837 -101.065341 
L 279.000064 -103.610795 
L 278.218932 -106.15625 
L 277.453206 -108.701705 
L 276.681357 -111.247159 
L 275.973178 -113.792614 
L 275.475157 -116.338068 
L 275.373632 -118.883523 
L 275.846923 -121.428977 
L 277.020684 -123.974432 
L 278.938668 -126.519886 
L 281.5551 -129.065341 
L 284.747436 -131.610795 
L 288.342465 -134.15625 
L 292.146371 -136.701705 
L 295.970793 -139.247159 
L 299.650743 -141.792614 
L 303.054502 -144.338068 
L 306.088245 -146.883523 
L 308.6985 -149.428977 
L 310.87385 -151.974432 
L 312.644987 -154.519886 
L 314.080695 -157.065341 
L 315.277708 -159.610795 
L 316.344407 -162.15625 
L 317.381125 -164.701705 
L 318.461877 -167.247159 
L 319.62254 -169.792614 
L 320.858682 -172.338068 
L 322.133092 -174.883523 
L 323.390042 -177.428977 
L 324.571592 -179.974432 
L 325.631407 -182.519886 
L 326.543132 -185.065341 
L 327.302572 -187.610795 
L 327.924717 -190.15625 
L 328.437507 -192.701705 
L 328.874376 -195.247159 
L 329.267142 -197.792614 
L 329.64043 -200.338068 
L 330.008401 -202.883523 
L 330.374194 -205.428977 
L 330.731998 -207.974432 
L 331.071064 -210.519886 
L 331.380424 -213.065341 
L 331.652851 -215.610795 
L 331.886913 -218.15625 
L 332.086642 -220.701705 
L 332.259237 -223.247159 
L 332.411837 -225.792614 
L 332.548672 -228.338068 
L 332.669584 -230.883523 
L 332.770351 -233.428977 
L 332.844555 -235.974432 
L 332.886279 -238.519886 
L 332.892706 -241.065341 
L 332.865797 -243.610795 
L 332.81256 -246.15625 
L 332.743832 -248.701705 
L 332.671925 -251.247159 
L 332.607828 -253.792614 
L 332.55882 -256.338068 
L 332.527247 -258.883523 
L 332.510864 -261.428977 
L 332.504647 -263.974432 
L 332.503405 -266.519886 
L 332.504264 -269.065341 
L 332.508104 -271.610795 
L 332.519429 -274.15625 
L 332.544767 -276.701705 
L 332.590234 -279.247159 
L 332.659176 -281.792614 
L 332.750749 -284.338068 
L 332.859841 -286.883523 
L 332.978259 -289.428977 
L 333.096662 -291.974432 
L 333.206558 -294.519886 
L 333.301773 -297.065341 
L 333.379103 -299.610795 
L 333.438161 -302.15625 
L 333.668089 -302.15625 
L 333.668089 -302.15625 
L 333.727147 -299.610795 
L 333.804477 -297.065341 
L 333.899692 -294.519886 
L 334.009588 -291.974432 
L 334.127991 -289.428977 
L 334.246409 -286.883523 
L 334.355501 -284.338068 
L 334.447074 -281.792614 
L 334.516016 -279.247159 
L 334.561483 -276.701705 
L 334.586821 -274.15625 
L 334.598146 -271.610795 
L 334.601986 -269.065341 
L 334.602845 -266.519886 
L 334.601603 -263.974432 
L 334.595386 -261.428977 
L 334.579003 -258.883523 
L 334.54743 -256.338068 
L 334.498422 -253.792614 
L 334.434325 -251.247159 
L 334.362418 -248.701705 
L 334.29369 -246.15625 
L 334.240453 -243.610795 
L 334.213544 -241.065341 
L 334.219971 -238.519886 
L 334.261695 -235.974432 
L 334.335899 -233.428977 
L 334.436666 -230.883523 
L 334.557578 -228.338068 
L 334.694413 -225.792614 
L 334.847013 -223.247159 
L 335.019608 -220.701705 
L 335.219337 -218.15625 
L 335.453399 -215.610795 
L 335.725826 -213.065341 
L 336.035186 -210.519886 
L 336.374252 -207.974432 
L 336.732056 -205.428977 
L 337.097849 -202.883523 
L 337.46582 -200.338068 
L 337.839108 -197.792614 
L 338.231874 -195.247159 
L 338.668743 -192.701705 
L 339.181533 -190.15625 
L 339.803678 -187.610795 
L 340.563118 -185.065341 
L 341.474843 -182.519886 
L 342.534658 -179.974432 
L 343.716208 -177.428977 
L 344.973158 -174.883523 
L 346.247568 -172.338068 
L 347.48371 -169.792614 
L 348.644373 -167.247159 
L 349.725125 -164.701705 
L 350.761843 -162.15625 
L 351.828542 -159.610795 
L 353.025555 -157.065341 
L 354.461263 -154.519886 
L 356.2324 -151.974432 
L 358.40775 -149.428977 
L 361.018005 -146.883523 
L 364.051748 -144.338068 
L 367.455507 -141.792614 
L 371.135457 -139.247159 
L 374.959879 -136.701705 
L 378.763785 -134.15625 
L 382.358814 -131.610795 
L 385.55115 -129.065341 
L 388.167582 -126.519886 
L 390.085566 -123.974432 
L 391.259327 -121.428977 
L 391.732618 -118.883523 
L 391.631093 -116.338068 
L 391.133072 -113.792614 
L 390.424893 -111.247159 
L 389.653044 -108.701705 
L 388.887318 -106.15625 
L 388.106186 -103.610795 
L 387.208413 -101.065341 
L 386.046394 -98.519886 
L 384.470007 -95.974432 
L 382.367436 -93.428977 
L 379.691913 -90.883523 
L 376.469309 -88.338068 
L 372.788241 -85.792614 
L 368.779284 -83.247159 
L 364.59147 -80.701705 
L 360.37263 -78.15625 
L 356.256645 -75.610795 
L 352.357263 -73.065341 
L 348.766047 -70.519886 
L 345.551761 -67.974432 
L 342.759657 -65.428977 
L 340.410572 -62.883523 
L 338.50084 -60.338068 
L 337.004133 -57.792614 
L 335.875761 -55.247159 
L 335.058996 -52.701705 
L 334.492261 -50.15625 
z
" style="stroke: #3f3f3f; stroke-width: 1.25"/>
    </defs>
    <g clip-path="url(#p2c91c65ce3)">
     <use xlink:href="#mc3b7ada06c" x="0" y="321.95625" style="fill: #3274a1; stroke: #3f3f3f; stroke-width: 1.25"/>
    </g>
   </g>
   <g id="matplotlib.axis_1">
    <g id="xtick_1">
     <g id="line2d_1">
      <defs>
       <path id="ma698881b02" d="M 0 0 
L 0 3.5 
" style="stroke: #000000; stroke-width: 0.8"/>
      </defs>
      <g>
       <use xlink:href="#ma698881b02" x="138.253125" y="284.4" style="stroke: #000000; stroke-width: 0.8"/>
      </g>
     </g>
     <g id="text_1">
      <!-- Lunch -->
      <g transform="translate(123.299219 298.998438) scale(0.1 -0.1)">
       <defs>
        <path id="DejaVuSans-4c" d="M 628 4666 
L 1259 4666 
L 1259 531 
L 3531 531 
L 3531 0 
L 628 0 
L 628 4666 
z
" transform="scale(0.015625)"/>
        <path id="DejaVuSans-75" d="M 544 1381 
L 544 3500 
L 1119 3500 
L 1119 1403 
Q 1119 906 1312 657 
Q 1506 409 1894 409 
Q 2359 409 2629 706 
Q 2900 1003 2900 1516 
L 2900 3500 
L 3475 3500 
L 3475 0 
L 2900 0 
L 2900 538 
Q 2691 219 2414 64 
Q 2138 -91 1772 -91 
Q 1169 -91 856 284 
Q 544 659 544 1381 
z
M 1991 3584 
L 1991 3584 
z
" transform="scale(0.015625)"/>
        <path id="DejaVuSans-6e" d="M 3513 2113 
L 3513 0 
L 2938 0 
L 2938 2094 
Q 2938 2591 2744 2837 
Q 2550 3084 2163 3084 
Q 1697 3084 1428 2787 
Q 1159 2491 1159 1978 
L 1159 0 
L 581 0 
L 581 3500 
L 1159 3500 
L 1159 2956 
Q 1366 3272 1645 3428 
Q 1925 3584 2291 3584 
Q 2894 3584 3203 3211 
Q 3513 2838 3513 2113 
z
" transform="scale(0.015625)"/>
        <path id="DejaVuSans-63" d="M 3122 3366 
L 3122 2828 
Q 2878 2963 2633 3030 
Q 2388 3097 2138 3097 
Q 1578 3097 1268 2742 
Q 959 2388 959 1747 
Q 959 1106 1268 751 
Q 1578 397 2138 397 
Q 2388 397 2633 464 
Q 2878 531 3122 666 
L 3122 134 
Q 2881 22 2623 -34 
Q 2366 -91 2075 -91 
Q 1284 -91 818 406 
Q 353 903 353 1747 
Q 353 2603 823 3093 
Q 1294 3584 2113 3584 
Q 2378 3584 2631 3529 
Q 2884 3475 3122 3366 
z
" transform="scale(0.015625)"/>
        <path id="DejaVuSans-68" d="M 3513 2113 
L 3513 0 
L 2938 0 
L 2938 2094 
Q 2938 2591 2744 2837 
Q 2550 3084 2163 3084 
Q 1697 3084 1428 2787 
Q 1159 2491 1159 1978 
L 1159 0 
L 581 0 
L 581 4863 
L 1159 4863 
L 1159 2956 
Q 1366 3272 1645 3428 
Q 1925 3584 2291 3584 
Q 2894 3584 3203 3211 
Q 3513 2838 3513 2113 
z
" transform="scale(0.015625)"/>
       </defs>
       <use xlink:href="#DejaVuSans-4c"/>
       <use xlink:href="#DejaVuSans-75" transform="translate(53.962891 0)"/>
       <use xlink:href="#DejaVuSans-6e" transform="translate(117.341797 0)"/>
       <use xlink:href="#DejaVuSans-63" transform="translate(180.720703 0)"/>
       <use xlink:href="#DejaVuSans-68" transform="translate(235.701172 0)"/>
      </g>
     </g>
    </g>
    <g id="xtick_2">
     <g id="line2d_2">
      <g>
       <use xlink:href="#ma698881b02" x="333.553125" y="284.4" style="stroke: #000000; stroke-width: 0.8"/>
      </g>
     </g>
     <g id="text_2">
      <!-- Dinner -->
      <g transform="translate(316.844531 298.998438) scale(0.1 -0.1)">
       <defs>
        <path id="DejaVuSans-44" d="M 1259 4147 
L 1259 519 
L 2022 519 
Q 2988 519 3436 956 
Q 3884 1394 3884 2338 
Q 3884 3275 3436 3711 
Q 2988 4147 2022 4147 
L 1259 4147 
z
M 628 4666 
L 1925 4666 
Q 3281 4666 3915 4102 
Q 4550 3538 4550 2338 
Q 4550 1131 3912 565 
Q 3275 0 1925 0 
L 628 0 
L 628 4666 
z
" transform="scale(0.015625)"/>
        <path id="DejaVuSans-69" d="M 603 3500 
L 1178 3500 
L 1178 0 
L 603 0 
L 603 3500 
z
M 603 4863 
L 1178 4863 
L 1178 4134 
L 603 4134 
L 603 4863 
z
" transform="scale(0.015625)"/>
        <path id="DejaVuSans-65" d="M 3597 1894 
L 3597 1613 
L 953 1613 
Q 991 1019 1311 708 
Q 1631 397 2203 397 
Q 2534 397 2845 478 
Q 3156 559 3463 722 
L 3463 178 
Q 3153 47 2828 -22 
Q 2503 -91 2169 -91 
Q 1331 -91 842 396 
Q 353 884 353 1716 
Q 353 2575 817 3079 
Q 1281 3584 2069 3584 
Q 2775 3584 3186 3129 
Q 3597 2675 3597 1894 
z
M 3022 2063 
Q 3016 2534 2758 2815 
Q 2500 3097 2075 3097 
Q 1594 3097 1305 2825 
Q 1016 2553 972 2059 
L 3022 2063 
z
" transform="scale(0.015625)"/>
        <path id="DejaVuSans-72" d="M 2631 2963 
Q 2534 3019 2420 3045 
Q 2306 3072 2169 3072 
Q 1681 3072 1420 2755 
Q 1159 2438 1159 1844 
L 1159 0 
L 581 0 
L 581 3500 
L 1159 3500 
L 1159 2956 
Q 1341 3275 1631 3429 
Q 1922 3584 2338 3584 
Q 2397 3584 2469 3576 
Q 2541 3569 2628 3553 
L 2631 2963 
z
" transform="scale(0.015625)"/>
       </defs>
       <use xlink:href="#DejaVuSans-44"/>
       <use xlink:href="#DejaVuSans-69" transform="translate(77.001953 0)"/>
       <use xlink:href="#DejaVuSans-6e" transform="translate(104.785156 0)"/>
       <use xlink:href="#DejaVuSans-6e" transform="translate(168.164062 0)"/>
       <use xlink:href="#DejaVuSans-65" transform="translate(231.542969 0)"/>
       <use xlink:href="#DejaVuSans-72" transform="translate(293.066406 0)"/>
      </g>
     </g>
    </g>
    <g id="text_3">
     <!-- time -->
     <g transform="translate(224.607031 312.676562) scale(0.1 -0.1)">
      <defs>
       <path id="DejaVuSans-74" d="M 1172 4494 
L 1172 3500 
L 2356 3500 
L 2356 3053 
L 1172 3053 
L 1172 1153 
Q 1172 725 1289 603 
Q 1406 481 1766 481 
L 2356 481 
L 2356 0 
L 1766 0 
Q 1100 0 847 248 
Q 594 497 594 1153 
L 594 3053 
L 172 3053 
L 172 3500 
L 594 3500 
L 594 4494 
L 1172 4494 
z
" transform="scale(0.015625)"/>
       <path id="DejaVuSans-6d" d="M 3328 2828 
Q 3544 3216 3844 3400 
Q 4144 3584 4550 3584 
Q 5097 3584 5394 3201 
Q 5691 2819 5691 2113 
L 5691 0 
L 5113 0 
L 5113 2094 
Q 5113 2597 4934 2840 
Q 4756 3084 4391 3084 
Q 3944 3084 3684 2787 
Q 3425 2491 3425 1978 
L 3425 0 
L 2847 0 
L 2847 2094 
Q 2847 2600 2669 2842 
Q 2491 3084 2119 3084 
Q 1678 3084 1418 2786 
Q 1159 2488 1159 1978 
L 1159 0 
L 581 0 
L 581 3500 
L 1159 3500 
L 1159 2956 
Q 1356 3278 1631 3431 
Q 1906 3584 2284 3584 
Q 2666 3584 2933 3390 
Q 3200 3197 3328 2828 
z
" transform="scale(0.015625)"/>
      </defs>
      <use xlink:href="#DejaVuSans-74"/>
      <use xlink:href="#DejaVuSans-69" transform="translate(39.208984 0)"/>
      <use xlink:href="#DejaVuSans-6d" transform="translate(66.992188 0)"/>
      <use xlink:href="#DejaVuSans-65" transform="translate(164.404297 0)"/>
     </g>
    </g>
   </g>
   <g id="matplotlib.axis_2">
    <g id="ytick_1">
     <g id="line2d_3">
      <defs>
       <path id="mf55ab077c0" d="M 0 0 
L -3.5 0 
" style="stroke: #000000; stroke-width: 0.8"/>
      </defs>
      <g>
       <use xlink:href="#mf55ab077c0" x="40.603125" y="271.313812" style="stroke: #000000; stroke-width: 0.8"/>
      </g>
     </g>
     <g id="text_4">
      <!-- 0 -->
      <g transform="translate(27.240625 275.113031) scale(0.1 -0.1)">
       <defs>
        <path id="DejaVuSans-30" d="M 2034 4250 
Q 1547 4250 1301 3770 
Q 1056 3291 1056 2328 
Q 1056 1369 1301 889 
Q 1547 409 2034 409 
Q 2525 409 2770 889 
Q 3016 1369 3016 2328 
Q 3016 3291 2770 3770 
Q 2525 4250 2034 4250 
z
M 2034 4750 
Q 2819 4750 3233 4129 
Q 3647 3509 3647 2328 
Q 3647 1150 3233 529 
Q 2819 -91 2034 -91 
Q 1250 -91 836 529 
Q 422 1150 422 2328 
Q 422 3509 836 4129 
Q 1250 4750 2034 4750 
z
" transform="scale(0.015625)"/>
       </defs>
       <use xlink:href="#DejaVuSans-30"/>
      </g>
     </g>
    </g>
    <g id="ytick_2">
     <g id="line2d_4">
      <g>
       <use xlink:href="#mf55ab077c0" x="40.603125" y="225.672426" style="stroke: #000000; stroke-width: 0.8"/>
      </g>
     </g>
     <g id="text_5">
      <!-- 2 -->
      <g transform="translate(27.240625 229.471645) scale(0.1 -0.1)">
       <defs>
        <path id="DejaVuSans-32" d="M 1228 531 
L 3431 531 
L 3431 0 
L 469 0 
L 469 531 
Q 828 903 1448 1529 
Q 2069 2156 2228 2338 
Q 2531 2678 2651 2914 
Q 2772 3150 2772 3378 
Q 2772 3750 2511 3984 
Q 2250 4219 1831 4219 
Q 1534 4219 1204 4116 
Q 875 4013 500 3803 
L 500 4441 
Q 881 4594 1212 4672 
Q 1544 4750 1819 4750 
Q 2544 4750 2975 4387 
Q 3406 4025 3406 3419 
Q 3406 3131 3298 2873 
Q 3191 2616 2906 2266 
Q 2828 2175 2409 1742 
Q 1991 1309 1228 531 
z
" transform="scale(0.015625)"/>
       </defs>
       <use xlink:href="#DejaVuSans-32"/>
      </g>
     </g>
    </g>
    <g id="ytick_3">
     <g id="line2d_5">
      <g>
       <use xlink:href="#mf55ab077c0" x="40.603125" y="180.03104" style="stroke: #000000; stroke-width: 0.8"/>
      </g>
     </g>
     <g id="text_6">
      <!-- 4 -->
      <g transform="translate(27.240625 183.830258) scale(0.1 -0.1)">
       <defs>
        <path id="DejaVuSans-34" d="M 2419 4116 
L 825 1625 
L 2419 1625 
L 2419 4116 
z
M 2253 4666 
L 3047 4666 
L 3047 1625 
L 3713 1625 
L 3713 1100 
L 3047 1100 
L 3047 0 
L 2419 0 
L 2419 1100 
L 313 1100 
L 313 1709 
L 2253 4666 
z
" transform="scale(0.015625)"/>
       </defs>
       <use xlink:href="#DejaVuSans-34"/>
      </g>
     </g>
    </g>
    <g id="ytick_4">
     <g id="line2d_6">
      <g>
       <use xlink:href="#mf55ab077c0" x="40.603125" y="134.389653" style="stroke: #000000; stroke-width: 0.8"/>
      </g>
     </g>
     <g id="text_7">
      <!-- 6 -->
      <g transform="translate(27.240625 138.188872) scale(0.1 -0.1)">
       <defs>
        <path id="DejaVuSans-36" d="M 2113 2584 
Q 1688 2584 1439 2293 
Q 1191 2003 1191 1497 
Q 1191 994 1439 701 
Q 1688 409 2113 409 
Q 2538 409 2786 701 
Q 3034 994 3034 1497 
Q 3034 2003 2786 2293 
Q 2538 2584 2113 2584 
z
M 3366 4563 
L 3366 3988 
Q 3128 4100 2886 4159 
Q 2644 4219 2406 4219 
Q 1781 4219 1451 3797 
Q 1122 3375 1075 2522 
Q 1259 2794 1537 2939 
Q 1816 3084 2150 3084 
Q 2853 3084 3261 2657 
Q 3669 2231 3669 1497 
Q 3669 778 3244 343 
Q 2819 -91 2113 -91 
Q 1303 -91 875 529 
Q 447 1150 447 2328 
Q 447 3434 972 4092 
Q 1497 4750 2381 4750 
Q 2619 4750 2861 4703 
Q 3103 4656 3366 4563 
z
" transform="scale(0.015625)"/>
       </defs>
       <use xlink:href="#DejaVuSans-36"/>
      </g>
     </g>
    </g>
    <g id="ytick_5">
     <g id="line2d_7">
      <g>
       <use xlink:href="#mf55ab077c0" x="40.603125" y="88.748267" style="stroke: #000000; stroke-width: 0.8"/>
      </g>
     </g>
     <g id="text_8">
      <!-- 8 -->
      <g transform="translate(27.240625 92.547486) scale(0.1 -0.1)">
       <defs>
        <path id="DejaVuSans-38" d="M 2034 2216 
Q 1584 2216 1326 1975 
Q 1069 1734 1069 1313 
Q 1069 891 1326 650 
Q 1584 409 2034 409 
Q 2484 409 2743 651 
Q 3003 894 3003 1313 
Q 3003 1734 2745 1975 
Q 2488 2216 2034 2216 
z
M 1403 2484 
Q 997 2584 770 2862 
Q 544 3141 544 3541 
Q 544 4100 942 4425 
Q 1341 4750 2034 4750 
Q 2731 4750 3128 4425 
Q 3525 4100 3525 3541 
Q 3525 3141 3298 2862 
Q 3072 2584 2669 2484 
Q 3125 2378 3379 2068 
Q 3634 1759 3634 1313 
Q 3634 634 3220 271 
Q 2806 -91 2034 -91 
Q 1263 -91 848 271 
Q 434 634 434 1313 
Q 434 1759 690 2068 
Q 947 2378 1403 2484 
z
M 1172 3481 
Q 1172 3119 1398 2916 
Q 1625 2713 2034 2713 
Q 2441 2713 2670 2916 
Q 2900 3119 2900 3481 
Q 2900 3844 2670 4047 
Q 2441 4250 2034 4250 
Q 1625 4250 1398 4047 
Q 1172 3844 1172 3481 
z
" transform="scale(0.015625)"/>
       </defs>
       <use xlink:href="#DejaVuSans-38"/>
      </g>
     </g>
    </g>
    <g id="ytick_6">
     <g id="line2d_8">
      <g>
       <use xlink:href="#mf55ab077c0" x="40.603125" y="43.106881" style="stroke: #000000; stroke-width: 0.8"/>
      </g>
     </g>
     <g id="text_9">
      <!-- 10 -->
      <g transform="translate(20.878125 46.9061) scale(0.1 -0.1)">
       <defs>
        <path id="DejaVuSans-31" d="M 794 531 
L 1825 531 
L 1825 4091 
L 703 3866 
L 703 4441 
L 1819 4666 
L 2450 4666 
L 2450 531 
L 3481 531 
L 3481 0 
L 794 0 
L 794 531 
z
" transform="scale(0.015625)"/>
       </defs>
       <use xlink:href="#DejaVuSans-31"/>
       <use xlink:href="#DejaVuSans-30" transform="translate(63.623047 0)"/>
      </g>
     </g>
    </g>
    <g id="text_10">
     <!-- tip -->
     <g transform="translate(14.798438 152.323437) rotate(-90) scale(0.1 -0.1)">
      <defs>
       <path id="DejaVuSans-70" d="M 1159 525 
L 1159 -1331 
L 581 -1331 
L 581 3500 
L 1159 3500 
L 1159 2969 
Q 1341 3281 1617 3432 
Q 1894 3584 2278 3584 
Q 2916 3584 3314 3078 
Q 3713 2572 3713 1747 
Q 3713 922 3314 415 
Q 2916 -91 2278 -91 
Q 1894 -91 1617 61 
Q 1341 213 1159 525 
z
M 3116 1747 
Q 3116 2381 2855 2742 
Q 2594 3103 2138 3103 
Q 1681 3103 1420 2742 
Q 1159 2381 1159 1747 
Q 1159 1113 1420 752 
Q 1681 391 2138 391 
Q 2594 391 2855 752 
Q 3116 1113 3116 1747 
z
" transform="scale(0.015625)"/>
      </defs>
      <use xlink:href="#DejaVuSans-74"/>
      <use xlink:href="#DejaVuSans-69" transform="translate(39.208984 0)"/>
      <use xlink:href="#DejaVuSans-70" transform="translate(66.992188 0)"/>
     </g>
    </g>
   </g>
   <g id="line2d_9">
    <path d="M 138.253125 242.787946 
L 138.253125 153.330829 
" clip-path="url(#p2c91c65ce3)" style="fill: none; stroke: #3f3f3f; stroke-width: 1.875; stroke-linecap: square"/>
   </g>
   <g id="line2d_10">
    <path d="M 138.253125 225.672426 
L 138.253125 196.290783 
" clip-path="url(#p2c91c65ce3)" style="fill: none; stroke: #3f3f3f; stroke-width: 5.625; stroke-linecap: square"/>
   </g>
   <g id="line2d_11">
    <path d="M 138.253125 219.967253 
" clip-path="url(#p2c91c65ce3)" style="fill: none; stroke: #3f3f3f; stroke-width: 1.5; stroke-linecap: square"/>
    <defs>
     <path id="m67cc215f0d" d="M 2.34375 0 
L -2.34375 -0 
" style="stroke: #ffffff; stroke-width: 1.125"/>
    </defs>
    <g clip-path="url(#p2c91c65ce3)">
     <use xlink:href="#m67cc215f0d" x="138.253125" y="219.967253" style="fill: #ffffff; stroke: #ffffff; stroke-width: 1.125"/>
    </g>
   </g>
   <g id="line2d_12">
    <path d="M 333.553125 248.493119 
L 333.553125 134.389653 
" clip-path="url(#p2c91c65ce3)" style="fill: none; stroke: #3f3f3f; stroke-width: 1.875; stroke-linecap: square"/>
   </g>
   <g id="line2d_13">
    <path d="M 333.553125 225.672426 
L 333.553125 187.162506 
" clip-path="url(#p2c91c65ce3)" style="fill: none; stroke: #3f3f3f; stroke-width: 5.625; stroke-linecap: square"/>
   </g>
   <g id="line2d_14">
    <path d="M 333.553125 202.851733 
" clip-path="url(#p2c91c65ce3)" style="fill: none; stroke: #3f3f3f; stroke-width: 1.5; stroke-linecap: square"/>
    <g clip-path="url(#p2c91c65ce3)">
     <use xlink:href="#m67cc215f0d" x="333.553125" y="202.851733" style="fill: #ffffff; stroke: #ffffff; stroke-width: 1.125"/>
    </g>
   </g>
   <g id="patch_3">
    <path d="M 40.603125 284.4 
L 40.603125 7.2 
" style="fill: none; stroke: #000000; stroke-width: 0.8; stroke-linejoin: miter; stroke-linecap: square"/>
   </g>
   <g id="patch_4">
    <path d="M 431.203125 284.4 
L 431.203125 7.2 
" style="fill: none; stroke: #000000; stroke-width: 0.8; stroke-linejoin: miter; stroke-linecap: square"/>
   </g>
   <g id="patch_5">
    <path d="M 40.603125 284.4 
L 431.203125 284.4 
" style="fill: none; stroke: #000000; stroke-width: 0.8; stroke-linejoin: miter; stroke-linecap: square"/>
   </g>
   <g id="patch_6">
    <path d="M 40.603125 7.2 
L 431.203125 7.2 
" style="fill: none; stroke: #000000; stroke-width: 0.8; stroke-linejoin: miter; stroke-linecap: square"/>
   </g>
  </g>
 </g>
 <defs>
  <clipPath id="p2c91c65ce3">
   <rect x="40.603125" y="7.2" width="390.6" height="277.2"/>
  </clipPath>
 </defs>
</svg>
