<?xml version="1.0" encoding="utf-8" standalone="no"?>
<!DOCTYPE svg PUBLIC "-//W3C//DTD SVG 1.1//EN"
  "http://www.w3.org/Graphics/SVG/1.1/DTD/svg11.dtd">
<svg xmlns:xlink="http://www.w3.org/1999/xlink" width="438.403125pt" height="308.278125pt" viewBox="0 0 438.403125 308.278125" xmlns="http://www.w3.org/2000/svg" version="1.1">
 <metadata>
  <rdf:RDF xmlns:dc="http://purl.org/dc/elements/1.1/" xmlns:cc="http://creativecommons.org/ns#" xmlns:rdf="http://www.w3.org/1999/02/22-rdf-syntax-ns#">
   <cc:Work>
    <dc:type rdf:resource="http://purl.org/dc/dcmitype/StillImage"/>
    <dc:date>2025-08-01T22:18:03.203905</dc:date>
    <dc:format>image/svg+xml</dc:format>
    <dc:creator>
     <cc:Agent>
      <dc:title>Matplotlib v3.10.0, https://matplotlib.org/</dc:title>
     </cc:Agent>
    </dc:creator>
   </cc:Work>
  </rdf:RDF>
 </metadata>
 <defs>
  <style type="text/css">*{stroke-linejoin: round; stroke-linecap: butt}</style>
 </defs>
 <g id="figure_1">
  <g id="patch_1">
   <path d="M 0 308.278125 
L 438.403125 308.278125 
L 438.403125 0 
L 0 0 
z
" style="fill: #ffffff"/>
  </g>
  <g id="axes_1">
   <g id="patch_2">
    <path d="M 40.603125 284.4 
L 431.203125 284.4 
L 431.203125 7.2 
L 40.603125 7.2 
z
" style="fill: #ffffff"/>
   </g>
   <g id="FillBetweenPolyCollection_1">
    <path d="M 137.274328 271.8 
L 97.804649 271.8 
L 94.555911 269.254545 
L 91.15836 266.709091 
L 87.673242 264.163636 
L 84.171236 261.618182 
L 80.730844 259.072727 
L 77.435031 256.527273 
L 74.365687 253.981818 
L 71.596053 251.436364 
L 69.181961 248.890909 
L 67.153528 246.345455 
L 65.509311 243.8 
L 64.214887 241.254545 
L 63.207144 238.709091 
L 62.404397 236.163636 
L 61.721018 233.618182 
L 61.084001 231.072727 
L 60.448149 228.527273 
L 59.806571 225.981818 
L 59.194056 223.436364 
L 58.682396 220.890909 
L 58.368492 218.345455 
L 58.35767 215.8 
L 58.745618 213.254545 
L 59.60247 210.709091 
L 60.961906 208.163636 
L 62.816812 205.618182 
L 65.121493 203.072727 
L 67.799125 200.527273 
L 70.752258 197.981818 
L 73.873997 195.436364 
L 77.05794 192.890909 
L 80.205712 190.345455 
L 83.231873 187.8 
L 86.066681 185.254545 
L 88.657524 182.709091 
L 90.969795 180.163636 
L 92.98759 177.618182 
L 94.714118 175.072727 
L 96.171308 172.527273 
L 97.397939 169.981818 
L 98.445851 167.436364 
L 99.374213 164.890909 
L 100.242448 162.345455 
L 101.102889 159.8 
L 101.994493 157.254545 
L 102.938782 154.709091 
L 103.938764 152.163636 
L 104.980889 149.618182 
L 106.039476 147.072727 
L 107.082547 144.527273 
L 108.077857 141.981818 
L 108.998028 139.436364 
L 109.824049 136.890909 
L 110.54689 134.345455 
L 111.16734 131.8 
L 111.694477 129.254545 
L 112.143283 126.709091 
L 112.531888 124.163636 
L 112.878843 121.618182 
L 113.200751 119.072727 
L 113.510457 116.527273 
L 113.815992 113.981818 
L 114.120331 111.436364 
L 114.421968 108.890909 
L 114.716172 106.345455 
L 114.996659 103.8 
L 115.257338 101.254545 
L 115.493774 98.709091 
L 115.704072 96.163636 
L 115.889038 93.618182 
L 116.051655 91.072727 
L 116.196055 88.527273 
L 116.326301 85.981818 
L 116.44529 83.436364 
L 116.554047 80.890909 
L 116.651547 78.345455 
L 116.735081 75.8 
L 116.801047 73.254545 
L 116.845958 70.709091 
L 116.867449 68.163636 
L 116.865055 65.618182 
L 116.84062 63.072727 
L 116.798242 60.527273 
L 116.743778 57.981818 
L 116.683997 55.436364 
L 116.625551 52.890909 
L 116.57397 50.345455 
L 116.532889 47.8 
L 116.503671 45.254545 
L 116.485525 42.709091 
L 116.476079 40.163636 
L 116.472277 37.618182 
L 116.471392 35.072727 
L 116.471891 32.527273 
L 116.473952 29.981818 
L 116.479502 27.436364 
L 116.491769 24.890909 
L 116.514494 22.345455 
L 116.550975 19.8 
L 118.528002 19.8 
L 118.528002 19.8 
L 118.564484 22.345455 
L 118.587208 24.890909 
L 118.599476 27.436364 
L 118.605025 29.981818 
L 118.607087 32.527273 
L 118.607586 35.072727 
L 118.6067 37.618182 
L 118.602898 40.163636 
L 118.593452 42.709091 
L 118.575307 45.254545 
L 118.546089 47.8 
L 118.505007 50.345455 
L 118.453426 52.890909 
L 118.39498 55.436364 
L 118.335199 57.981818 
L 118.280735 60.527273 
L 118.238357 63.072727 
L 118.213923 65.618182 
L 118.211529 68.163636 
L 118.233019 70.709091 
L 118.27793 73.254545 
L 118.343896 75.8 
L 118.42743 78.345455 
L 118.52493 80.890909 
L 118.633687 83.436364 
L 118.752676 85.981818 
L 118.882922 88.527273 
L 119.027322 91.072727 
L 119.189939 93.618182 
L 119.374906 96.163636 
L 119.585203 98.709091 
L 119.82164 101.254545 
L 120.082319 103.8 
L 120.362805 106.345455 
L 120.657009 108.890909 
L 120.958646 111.436364 
L 121.262985 113.981818 
L 121.568521 116.527273 
L 121.878227 119.072727 
L 122.200134 121.618182 
L 122.547089 124.163636 
L 122.935694 126.709091 
L 123.3845 129.254545 
L 123.911637 131.8 
L 124.532087 134.345455 
L 125.254928 136.890909 
L 126.08095 139.436364 
L 127.00112 141.981818 
L 127.996431 144.527273 
L 129.039501 147.072727 
L 130.098088 149.618182 
L 131.140214 152.163636 
L 132.140196 154.709091 
L 133.084485 157.254545 
L 133.976088 159.8 
L 134.83653 162.345455 
L 135.704764 164.890909 
L 136.633127 167.436364 
L 137.681039 169.981818 
L 138.90767 172.527273 
L 140.364859 175.072727 
L 142.091388 177.618182 
L 144.109182 180.163636 
L 146.421453 182.709091 
L 149.012296 185.254545 
L 151.847104 187.8 
L 154.873266 190.345455 
L 158.021037 192.890909 
L 161.20498 195.436364 
L 164.326719 197.981818 
L 167.279852 200.527273 
L 169.957485 203.072727 
L 172.262165 205.618182 
L 174.117071 208.163636 
L 175.476507 210.709091 
L 176.333359 213.254545 
L 176.721307 215.8 
L 176.710485 218.345455 
L 176.396581 220.890909 
L 175.884921 223.436364 
L 175.272406 225.981818 
L 174.630829 228.527273 
L 173.994977 231.072727 
L 173.357959 233.618182 
L 172.67458 236.163636 
L 171.871834 238.709091 
L 170.864091 241.254545 
L 169.569666 243.8 
L 167.925449 246.345455 
L 165.897017 248.890909 
L 163.482924 251.436364 
L 160.71329 253.981818 
L 157.643947 256.527273 
L 154.348133 259.072727 
L 150.907741 261.618182 
L 147.405735 264.163636 
L 143.920617 266.709091 
L 140.523067 269.254545 
L 137.274328 271.8 
z
" clip-path="url(#p7c85bf2790)" style="fill: #1f77b4; fill-opacity: 0.3"/>
   </g>
   <g id="FillBetweenPolyCollection_2">
    <path d="M 384.895592 264.8 
L 323.637931 264.8 
L 320.605644 263.258586 
L 317.55514 261.717172 
L 314.53019 260.175758 
L 311.577007 258.634343 
L 308.742948 257.092929 
L 306.075078 255.551515 
L 303.618631 254.010101 
L 301.415446 252.468687 
L 299.502453 250.927273 
L 297.910287 249.385859 
L 296.662111 247.844444 
L 295.772732 246.30303 
L 295.248058 244.761616 
L 295.084943 243.220202 
L 295.271452 241.678788 
L 295.787512 240.137374 
L 296.605935 238.59596 
L 297.693743 237.054545 
L 299.013706 235.513131 
L 300.526008 233.971717 
L 302.189915 232.430303 
L 303.965365 230.888889 
L 305.814373 229.347475 
L 307.702174 227.806061 
L 309.598073 226.264646 
L 311.475956 224.723232 
L 313.314484 223.181818 
L 315.096991 221.640404 
L 316.811143 220.09899 
L 318.448418 218.557576 
L 320.003481 217.016162 
L 321.47353 215.474747 
L 322.857675 213.933333 
L 324.156396 212.391919 
L 325.371131 210.850505 
L 326.503989 209.309091 
L 327.557604 207.767677 
L 328.535105 206.226263 
L 329.440159 204.684848 
L 330.277064 203.143434 
L 331.050835 201.60202 
L 331.767253 200.060606 
L 332.432834 198.519192 
L 333.054707 196.977778 
L 333.640391 195.436364 
L 334.197486 193.894949 
L 334.73329 192.353535 
L 335.254399 190.812121 
L 335.766313 189.270707 
L 336.273105 187.729293 
L 336.777191 186.187879 
L 337.27924 184.646465 
L 337.778233 183.105051 
L 338.271683 181.563636 
L 338.755994 180.022222 
L 339.22694 178.480808 
L 339.680205 176.939394 
L 340.111939 175.39798 
L 340.519271 173.856566 
L 340.900732 172.315152 
L 341.256537 170.773737 
L 341.588697 169.232323 
L 341.900958 167.690909 
L 342.198561 166.149495 
L 342.487861 164.608081 
L 342.775829 163.066667 
L 343.069501 161.525253 
L 343.375413 159.983838 
L 343.699095 158.442424 
L 344.044641 156.90101 
L 344.414421 155.359596 
L 344.808927 153.818182 
L 345.226782 152.276768 
L 345.664882 150.735354 
L 346.118663 149.193939 
L 346.582454 147.652525 
L 347.049881 146.111111 
L 347.514282 144.569697 
L 347.969111 143.028283 
L 348.408281 141.486869 
L 348.82645 139.945455 
L 349.219226 138.40404 
L 349.583287 136.862626 
L 349.91643 135.321212 
L 350.21756 133.779798 
L 350.486619 132.238384 
L 350.724482 130.69697 
L 350.932838 129.155556 
L 351.11404 127.614141 
L 351.270972 126.072727 
L 351.406903 124.531313 
L 351.525348 122.989899 
L 351.629937 121.448485 
L 351.724288 119.907071 
L 351.811881 118.365657 
L 351.895953 116.824242 
L 351.979387 115.282828 
L 352.06463 113.741414 
L 352.153615 112.2 
L 356.379907 112.2 
L 356.379907 112.2 
L 356.468893 113.741414 
L 356.554135 115.282828 
L 356.63757 116.824242 
L 356.721642 118.365657 
L 356.809235 119.907071 
L 356.903585 121.448485 
L 357.008174 122.989899 
L 357.126619 124.531313 
L 357.26255 126.072727 
L 357.419483 127.614141 
L 357.600685 129.155556 
L 357.80904 130.69697 
L 358.046904 132.238384 
L 358.315963 133.779798 
L 358.617093 135.321212 
L 358.950236 136.862626 
L 359.314296 138.40404 
L 359.707072 139.945455 
L 360.125242 141.486869 
L 360.564412 143.028283 
L 361.019241 144.569697 
L 361.483642 146.111111 
L 361.951068 147.652525 
L 362.414859 149.193939 
L 362.868641 150.735354 
L 363.306741 152.276768 
L 363.724596 153.818182 
L 364.119102 155.359596 
L 364.488881 156.90101 
L 364.834428 158.442424 
L 365.15811 159.983838 
L 365.464022 161.525253 
L 365.757693 163.066667 
L 366.045662 164.608081 
L 366.334962 166.149495 
L 366.632565 167.690909 
L 366.944826 169.232323 
L 367.276986 170.773737 
L 367.63279 172.315152 
L 368.014252 173.856566 
L 368.421584 175.39798 
L 368.853317 176.939394 
L 369.306583 178.480808 
L 369.777529 180.022222 
L 370.26184 181.563636 
L 370.755289 183.105051 
L 371.254282 184.646465 
L 371.756332 186.187879 
L 372.260418 187.729293 
L 372.76721 189.270707 
L 373.279124 190.812121 
L 373.800233 192.353535 
L 374.336037 193.894949 
L 374.893131 195.436364 
L 375.478816 196.977778 
L 376.100688 198.519192 
L 376.766269 200.060606 
L 377.482687 201.60202 
L 378.256459 203.143434 
L 379.093363 204.684848 
L 379.998417 206.226263 
L 380.975918 207.767677 
L 382.029534 209.309091 
L 383.162392 210.850505 
L 384.377126 212.391919 
L 385.675848 213.933333 
L 387.059993 215.474747 
L 388.530042 217.016162 
L 390.085105 218.557576 
L 391.722379 220.09899 
L 393.436532 221.640404 
L 395.219039 223.181818 
L 397.057566 224.723232 
L 398.93545 226.264646 
L 400.831349 227.806061 
L 402.71915 229.347475 
L 404.568157 230.888889 
L 406.343608 232.430303 
L 408.007515 233.971717 
L 409.519816 235.513131 
L 410.83978 237.054545 
L 411.927588 238.59596 
L 412.746011 240.137374 
L 413.26207 241.678788 
L 413.44858 243.220202 
L 413.285465 244.761616 
L 412.76079 246.30303 
L 411.871412 247.844444 
L 410.623236 249.385859 
L 409.031069 250.927273 
L 407.118077 252.468687 
L 404.914892 254.010101 
L 402.458445 255.551515 
L 399.790575 257.092929 
L 396.956516 258.634343 
L 394.003333 260.175758 
L 390.978383 261.717172 
L 387.927878 263.258586 
L 384.895592 264.8 
z
" clip-path="url(#p7c85bf2790)" style="fill: #ff7f0e; fill-opacity: 0.3"/>
   </g>
   <g id="matplotlib.axis_1">
    <g id="xtick_1">
     <g id="line2d_1">
      <defs>
       <path id="m3a9c1c3486" d="M 0 0 
L 0 3.5 
" style="stroke: #000000; stroke-width: 0.8"/>
      </defs>
      <g>
       <use xlink:href="#m3a9c1c3486" x="117.539489" y="284.4" style="stroke: #000000; stroke-width: 0.8"/>
      </g>
     </g>
     <g id="text_1">
      <!-- Dinner -->
      <g transform="translate(100.830895 298.998438) scale(0.1 -0.1)">
       <defs>
        <path id="DejaVuSans-44" d="M 1259 4147 
L 1259 519 
L 2022 519 
Q 2988 519 3436 956 
Q 3884 1394 3884 2338 
Q 3884 3275 3436 3711 
Q 2988 4147 2022 4147 
L 1259 4147 
z
M 628 4666 
L 1925 4666 
Q 3281 4666 3915 4102 
Q 4550 3538 4550 2338 
Q 4550 1131 3912 565 
Q 3275 0 1925 0 
L 628 0 
L 628 4666 
z
" transform="scale(0.015625)"/>
        <path id="DejaVuSans-69" d="M 603 3500 
L 1178 3500 
L 1178 0 
L 603 0 
L 603 3500 
z
M 603 4863 
L 1178 4863 
L 1178 4134 
L 603 4134 
L 603 4863 
z
" transform="scale(0.015625)"/>
        <path id="DejaVuSans-6e" d="M 3513 2113 
L 3513 0 
L 2938 0 
L 2938 2094 
Q 2938 2591 2744 2837 
Q 2550 3084 2163 3084 
Q 1697 3084 1428 2787 
Q 1159 2491 1159 1978 
L 1159 0 
L 581 0 
L 581 3500 
L 1159 3500 
L 1159 2956 
Q 1366 3272 1645 3428 
Q 1925 3584 2291 3584 
Q 2894 3584 3203 3211 
Q 3513 2838 3513 2113 
z
" transform="scale(0.015625)"/>
        <path id="DejaVuSans-65" d="M 3597 1894 
L 3597 1613 
L 953 1613 
Q 991 1019 1311 708 
Q 1631 397 2203 397 
Q 2534 397 2845 478 
Q 3156 559 3463 722 
L 3463 178 
Q 3153 47 2828 -22 
Q 2503 -91 2169 -91 
Q 1331 -91 842 396 
Q 353 884 353 1716 
Q 353 2575 817 3079 
Q 1281 3584 2069 3584 
Q 2775 3584 3186 3129 
Q 3597 2675 3597 1894 
z
M 3022 2063 
Q 3016 2534 2758 2815 
Q 2500 3097 2075 3097 
Q 1594 3097 1305 2825 
Q 1016 2553 972 2059 
L 3022 2063 
z
" transform="scale(0.015625)"/>
        <path id="DejaVuSans-72" d="M 2631 2963 
Q 2534 3019 2420 3045 
Q 2306 3072 2169 3072 
Q 1681 3072 1420 2755 
Q 1159 2438 1159 1844 
L 1159 0 
L 581 0 
L 581 3500 
L 1159 3500 
L 1159 2956 
Q 1341 3275 1631 3429 
Q 1922 3584 2338 3584 
Q 2397 3584 2469 3576 
Q 2541 3569 2628 3553 
L 2631 2963 
z
" transform="scale(0.015625)"/>
       </defs>
       <use xlink:href="#DejaVuSans-44"/>
       <use xlink:href="#DejaVuSans-69" transform="translate(77.001953 0)"/>
       <use xlink:href="#DejaVuSans-6e" transform="translate(104.785156 0)"/>
       <use xlink:href="#DejaVuSans-6e" transform="translate(168.164062 0)"/>
       <use xlink:href="#DejaVuSans-65" transform="translate(231.542969 0)"/>
       <use xlink:href="#DejaVuSans-72" transform="translate(293.066406 0)"/>
      </g>
     </g>
    </g>
    <g id="xtick_2">
     <g id="line2d_2">
      <g>
       <use xlink:href="#m3a9c1c3486" x="354.266761" y="284.4" style="stroke: #000000; stroke-width: 0.8"/>
      </g>
     </g>
     <g id="text_2">
      <!-- Lunch -->
      <g transform="translate(339.312855 298.998438) scale(0.1 -0.1)">
       <defs>
        <path id="DejaVuSans-4c" d="M 628 4666 
L 1259 4666 
L 1259 531 
L 3531 531 
L 3531 0 
L 628 0 
L 628 4666 
z
" transform="scale(0.015625)"/>
        <path id="DejaVuSans-75" d="M 544 1381 
L 544 3500 
L 1119 3500 
L 1119 1403 
Q 1119 906 1312 657 
Q 1506 409 1894 409 
Q 2359 409 2629 706 
Q 2900 1003 2900 1516 
L 2900 3500 
L 3475 3500 
L 3475 0 
L 2900 0 
L 2900 538 
Q 2691 219 2414 64 
Q 2138 -91 1772 -91 
Q 1169 -91 856 284 
Q 544 659 544 1381 
z
M 1991 3584 
L 1991 3584 
z
" transform="scale(0.015625)"/>
        <path id="DejaVuSans-63" d="M 3122 3366 
L 3122 2828 
Q 2878 2963 2633 3030 
Q 2388 3097 2138 3097 
Q 1578 3097 1268 2742 
Q 959 2388 959 1747 
Q 959 1106 1268 751 
Q 1578 397 2138 397 
Q 2388 397 2633 464 
Q 2878 531 3122 666 
L 3122 134 
Q 2881 22 2623 -34 
Q 2366 -91 2075 -91 
Q 1284 -91 818 406 
Q 353 903 353 1747 
Q 353 2603 823 3093 
Q 1294 3584 2113 3584 
Q 2378 3584 2631 3529 
Q 2884 3475 3122 3366 
z
" transform="scale(0.015625)"/>
        <path id="DejaVuSans-68" d="M 3513 2113 
L 3513 0 
L 2938 0 
L 2938 2094 
Q 2938 2591 2744 2837 
Q 2550 3084 2163 3084 
Q 1697 3084 1428 2787 
Q 1159 2491 1159 1978 
L 1159 0 
L 581 0 
L 581 4863 
L 1159 4863 
L 1159 2956 
Q 1366 3272 1645 3428 
Q 1925 3584 2291 3584 
Q 2894 3584 3203 3211 
Q 3513 2838 3513 2113 
z
" transform="scale(0.015625)"/>
       </defs>
       <use xlink:href="#DejaVuSans-4c"/>
       <use xlink:href="#DejaVuSans-75" transform="translate(53.962891 0)"/>
       <use xlink:href="#DejaVuSans-6e" transform="translate(117.341797 0)"/>
       <use xlink:href="#DejaVuSans-63" transform="translate(180.720703 0)"/>
       <use xlink:href="#DejaVuSans-68" transform="translate(235.701172 0)"/>
      </g>
     </g>
    </g>
   </g>
   <g id="matplotlib.axis_2">
    <g id="ytick_1">
     <g id="line2d_3">
      <defs>
       <path id="ma53fd10f59" d="M 0 0 
L -3.5 0 
" style="stroke: #000000; stroke-width: 0.8"/>
      </defs>
      <g>
       <use xlink:href="#ma53fd10f59" x="40.603125" y="243.8" style="stroke: #000000; stroke-width: 0.8"/>
      </g>
     </g>
     <g id="text_3">
      <!-- 2 -->
      <g transform="translate(27.240625 247.599219) scale(0.1 -0.1)">
       <defs>
        <path id="DejaVuSans-32" d="M 1228 531 
L 3431 531 
L 3431 0 
L 469 0 
L 469 531 
Q 828 903 1448 1529 
Q 2069 2156 2228 2338 
Q 2531 2678 2651 2914 
Q 2772 3150 2772 3378 
Q 2772 3750 2511 3984 
Q 2250 4219 1831 4219 
Q 1534 4219 1204 4116 
Q 875 4013 500 3803 
L 500 4441 
Q 881 4594 1212 4672 
Q 1544 4750 1819 4750 
Q 2544 4750 2975 4387 
Q 3406 4025 3406 3419 
Q 3406 3131 3298 2873 
Q 3191 2616 2906 2266 
Q 2828 2175 2409 1742 
Q 1991 1309 1228 531 
z
" transform="scale(0.015625)"/>
       </defs>
       <use xlink:href="#DejaVuSans-32"/>
      </g>
     </g>
    </g>
    <g id="ytick_2">
     <g id="line2d_4">
      <g>
       <use xlink:href="#ma53fd10f59" x="40.603125" y="187.8" style="stroke: #000000; stroke-width: 0.8"/>
      </g>
     </g>
     <g id="text_4">
      <!-- 4 -->
      <g transform="translate(27.240625 191.599219) scale(0.1 -0.1)">
       <defs>
        <path id="DejaVuSans-34" d="M 2419 4116 
L 825 1625 
L 2419 1625 
L 2419 4116 
z
M 2253 4666 
L 3047 4666 
L 3047 1625 
L 3713 1625 
L 3713 1100 
L 3047 1100 
L 3047 0 
L 2419 0 
L 2419 1100 
L 313 1100 
L 313 1709 
L 2253 4666 
z
" transform="scale(0.015625)"/>
       </defs>
       <use xlink:href="#DejaVuSans-34"/>
      </g>
     </g>
    </g>
    <g id="ytick_3">
     <g id="line2d_5">
      <g>
       <use xlink:href="#ma53fd10f59" x="40.603125" y="131.8" style="stroke: #000000; stroke-width: 0.8"/>
      </g>
     </g>
     <g id="text_5">
      <!-- 6 -->
      <g transform="translate(27.240625 135.599219) scale(0.1 -0.1)">
       <defs>
        <path id="DejaVuSans-36" d="M 2113 2584 
Q 1688 2584 1439 2293 
Q 1191 2003 1191 1497 
Q 1191 994 1439 701 
Q 1688 409 2113 409 
Q 2538 409 2786 701 
Q 3034 994 3034 1497 
Q 3034 2003 2786 2293 
Q 2538 2584 2113 2584 
z
M 3366 4563 
L 3366 3988 
Q 3128 4100 2886 4159 
Q 2644 4219 2406 4219 
Q 1781 4219 1451 3797 
Q 1122 3375 1075 2522 
Q 1259 2794 1537 2939 
Q 1816 3084 2150 3084 
Q 2853 3084 3261 2657 
Q 3669 2231 3669 1497 
Q 3669 778 3244 343 
Q 2819 -91 2113 -91 
Q 1303 -91 875 529 
Q 447 1150 447 2328 
Q 447 3434 972 4092 
Q 1497 4750 2381 4750 
Q 2619 4750 2861 4703 
Q 3103 4656 3366 4563 
z
" transform="scale(0.015625)"/>
       </defs>
       <use xlink:href="#DejaVuSans-36"/>
      </g>
     </g>
    </g>
    <g id="ytick_4">
     <g id="line2d_6">
      <g>
       <use xlink:href="#ma53fd10f59" x="40.603125" y="75.8" style="stroke: #000000; stroke-width: 0.8"/>
      </g>
     </g>
     <g id="text_6">
      <!-- 8 -->
      <g transform="translate(27.240625 79.599219) scale(0.1 -0.1)">
       <defs>
        <path id="DejaVuSans-38" d="M 2034 2216 
Q 1584 2216 1326 1975 
Q 1069 1734 1069 1313 
Q 1069 891 1326 650 
Q 1584 409 2034 409 
Q 2484 409 2743 651 
Q 3003 894 3003 1313 
Q 3003 1734 2745 1975 
Q 2488 2216 2034 2216 
z
M 1403 2484 
Q 997 2584 770 2862 
Q 544 3141 544 3541 
Q 544 4100 942 4425 
Q 1341 4750 2034 4750 
Q 2731 4750 3128 4425 
Q 3525 4100 3525 3541 
Q 3525 3141 3298 2862 
Q 3072 2584 2669 2484 
Q 3125 2378 3379 2068 
Q 3634 1759 3634 1313 
Q 3634 634 3220 271 
Q 2806 -91 2034 -91 
Q 1263 -91 848 271 
Q 434 634 434 1313 
Q 434 1759 690 2068 
Q 947 2378 1403 2484 
z
M 1172 3481 
Q 1172 3119 1398 2916 
Q 1625 2713 2034 2713 
Q 2441 2713 2670 2916 
Q 2900 3119 2900 3481 
Q 2900 3844 2670 4047 
Q 2441 4250 2034 4250 
Q 1625 4250 1398 4047 
Q 1172 3844 1172 3481 
z
" transform="scale(0.015625)"/>
       </defs>
       <use xlink:href="#DejaVuSans-38"/>
      </g>
     </g>
    </g>
    <g id="ytick_5">
     <g id="line2d_7">
      <g>
       <use xlink:href="#ma53fd10f59" x="40.603125" y="19.8" style="stroke: #000000; stroke-width: 0.8"/>
      </g>
     </g>
     <g id="text_7">
      <!-- 10 -->
      <g transform="translate(20.878125 23.599219) scale(0.1 -0.1)">
       <defs>
        <path id="DejaVuSans-31" d="M 794 531 
L 1825 531 
L 1825 4091 
L 703 3866 
L 703 4441 
L 1819 4666 
L 2450 4666 
L 2450 531 
L 3481 531 
L 3481 0 
L 794 0 
L 794 531 
z
" transform="scale(0.015625)"/>
        <path id="DejaVuSans-30" d="M 2034 4250 
Q 1547 4250 1301 3770 
Q 1056 3291 1056 2328 
Q 1056 1369 1301 889 
Q 1547 409 2034 409 
Q 2525 409 2770 889 
Q 3016 1369 3016 2328 
Q 3016 3291 2770 3770 
Q 2525 4250 2034 4250 
z
M 2034 4750 
Q 2819 4750 3233 4129 
Q 3647 3509 3647 2328 
Q 3647 1150 3233 529 
Q 2819 -91 2034 -91 
Q 1250 -91 836 529 
Q 422 1150 422 2328 
Q 422 3509 836 4129 
Q 1250 4750 2034 4750 
z
" transform="scale(0.015625)"/>
       </defs>
       <use xlink:href="#DejaVuSans-31"/>
       <use xlink:href="#DejaVuSans-30" transform="translate(63.623047 0)"/>
      </g>
     </g>
    </g>
    <g id="text_8">
     <!-- Tip -->
     <g transform="translate(14.798438 153.260938) rotate(-90) scale(0.1 -0.1)">
      <defs>
       <path id="DejaVuSans-54" d="M -19 4666 
L 3928 4666 
L 3928 4134 
L 2272 4134 
L 2272 0 
L 1638 0 
L 1638 4134 
L -19 4134 
L -19 4666 
z
" transform="scale(0.015625)"/>
       <path id="DejaVuSans-70" d="M 1159 525 
L 1159 -1331 
L 581 -1331 
L 581 3500 
L 1159 3500 
L 1159 2969 
Q 1341 3281 1617 3432 
Q 1894 3584 2278 3584 
Q 2916 3584 3314 3078 
Q 3713 2572 3713 1747 
Q 3713 922 3314 415 
Q 2916 -91 2278 -91 
Q 1894 -91 1617 61 
Q 1341 213 1159 525 
z
M 3116 1747 
Q 3116 2381 2855 2742 
Q 2594 3103 2138 3103 
Q 1681 3103 1420 2742 
Q 1159 2381 1159 1747 
Q 1159 1113 1420 752 
Q 1681 391 2138 391 
Q 2594 391 2855 752 
Q 3116 1113 3116 1747 
z
" transform="scale(0.015625)"/>
      </defs>
      <use xlink:href="#DejaVuSans-54"/>
      <use xlink:href="#DejaVuSans-69" transform="translate(57.958984 0)"/>
      <use xlink:href="#DejaVuSans-70" transform="translate(85.742188 0)"/>
     </g>
    </g>
   </g>
   <g id="LineCollection_1">
    <path d="M 87.94858 19.8 
L 147.130398 19.8 
" clip-path="url(#p7c85bf2790)" style="fill: none; stroke: #1f77b4; stroke-width: 1.5"/>
   </g>
   <g id="LineCollection_2">
    <path d="M 87.94858 271.8 
L 147.130398 271.8 
" clip-path="url(#p7c85bf2790)" style="fill: none; stroke: #1f77b4; stroke-width: 1.5"/>
   </g>
   <g id="LineCollection_3">
    <path d="M 117.539489 271.8 
L 117.539489 19.8 
" clip-path="url(#p7c85bf2790)" style="fill: none; stroke: #1f77b4; stroke-width: 1.5"/>
   </g>
   <g id="LineCollection_4">
    <path d="M 324.675852 112.2 
L 383.85767 112.2 
" clip-path="url(#p7c85bf2790)" style="fill: none; stroke: #ff7f0e; stroke-width: 1.5"/>
   </g>
   <g id="LineCollection_5">
    <path d="M 324.675852 264.8 
L 383.85767 264.8 
" clip-path="url(#p7c85bf2790)" style="fill: none; stroke: #ff7f0e; stroke-width: 1.5"/>
   </g>
   <g id="LineCollection_6">
    <path d="M 354.266761 264.8 
L 354.266761 112.2 
" clip-path="url(#p7c85bf2790)" style="fill: none; stroke: #ff7f0e; stroke-width: 1.5"/>
   </g>
   <g id="patch_3">
    <path d="M 40.603125 284.4 
L 40.603125 7.2 
" style="fill: none; stroke: #000000; stroke-width: 0.8; stroke-linejoin: miter; stroke-linecap: square"/>
   </g>
   <g id="patch_4">
    <path d="M 431.203125 284.4 
L 431.203125 7.2 
" style="fill: none; stroke: #000000; stroke-width: 0.8; stroke-linejoin: miter; stroke-linecap: square"/>
   </g>
   <g id="patch_5">
    <path d="M 40.603125 284.4 
L 431.203125 284.4 
" style="fill: none; stroke: #000000; stroke-width: 0.8; stroke-linejoin: miter; stroke-linecap: square"/>
   </g>
   <g id="patch_6">
    <path d="M 40.603125 7.2 
L 431.203125 7.2 
" style="fill: none; stroke: #000000; stroke-width: 0.8; stroke-linejoin: miter; stroke-linecap: square"/>
   </g>
  </g>
 </g>
 <defs>
  <clipPath id="p7c85bf2790">
   <rect x="40.603125" y="7.2" width="390.6" height="277.2"/>
  </clipPath>
 </defs>
</svg>
