<?xml version="1.0" encoding="utf-8" standalone="no"?>
<!DOCTYPE svg PUBLIC "-//W3C//DTD SVG 1.1//EN"
  "http://www.w3.org/Graphics/SVG/1.1/DTD/svg11.dtd">
<svg xmlns:xlink="http://www.w3.org/1999/xlink" width="337.325pt" height="329.278125pt" viewBox="0 0 337.325 329.278125" xmlns="http://www.w3.org/2000/svg" version="1.1">
 <metadata>
  <rdf:RDF xmlns:dc="http://purl.org/dc/elements/1.1/" xmlns:cc="http://creativecommons.org/ns#" xmlns:rdf="http://www.w3.org/1999/02/22-rdf-syntax-ns#">
   <cc:Work>
    <dc:type rdf:resource="http://purl.org/dc/dcmitype/StillImage"/>
    <dc:date>2025-08-01T22:17:55.368874</dc:date>
    <dc:format>image/svg+xml</dc:format>
    <dc:creator>
     <cc:Agent>
      <dc:title>Matplotlib v3.10.0, https://matplotlib.org/</dc:title>
     </cc:Agent>
    </dc:creator>
   </cc:Work>
  </rdf:RDF>
 </metadata>
 <defs>
  <style type="text/css">*{stroke-linejoin: round; stroke-linecap: butt}</style>
 </defs>
 <g id="figure_1">
  <g id="patch_1">
   <path d="M 0 329.278125 
L 337.325 329.278125 
L 337.325 0 
L 0 0 
z
" style="fill: #ffffff"/>
  </g>
  <g id="axes_1">
   <g id="patch_2">
    <path d="M 310.44375 164.639062 
C 310.44375 146.438277 306.858592 128.414472 299.893453 111.599139 
C 292.928314 94.783806 282.718649 79.503961 269.84875 66.634063 
C 256.978851 53.764164 241.699007 43.554498 224.883674 36.589359 
C 208.068341 29.62422 190.044535 26.039062 171.84375 26.039062 
C 153.642965 26.039062 135.619159 29.62422 118.803826 36.589359 
C 101.988493 43.554498 86.708649 53.764164 73.83875 66.634063 
C 60.968851 79.503961 50.759186 94.783806 43.794047 111.599139 
C 36.828908 128.414472 33.24375 146.438277 33.24375 164.639062 
C 33.24375 182.839848 36.828908 200.863653 43.794047 217.678986 
C 50.759186 234.494319 60.968851 249.774164 73.83875 262.644062 
C 86.708649 275.513961 101.988493 285.723627 118.803826 292.688766 
C 135.619159 299.653905 153.642965 303.239062 171.84375 303.239062 
C 190.044535 303.239062 208.068341 299.653905 224.883674 292.688766 
C 241.699007 285.723627 256.978851 275.513961 269.84875 262.644062 
C 282.718649 249.774164 292.928314 234.494319 299.893453 217.678986 
C 306.858592 200.863653 310.44375 182.839848 310.44375 164.639062 
M 171.84375 164.639062 
C 171.84375 164.639062 171.84375 164.639062 171.84375 164.639062 
C 171.84375 164.639062 171.84375 164.639062 171.84375 164.639062 
C 171.84375 164.639062 171.84375 164.639062 171.84375 164.639062 
C 171.84375 164.639062 171.84375 164.639062 171.84375 164.639062 
C 171.84375 164.639062 171.84375 164.639062 171.84375 164.639062 
C 171.84375 164.639062 171.84375 164.639062 171.84375 164.639062 
C 171.84375 164.639062 171.84375 164.639062 171.84375 164.639062 
C 171.84375 164.639062 171.84375 164.639062 171.84375 164.639062 
C 171.84375 164.639062 171.84375 164.639062 171.84375 164.639062 
C 171.84375 164.639062 171.84375 164.639062 171.84375 164.639062 
C 171.84375 164.639062 171.84375 164.639062 171.84375 164.639062 
C 171.84375 164.639062 171.84375 164.639062 171.84375 164.639062 
C 171.84375 164.639062 171.84375 164.639062 171.84375 164.639062 
C 171.84375 164.639062 171.84375 164.639062 171.84375 164.639062 
C 171.84375 164.639062 171.84375 164.639062 171.84375 164.639062 
C 171.84375 164.639062 171.84375 164.639062 171.84375 164.639062 
z
" style="fill: #ffffff"/>
   </g>
   <g id="matplotlib.axis_1">
    <g id="xtick_1">
     <g id="line2d_1">
      <path d="M 171.84375 164.639062 
L 310.44375 164.639062 
" clip-path="url(#p201751fd00)" style="fill: none; stroke: #b0b0b0; stroke-width: 0.8; stroke-linecap: square"/>
     </g>
     <g id="text_1">
      <!-- 0° -->
      <g transform="translate(318.7625 167.398437) scale(0.1 -0.1)">
       <defs>
        <path id="DejaVuSans-30" d="M 2034 4250 
Q 1547 4250 1301 3770 
Q 1056 3291 1056 2328 
Q 1056 1369 1301 889 
Q 1547 409 2034 409 
Q 2525 409 2770 889 
Q 3016 1369 3016 2328 
Q 3016 3291 2770 3770 
Q 2525 4250 2034 4250 
z
M 2034 4750 
Q 2819 4750 3233 4129 
Q 3647 3509 3647 2328 
Q 3647 1150 3233 529 
Q 2819 -91 2034 -91 
Q 1250 -91 836 529 
Q 422 1150 422 2328 
Q 422 3509 836 4129 
Q 1250 4750 2034 4750 
z
" transform="scale(0.015625)"/>
        <path id="DejaVuSans-b0" d="M 1600 4347 
Q 1350 4347 1178 4173 
Q 1006 4000 1006 3750 
Q 1006 3503 1178 3333 
Q 1350 3163 1600 3163 
Q 1850 3163 2022 3333 
Q 2194 3503 2194 3750 
Q 2194 3997 2020 4172 
Q 1847 4347 1600 4347 
z
M 1600 4750 
Q 1800 4750 1984 4673 
Q 2169 4597 2303 4453 
Q 2447 4313 2519 4134 
Q 2591 3956 2591 3750 
Q 2591 3338 2302 3052 
Q 2013 2766 1594 2766 
Q 1172 2766 890 3047 
Q 609 3328 609 3750 
Q 609 4169 896 4459 
Q 1184 4750 1600 4750 
z
" transform="scale(0.015625)"/>
       </defs>
       <use xlink:href="#DejaVuSans-30"/>
       <use xlink:href="#DejaVuSans-b0" transform="translate(63.623047 0)"/>
      </g>
     </g>
    </g>
    <g id="xtick_2">
     <g id="line2d_2">
      <path d="M 171.84375 164.639062 
L 269.84875 66.634063 
" clip-path="url(#p201751fd00)" style="fill: none; stroke: #b0b0b0; stroke-width: 0.8; stroke-linecap: square"/>
     </g>
     <g id="text_2">
      <!-- 45° -->
      <g transform="translate(270.885745 59.493943) scale(0.1 -0.1)">
       <defs>
        <path id="DejaVuSans-34" d="M 2419 4116 
L 825 1625 
L 2419 1625 
L 2419 4116 
z
M 2253 4666 
L 3047 4666 
L 3047 1625 
L 3713 1625 
L 3713 1100 
L 3047 1100 
L 3047 0 
L 2419 0 
L 2419 1100 
L 313 1100 
L 313 1709 
L 2253 4666 
z
" transform="scale(0.015625)"/>
        <path id="DejaVuSans-35" d="M 691 4666 
L 3169 4666 
L 3169 4134 
L 1269 4134 
L 1269 2991 
Q 1406 3038 1543 3061 
Q 1681 3084 1819 3084 
Q 2600 3084 3056 2656 
Q 3513 2228 3513 1497 
Q 3513 744 3044 326 
Q 2575 -91 1722 -91 
Q 1428 -91 1123 -41 
Q 819 9 494 109 
L 494 744 
Q 775 591 1075 516 
Q 1375 441 1709 441 
Q 2250 441 2565 725 
Q 2881 1009 2881 1497 
Q 2881 1984 2565 2268 
Q 2250 2553 1709 2553 
Q 1456 2553 1204 2497 
Q 953 2441 691 2322 
L 691 4666 
z
" transform="scale(0.015625)"/>
       </defs>
       <use xlink:href="#DejaVuSans-34"/>
       <use xlink:href="#DejaVuSans-35" transform="translate(63.623047 0)"/>
       <use xlink:href="#DejaVuSans-b0" transform="translate(127.246094 0)"/>
      </g>
     </g>
    </g>
    <g id="xtick_3">
     <g id="line2d_3">
      <path d="M 171.84375 164.639062 
L 171.84375 26.039062 
" clip-path="url(#p201751fd00)" style="fill: none; stroke: #b0b0b0; stroke-width: 0.8; stroke-linecap: square"/>
     </g>
     <g id="text_3">
      <!-- 90° -->
      <g transform="translate(162.98125 14.798437) scale(0.1 -0.1)">
       <defs>
        <path id="DejaVuSans-39" d="M 703 97 
L 703 672 
Q 941 559 1184 500 
Q 1428 441 1663 441 
Q 2288 441 2617 861 
Q 2947 1281 2994 2138 
Q 2813 1869 2534 1725 
Q 2256 1581 1919 1581 
Q 1219 1581 811 2004 
Q 403 2428 403 3163 
Q 403 3881 828 4315 
Q 1253 4750 1959 4750 
Q 2769 4750 3195 4129 
Q 3622 3509 3622 2328 
Q 3622 1225 3098 567 
Q 2575 -91 1691 -91 
Q 1453 -91 1209 -44 
Q 966 3 703 97 
z
M 1959 2075 
Q 2384 2075 2632 2365 
Q 2881 2656 2881 3163 
Q 2881 3666 2632 3958 
Q 2384 4250 1959 4250 
Q 1534 4250 1286 3958 
Q 1038 3666 1038 3163 
Q 1038 2656 1286 2365 
Q 1534 2075 1959 2075 
z
" transform="scale(0.015625)"/>
       </defs>
       <use xlink:href="#DejaVuSans-39"/>
       <use xlink:href="#DejaVuSans-30" transform="translate(63.623047 0)"/>
       <use xlink:href="#DejaVuSans-b0" transform="translate(127.246094 0)"/>
      </g>
     </g>
    </g>
    <g id="xtick_4">
     <g id="line2d_4">
      <path d="M 171.84375 164.639062 
L 73.83875 66.634063 
" clip-path="url(#p201751fd00)" style="fill: none; stroke: #b0b0b0; stroke-width: 0.8; stroke-linecap: square"/>
     </g>
     <g id="text_4">
      <!-- 135° -->
      <g transform="translate(51.895505 59.493943) scale(0.1 -0.1)">
       <defs>
        <path id="DejaVuSans-31" d="M 794 531 
L 1825 531 
L 1825 4091 
L 703 3866 
L 703 4441 
L 1819 4666 
L 2450 4666 
L 2450 531 
L 3481 531 
L 3481 0 
L 794 0 
L 794 531 
z
" transform="scale(0.015625)"/>
        <path id="DejaVuSans-33" d="M 2597 2516 
Q 3050 2419 3304 2112 
Q 3559 1806 3559 1356 
Q 3559 666 3084 287 
Q 2609 -91 1734 -91 
Q 1441 -91 1130 -33 
Q 819 25 488 141 
L 488 750 
Q 750 597 1062 519 
Q 1375 441 1716 441 
Q 2309 441 2620 675 
Q 2931 909 2931 1356 
Q 2931 1769 2642 2001 
Q 2353 2234 1838 2234 
L 1294 2234 
L 1294 2753 
L 1863 2753 
Q 2328 2753 2575 2939 
Q 2822 3125 2822 3475 
Q 2822 3834 2567 4026 
Q 2313 4219 1838 4219 
Q 1578 4219 1281 4162 
Q 984 4106 628 3988 
L 628 4550 
Q 988 4650 1302 4700 
Q 1616 4750 1894 4750 
Q 2613 4750 3031 4423 
Q 3450 4097 3450 3541 
Q 3450 3153 3228 2886 
Q 3006 2619 2597 2516 
z
" transform="scale(0.015625)"/>
       </defs>
       <use xlink:href="#DejaVuSans-31"/>
       <use xlink:href="#DejaVuSans-33" transform="translate(63.623047 0)"/>
       <use xlink:href="#DejaVuSans-35" transform="translate(127.246094 0)"/>
       <use xlink:href="#DejaVuSans-b0" transform="translate(190.869141 0)"/>
      </g>
     </g>
    </g>
    <g id="xtick_5">
     <g id="line2d_5">
      <path d="M 171.84375 164.639062 
L 33.24375 164.639062 
" clip-path="url(#p201751fd00)" style="fill: none; stroke: #b0b0b0; stroke-width: 0.8; stroke-linecap: square"/>
     </g>
     <g id="text_5">
      <!-- 180° -->
      <g transform="translate(7.2 167.398437) scale(0.1 -0.1)">
       <defs>
        <path id="DejaVuSans-38" d="M 2034 2216 
Q 1584 2216 1326 1975 
Q 1069 1734 1069 1313 
Q 1069 891 1326 650 
Q 1584 409 2034 409 
Q 2484 409 2743 651 
Q 3003 894 3003 1313 
Q 3003 1734 2745 1975 
Q 2488 2216 2034 2216 
z
M 1403 2484 
Q 997 2584 770 2862 
Q 544 3141 544 3541 
Q 544 4100 942 4425 
Q 1341 4750 2034 4750 
Q 2731 4750 3128 4425 
Q 3525 4100 3525 3541 
Q 3525 3141 3298 2862 
Q 3072 2584 2669 2484 
Q 3125 2378 3379 2068 
Q 3634 1759 3634 1313 
Q 3634 634 3220 271 
Q 2806 -91 2034 -91 
Q 1263 -91 848 271 
Q 434 634 434 1313 
Q 434 1759 690 2068 
Q 947 2378 1403 2484 
z
M 1172 3481 
Q 1172 3119 1398 2916 
Q 1625 2713 2034 2713 
Q 2441 2713 2670 2916 
Q 2900 3119 2900 3481 
Q 2900 3844 2670 4047 
Q 2441 4250 2034 4250 
Q 1625 4250 1398 4047 
Q 1172 3844 1172 3481 
z
" transform="scale(0.015625)"/>
       </defs>
       <use xlink:href="#DejaVuSans-31"/>
       <use xlink:href="#DejaVuSans-38" transform="translate(63.623047 0)"/>
       <use xlink:href="#DejaVuSans-30" transform="translate(127.246094 0)"/>
       <use xlink:href="#DejaVuSans-b0" transform="translate(190.869141 0)"/>
      </g>
     </g>
    </g>
    <g id="xtick_6">
     <g id="line2d_6">
      <path d="M 171.84375 164.639062 
L 73.83875 262.644062 
" clip-path="url(#p201751fd00)" style="fill: none; stroke: #b0b0b0; stroke-width: 0.8; stroke-linecap: square"/>
     </g>
     <g id="text_6">
      <!-- 225° -->
      <g transform="translate(51.895505 275.302932) scale(0.1 -0.1)">
       <defs>
        <path id="DejaVuSans-32" d="M 1228 531 
L 3431 531 
L 3431 0 
L 469 0 
L 469 531 
Q 828 903 1448 1529 
Q 2069 2156 2228 2338 
Q 2531 2678 2651 2914 
Q 2772 3150 2772 3378 
Q 2772 3750 2511 3984 
Q 2250 4219 1831 4219 
Q 1534 4219 1204 4116 
Q 875 4013 500 3803 
L 500 4441 
Q 881 4594 1212 4672 
Q 1544 4750 1819 4750 
Q 2544 4750 2975 4387 
Q 3406 4025 3406 3419 
Q 3406 3131 3298 2873 
Q 3191 2616 2906 2266 
Q 2828 2175 2409 1742 
Q 1991 1309 1228 531 
z
" transform="scale(0.015625)"/>
       </defs>
       <use xlink:href="#DejaVuSans-32"/>
       <use xlink:href="#DejaVuSans-32" transform="translate(63.623047 0)"/>
       <use xlink:href="#DejaVuSans-35" transform="translate(127.246094 0)"/>
       <use xlink:href="#DejaVuSans-b0" transform="translate(190.869141 0)"/>
      </g>
     </g>
    </g>
    <g id="xtick_7">
     <g id="line2d_7">
      <path d="M 171.84375 164.639062 
L 171.84375 303.239062 
" clip-path="url(#p201751fd00)" style="fill: none; stroke: #b0b0b0; stroke-width: 0.8; stroke-linecap: square"/>
     </g>
     <g id="text_7">
      <!-- 270° -->
      <g transform="translate(159.8 319.998437) scale(0.1 -0.1)">
       <defs>
        <path id="DejaVuSans-37" d="M 525 4666 
L 3525 4666 
L 3525 4397 
L 1831 0 
L 1172 0 
L 2766 4134 
L 525 4134 
L 525 4666 
z
" transform="scale(0.015625)"/>
       </defs>
       <use xlink:href="#DejaVuSans-32"/>
       <use xlink:href="#DejaVuSans-37" transform="translate(63.623047 0)"/>
       <use xlink:href="#DejaVuSans-30" transform="translate(127.246094 0)"/>
       <use xlink:href="#DejaVuSans-b0" transform="translate(190.869141 0)"/>
      </g>
     </g>
    </g>
    <g id="xtick_8">
     <g id="line2d_8">
      <path d="M 171.84375 164.639062 
L 269.84875 262.644062 
" clip-path="url(#p201751fd00)" style="fill: none; stroke: #b0b0b0; stroke-width: 0.8; stroke-linecap: square"/>
     </g>
     <g id="text_8">
      <!-- 315° -->
      <g transform="translate(267.704495 275.302932) scale(0.1 -0.1)">
       <use xlink:href="#DejaVuSans-33"/>
       <use xlink:href="#DejaVuSans-31" transform="translate(63.623047 0)"/>
       <use xlink:href="#DejaVuSans-35" transform="translate(127.246094 0)"/>
       <use xlink:href="#DejaVuSans-b0" transform="translate(190.869141 0)"/>
      </g>
     </g>
    </g>
   </g>
   <g id="matplotlib.axis_2">
    <g id="ytick_1">
     <g id="line2d_9">
      <path d="M 206.49375 164.639062 
C 206.49375 160.088866 205.597461 155.582915 203.856176 151.379082 
C 202.114891 147.175248 199.562475 143.355287 196.345 140.137813 
C 193.127525 136.920338 189.307564 134.367921 185.103731 132.626637 
C 180.899898 130.885352 176.393946 129.989062 171.84375 129.989062 
C 167.293554 129.989062 162.787602 130.885352 158.583769 132.626637 
C 154.379936 134.367921 150.559975 136.920338 147.3425 140.137813 
C 144.125025 143.355287 141.572609 147.175248 139.831324 151.379082 
C 138.090039 155.582915 137.19375 160.088866 137.19375 164.639062 
C 137.19375 169.189259 138.090039 173.69521 139.831324 177.899043 
C 141.572609 182.102877 144.125025 185.922838 147.3425 189.140312 
C 150.559975 192.357787 154.379936 194.910204 158.583769 196.651488 
C 162.787602 198.392773 167.293554 199.289062 171.84375 199.289062 
C 176.393946 199.289062 180.899898 198.392773 185.103731 196.651488 
C 189.307564 194.910204 193.127525 192.357787 196.345 189.140312 
C 199.562475 185.922838 202.114891 182.102877 203.856176 177.899043 
C 205.597461 173.69521 206.49375 169.189259 206.49375 164.639062 
" clip-path="url(#p201751fd00)" style="fill: none; stroke: #b0b0b0; stroke-width: 0.8; stroke-linecap: square"/>
     </g>
     <g id="text_9">
      <!-- 0.5 -->
      <g transform="translate(203.856176 175.819356) scale(0.1 -0.1)">
       <defs>
        <path id="DejaVuSans-2e" d="M 684 794 
L 1344 794 
L 1344 0 
L 684 0 
L 684 794 
z
" transform="scale(0.015625)"/>
       </defs>
       <use xlink:href="#DejaVuSans-30"/>
       <use xlink:href="#DejaVuSans-2e" transform="translate(63.623047 0)"/>
       <use xlink:href="#DejaVuSans-35" transform="translate(95.410156 0)"/>
      </g>
     </g>
    </g>
    <g id="ytick_2">
     <g id="line2d_10">
      <path d="M 241.14375 164.639062 
C 241.14375 155.53867 239.351171 146.526767 235.868602 138.119101 
C 232.386032 129.711434 227.281199 122.071512 220.84625 115.636563 
C 214.411301 109.201613 206.771378 104.09678 198.363712 100.614211 
C 189.956045 97.131641 180.944143 95.339062 171.84375 95.339062 
C 162.743357 95.339062 153.731455 97.131641 145.323788 100.614211 
C 136.916122 104.09678 129.276199 109.201613 122.84125 115.636563 
C 116.406301 122.071512 111.301468 129.711434 107.818898 138.119101 
C 104.336329 146.526767 102.54375 155.53867 102.54375 164.639062 
C 102.54375 173.739455 104.336329 182.751358 107.818898 191.159024 
C 111.301468 199.566691 116.406301 207.206613 122.84125 213.641562 
C 129.276199 220.076512 136.916122 225.181345 145.323788 228.663914 
C 153.731455 232.146484 162.743357 233.939062 171.84375 233.939062 
C 180.944143 233.939062 189.956045 232.146484 198.363712 228.663914 
C 206.771378 225.181345 214.411301 220.076512 220.84625 213.641562 
C 227.281199 207.206613 232.386032 199.566691 235.868602 191.159024 
C 239.351171 182.751358 241.14375 173.739455 241.14375 164.639062 
" clip-path="url(#p201751fd00)" style="fill: none; stroke: #b0b0b0; stroke-width: 0.8; stroke-linecap: square"/>
     </g>
     <g id="text_10">
      <!-- 1.0 -->
      <g transform="translate(235.868602 189.079337) scale(0.1 -0.1)">
       <use xlink:href="#DejaVuSans-31"/>
       <use xlink:href="#DejaVuSans-2e" transform="translate(63.623047 0)"/>
       <use xlink:href="#DejaVuSans-30" transform="translate(95.410156 0)"/>
      </g>
     </g>
    </g>
    <g id="ytick_3">
     <g id="line2d_11">
      <path d="M 275.79375 164.639062 
C 275.79375 150.988474 273.104882 137.470619 267.881027 124.85912 
C 262.657173 112.24762 254.999924 100.787737 245.3475 91.135313 
C 235.695076 81.482889 224.235193 73.825639 211.623693 68.601785 
C 199.012193 63.377931 185.494339 60.689062 171.84375 60.689062 
C 158.193161 60.689062 144.675307 63.377931 132.063807 68.601785 
C 119.452307 73.825639 107.992424 81.482889 98.34 91.135313 
C 88.687576 100.787737 81.030327 112.24762 75.806473 124.85912 
C 70.582618 137.470619 67.89375 150.988474 67.89375 164.639062 
C 67.89375 178.289651 70.582618 191.807506 75.806473 204.419005 
C 81.030327 217.030505 88.687576 228.490388 98.34 238.142812 
C 107.992424 247.795236 119.452307 255.452486 132.063807 260.67634 
C 144.675307 265.900194 158.193161 268.589062 171.84375 268.589062 
C 185.494339 268.589062 199.012193 265.900194 211.623693 260.67634 
C 224.235193 255.452486 235.695076 247.795236 245.3475 238.142812 
C 254.999924 228.490388 262.657173 217.030505 267.881027 204.419005 
C 273.104882 191.807506 275.79375 178.289651 275.79375 164.639062 
" clip-path="url(#p201751fd00)" style="fill: none; stroke: #b0b0b0; stroke-width: 0.8; stroke-linecap: square"/>
     </g>
     <g id="text_11">
      <!-- 1.5 -->
      <g transform="translate(267.881027 202.339318) scale(0.1 -0.1)">
       <use xlink:href="#DejaVuSans-31"/>
       <use xlink:href="#DejaVuSans-2e" transform="translate(63.623047 0)"/>
       <use xlink:href="#DejaVuSans-35" transform="translate(95.410156 0)"/>
      </g>
     </g>
    </g>
    <g id="ytick_4">
     <g id="line2d_12">
      <path d="M 310.44375 164.639062 
C 310.44375 146.438277 306.858592 128.414472 299.893453 111.599139 
C 292.928314 94.783806 282.718649 79.503961 269.84875 66.634063 
C 256.978851 53.764164 241.699007 43.554498 224.883674 36.589359 
C 208.068341 29.62422 190.044535 26.039062 171.84375 26.039062 
C 153.642965 26.039062 135.619159 29.62422 118.803826 36.589359 
C 101.988493 43.554498 86.708649 53.764164 73.83875 66.634063 
C 60.968851 79.503961 50.759186 94.783806 43.794047 111.599139 
C 36.828908 128.414472 33.24375 146.438277 33.24375 164.639062 
C 33.24375 182.839848 36.828908 200.863653 43.794047 217.678986 
C 50.759186 234.494319 60.968851 249.774164 73.83875 262.644062 
C 86.708649 275.513961 101.988493 285.723627 118.803826 292.688766 
C 135.619159 299.653905 153.642965 303.239062 171.84375 303.239062 
C 190.044535 303.239062 208.068341 299.653905 224.883674 292.688766 
C 241.699007 285.723627 256.978851 275.513961 269.84875 262.644062 
C 282.718649 249.774164 292.928314 234.494319 299.893453 217.678986 
C 306.858592 200.863653 310.44375 182.839848 310.44375 164.639062 
" clip-path="url(#p201751fd00)" style="fill: none; stroke: #b0b0b0; stroke-width: 0.8; stroke-linecap: square"/>
     </g>
     <g id="text_12">
      <!-- 2.0 -->
      <g transform="translate(299.893453 215.599299) scale(0.1 -0.1)">
       <use xlink:href="#DejaVuSans-32"/>
       <use xlink:href="#DejaVuSans-2e" transform="translate(63.623047 0)"/>
       <use xlink:href="#DejaVuSans-30" transform="translate(95.410156 0)"/>
      </g>
     </g>
    </g>
   </g>
   <g id="line2d_13">
    <path d="M 171.84375 164.639062 
L 173.218821 164.465351 
L 174.528663 163.949694 
L 175.709761 163.108401 
L 176.701994 161.96822 
L 177.450238 160.565711 
L 177.905853 158.946369 
L 178.028038 157.163543 
L 177.784998 155.277154 
L 177.154921 153.35225 
L 176.126726 151.457419 
L 174.700566 149.663111 
L 172.888082 148.039882 
L 170.71239 146.656617 
L 168.207803 145.578761 
L 166.845829 145.173447 
L 165.419287 144.866598 
L 163.93533 144.664674 
L 162.401668 144.573618 
L 160.826525 144.598805 
L 159.218599 144.745008 
L 157.587019 145.016355 
L 155.941296 145.416298 
L 154.291278 145.947578 
L 152.64709 146.612199 
L 151.019089 147.411404 
L 149.417799 148.345655 
L 147.853861 149.414616 
L 146.337968 150.61714 
L 144.880809 151.951265 
L 143.493005 153.414209 
L 142.185053 155.002368 
L 140.967256 156.711326 
L 139.849672 158.535866 
L 138.842047 160.469978 
L 137.953756 162.506885 
L 137.19375 164.639062 
L 136.570491 166.858268 
L 136.091905 169.155571 
L 135.765322 171.521391 
L 135.597431 173.945535 
L 135.594231 176.417245 
L 135.760984 178.92524 
L 136.102177 181.45777 
L 136.621479 184.00267 
L 137.321714 186.547413 
L 138.204823 189.079173 
L 139.271844 191.584887 
L 140.522884 194.051313 
L 141.957108 196.465104 
L 143.572721 198.812866 
L 145.366963 201.081233 
L 147.336104 203.256933 
L 149.475445 205.326858 
L 151.779327 207.278133 
L 154.241138 209.098185 
L 156.853336 210.774814 
L 159.607461 212.29626 
L 162.494172 213.651267 
L 165.503267 214.829153 
L 168.623727 215.819869 
L 171.84375 216.614062 
L 175.150801 217.203134 
L 178.531657 217.579295 
L 181.97246 217.735618 
L 185.458775 217.666085 
L 188.975652 217.365636 
L 192.507686 216.830206 
L 196.039084 216.056765 
L 199.55374 215.043346 
L 203.035299 213.78908 
L 206.46724 212.294209 
L 209.832945 210.560111 
L 213.11578 208.58931 
L 216.299173 206.385483 
L 219.366695 203.953462 
L 222.30214 201.299229 
L 225.089602 198.429908 
L 227.713559 195.35375 
L 230.158949 192.080112 
L 232.41125 188.619432 
L 234.456556 184.983196 
L 236.281651 181.183903 
L 237.874081 177.235022 
L 239.222228 173.150944 
L 240.31537 168.946932 
L 241.14375 164.639062 
L 241.698635 160.244166 
L 241.97237 155.779758 
L 241.958432 151.263972 
L 241.651476 146.715485 
L 241.047377 142.153441 
L 240.143271 137.597369 
L 238.937581 133.067102 
L 237.430047 128.582691 
L 235.621749 124.164314 
L 233.515115 119.832193 
L 231.11394 115.606497 
L 228.423379 111.507254 
L 225.449949 107.554258 
L 222.20152 103.766975 
L 218.687296 100.164453 
L 214.917794 96.765229 
L 210.90482 93.587241 
L 206.661426 90.647735 
L 202.201877 87.963185 
L 197.541603 85.549203 
L 192.697143 83.420459 
L 187.686091 81.590605 
L 182.527029 80.072197 
L 177.239465 78.87663 
L 171.84375 78.014062 
L 166.361007 77.493365 
L 160.813047 77.322056 
L 155.222278 77.506254 
L 149.61162 78.050634 
L 144.004409 78.958381 
L 138.424299 80.231164 
L 132.895164 81.869103 
L 127.440996 83.870752 
L 122.085802 86.233083 
L 116.853501 88.951478 
L 111.767814 92.01973 
L 106.852163 95.430052 
L 102.129564 99.173085 
L 97.622521 103.237922 
L 93.352921 107.612137 
L 89.341935 112.281819 
L 85.609915 117.23161 
L 82.176294 122.44476 
L 79.059495 127.903177 
L 76.276836 133.58749 
L 73.844443 139.477117 
L 71.777165 145.550341 
L 70.088498 151.784385 
L 68.790504 158.155502 
L 67.89375 164.639062 
L 67.407239 171.209651 
L 67.338356 177.841164 
L 67.692815 184.506916 
L 68.474618 191.179745 
L 69.686014 197.832123 
L 71.327474 204.436272 
L 73.397662 210.964275 
L 75.893426 217.388199 
L 78.809789 223.68021 
L 82.139946 229.812691 
L 85.875276 235.758369 
L 90.005358 241.490428 
L 94.517993 246.98263 
L 99.399239 252.209434 
L 104.633445 257.146111 
L 110.203307 261.768858 
L 116.089916 266.054911 
L 122.272822 269.982647 
L 128.730107 273.531695 
L 135.438458 276.683031 
L 142.373252 279.419073 
L 149.508647 281.723774 
L 156.817674 283.582702 
L 164.272344 284.983121 
L 171.84375 285.914062 
L 179.502184 286.366387 
L 187.21725 286.332844 
L 194.957985 285.808124 
L 202.692984 284.788898 
L 210.39053 283.273852 
L 218.018717 281.263716 
L 225.545589 278.761279 
L 232.939269 275.771399 
L 240.168096 272.301005 
L 247.200758 268.359086 
L 254.006427 263.956678 
L 260.554894 259.106836 
L 266.816699 253.824598 
L 272.763263 248.126944 
L 278.367018 242.032747 
L 283.601527 235.562705 
L 288.441612 228.739279 
L 292.863463 221.586617 
L 296.84476 214.130464 
L 300.364772 206.398074 
L 303.404464 198.418112 
L 305.946588 190.220547 
L 307.975777 181.836537 
L 309.478622 173.298315 
L 309.478622 173.298315 
" clip-path="url(#p201751fd00)" style="fill: none; stroke: #1f77b4; stroke-width: 1.5; stroke-linecap: square"/>
   </g>
   <g id="patch_3">
    <path d="M 310.44375 164.639062 
C 310.44375 146.438277 306.858592 128.414472 299.893453 111.599139 
C 292.928314 94.783806 282.718649 79.503961 269.84875 66.634063 
C 256.978851 53.764164 241.699007 43.554498 224.883674 36.589359 
C 208.068341 29.62422 190.044535 26.039062 171.84375 26.039062 
C 153.642965 26.039062 135.619159 29.62422 118.803826 36.589359 
C 101.988493 43.554498 86.708649 53.764164 73.83875 66.634063 
C 60.968851 79.503961 50.759186 94.783806 43.794047 111.599139 
C 36.828908 128.414472 33.24375 146.438277 33.24375 164.639062 
C 33.24375 182.839848 36.828908 200.863653 43.794047 217.678986 
C 50.759186 234.494319 60.968851 249.774164 73.83875 262.644062 
C 86.708649 275.513961 101.988493 285.723627 118.803826 292.688766 
C 135.619159 299.653905 153.642965 303.239062 171.84375 303.239062 
C 190.044535 303.239062 208.068341 299.653905 224.883674 292.688766 
C 241.699007 285.723627 256.978851 275.513961 269.84875 262.644062 
C 282.718649 249.774164 292.928314 234.494319 299.893453 217.678986 
C 306.858592 200.863653 310.44375 182.839848 310.44375 164.639062 
" style="fill: none; stroke: #000000; stroke-width: 0.8; stroke-linejoin: miter; stroke-linecap: square"/>
   </g>
  </g>
 </g>
 <defs>
  <clipPath id="p201751fd00">
   <path d="M 310.44375 164.639062 
C 310.44375 146.438277 306.858592 128.414472 299.893453 111.599139 
C 292.928314 94.783806 282.718649 79.503961 269.84875 66.634063 
C 256.978851 53.764164 241.699007 43.554498 224.883674 36.589359 
C 208.068341 29.62422 190.044535 26.039062 171.84375 26.039062 
C 153.642965 26.039062 135.619159 29.62422 118.803826 36.589359 
C 101.988493 43.554498 86.708649 53.764164 73.83875 66.634063 
C 60.968851 79.503961 50.759186 94.783806 43.794047 111.599139 
C 36.828908 128.414472 33.24375 146.438277 33.24375 164.639062 
C 33.24375 182.839848 36.828908 200.863653 43.794047 217.678986 
C 50.759186 234.494319 60.968851 249.774164 73.83875 262.644062 
C 86.708649 275.513961 101.988493 285.723627 118.803826 292.688766 
C 135.619159 299.653905 153.642965 303.239062 171.84375 303.239062 
C 190.044535 303.239062 208.068341 299.653905 224.883674 292.688766 
C 241.699007 285.723627 256.978851 275.513961 269.84875 262.644062 
C 282.718649 249.774164 292.928314 234.494319 299.893453 217.678986 
C 306.858592 200.863653 310.44375 182.839848 310.44375 164.639062 
M 171.84375 164.639062 
C 171.84375 164.639062 171.84375 164.639062 171.84375 164.639062 
C 171.84375 164.639062 171.84375 164.639062 171.84375 164.639062 
C 171.84375 164.639062 171.84375 164.639062 171.84375 164.639062 
C 171.84375 164.639062 171.84375 164.639062 171.84375 164.639062 
C 171.84375 164.639062 171.84375 164.639062 171.84375 164.639062 
C 171.84375 164.639062 171.84375 164.639062 171.84375 164.639062 
C 171.84375 164.639062 171.84375 164.639062 171.84375 164.639062 
C 171.84375 164.639062 171.84375 164.639062 171.84375 164.639062 
C 171.84375 164.639062 171.84375 164.639062 171.84375 164.639062 
C 171.84375 164.639062 171.84375 164.639062 171.84375 164.639062 
C 171.84375 164.639062 171.84375 164.639062 171.84375 164.639062 
C 171.84375 164.639062 171.84375 164.639062 171.84375 164.639062 
C 171.84375 164.639062 171.84375 164.639062 171.84375 164.639062 
C 171.84375 164.639062 171.84375 164.639062 171.84375 164.639062 
C 171.84375 164.639062 171.84375 164.639062 171.84375 164.639062 
C 171.84375 164.639062 171.84375 164.639062 171.84375 164.639062 
z
"/>
  </clipPath>
 </defs>
</svg>
