<?xml version="1.0" encoding="utf-8" standalone="no"?>
<!DOCTYPE svg PUBLIC "-//W3C//DTD SVG 1.1//EN"
  "http://www.w3.org/Graphics/SVG/1.1/DTD/svg11.dtd">
<svg xmlns:xlink="http://www.w3.org/1999/xlink" width="316.860156pt" height="314.340574pt" viewBox="0 0 316.860156 314.340574" xmlns="http://www.w3.org/2000/svg" version="1.1">
 <metadata>
  <rdf:RDF xmlns:dc="http://purl.org/dc/elements/1.1/" xmlns:cc="http://creativecommons.org/ns#" xmlns:rdf="http://www.w3.org/1999/02/22-rdf-syntax-ns#">
   <cc:Work>
    <dc:type rdf:resource="http://purl.org/dc/dcmitype/StillImage"/>
    <dc:date>2025-08-01T22:17:55.547812</dc:date>
    <dc:format>image/svg+xml</dc:format>
    <dc:creator>
     <cc:Agent>
      <dc:title>Matplotlib v3.10.0, https://matplotlib.org/</dc:title>
     </cc:Agent>
    </dc:creator>
   </cc:Work>
  </rdf:RDF>
 </metadata>
 <defs>
  <style type="text/css">*{stroke-linejoin: round; stroke-linecap: butt}</style>
 </defs>
 <g id="figure_1">
  <g id="patch_1">
   <path d="M 0 314.340574 
L 316.860156 314.340574 
L 316.860156 0 
L 0 0 
z
" style="fill: #ffffff"/>
  </g>
  <g id="axes_1">
   <g id="patch_2">
    <path d="M 284.4 157.170287 
C 284.4 138.969502 280.814842 120.945696 273.849703 104.130363 
C 266.884564 87.31503 256.674899 72.035186 243.805 59.165287 
C 230.935101 46.295388 215.655257 36.085723 198.839924 29.120584 
C 182.024591 22.155445 164.000785 18.570287 145.8 18.570287 
C 127.599215 18.570287 109.575409 22.155445 92.760076 29.120584 
C 75.944743 36.085723 60.664899 46.295388 47.795 59.165287 
C 34.925101 72.035186 24.715436 87.31503 17.750297 104.130363 
C 10.785158 120.945696 7.2 138.969502 7.2 157.170287 
C 7.2 175.371072 10.785158 193.394878 17.750297 210.210211 
C 24.715436 227.025544 34.925101 242.305388 47.795 255.175287 
C 60.664899 268.045185 75.944743 278.254851 92.760076 285.21999 
C 109.575409 292.185129 127.599215 295.770287 145.8 295.770287 
C 164.000785 295.770287 182.024591 292.185129 198.839924 285.21999 
C 215.655257 278.254851 230.935101 268.045185 243.805 255.175287 
C 256.674899 242.305388 266.884564 227.025544 273.849703 210.210211 
C 280.814842 193.394878 284.4 175.371072 284.4 157.170287 
M 145.8 157.170287 
C 145.8 157.170287 145.8 157.170287 145.8 157.170287 
C 145.8 157.170287 145.8 157.170287 145.8 157.170287 
C 145.8 157.170287 145.8 157.170287 145.8 157.170287 
C 145.8 157.170287 145.8 157.170287 145.8 157.170287 
C 145.8 157.170287 145.8 157.170287 145.8 157.170287 
C 145.8 157.170287 145.8 157.170287 145.8 157.170287 
C 145.8 157.170287 145.8 157.170287 145.8 157.170287 
C 145.8 157.170287 145.8 157.170287 145.8 157.170287 
C 145.8 157.170287 145.8 157.170287 145.8 157.170287 
C 145.8 157.170287 145.8 157.170287 145.8 157.170287 
C 145.8 157.170287 145.8 157.170287 145.8 157.170287 
C 145.8 157.170287 145.8 157.170287 145.8 157.170287 
C 145.8 157.170287 145.8 157.170287 145.8 157.170287 
C 145.8 157.170287 145.8 157.170287 145.8 157.170287 
C 145.8 157.170287 145.8 157.170287 145.8 157.170287 
C 145.8 157.170287 145.8 157.170287 145.8 157.170287 
z
" style="fill: #ffffff"/>
   </g>
   <g id="patch_3">
    <path d="M 206.263087 157.170287 
L 187.479963 28.89255 
L 44.205926 83.357872 
L 93.121591 195.443391 
L 174.544802 245.637692 
z
" clip-path="url(#p858659d5f2)" style="fill: #0000ff; opacity: 0.1"/>
   </g>
   <g id="matplotlib.axis_1">
    <g id="xtick_1">
     <g id="line2d_1">
      <path d="M 145.8 157.170287 
L 284.4 157.170287 
" clip-path="url(#p858659d5f2)" style="fill: none; stroke: #b0b0b0; stroke-width: 0.8; stroke-linecap: square"/>
     </g>
     <g id="text_1">
      <!-- var1 -->
      <g transform="translate(287.139844 159.929662) scale(0.1 -0.1)">
       <defs>
        <path id="DejaVuSans-76" d="M 191 3500 
L 800 3500 
L 1894 563 
L 2988 3500 
L 3597 3500 
L 2284 0 
L 1503 0 
L 191 3500 
z
" transform="scale(0.015625)"/>
        <path id="DejaVuSans-61" d="M 2194 1759 
Q 1497 1759 1228 1600 
Q 959 1441 959 1056 
Q 959 750 1161 570 
Q 1363 391 1709 391 
Q 2188 391 2477 730 
Q 2766 1069 2766 1631 
L 2766 1759 
L 2194 1759 
z
M 3341 1997 
L 3341 0 
L 2766 0 
L 2766 531 
Q 2569 213 2275 61 
Q 1981 -91 1556 -91 
Q 1019 -91 701 211 
Q 384 513 384 1019 
Q 384 1609 779 1909 
Q 1175 2209 1959 2209 
L 2766 2209 
L 2766 2266 
Q 2766 2663 2505 2880 
Q 2244 3097 1772 3097 
Q 1472 3097 1187 3025 
Q 903 2953 641 2809 
L 641 3341 
Q 956 3463 1253 3523 
Q 1550 3584 1831 3584 
Q 2591 3584 2966 3190 
Q 3341 2797 3341 1997 
z
" transform="scale(0.015625)"/>
        <path id="DejaVuSans-72" d="M 2631 2963 
Q 2534 3019 2420 3045 
Q 2306 3072 2169 3072 
Q 1681 3072 1420 2755 
Q 1159 2438 1159 1844 
L 1159 0 
L 581 0 
L 581 3500 
L 1159 3500 
L 1159 2956 
Q 1341 3275 1631 3429 
Q 1922 3584 2338 3584 
Q 2397 3584 2469 3576 
Q 2541 3569 2628 3553 
L 2631 2963 
z
" transform="scale(0.015625)"/>
        <path id="DejaVuSans-31" d="M 794 531 
L 1825 531 
L 1825 4091 
L 703 3866 
L 703 4441 
L 1819 4666 
L 2450 4666 
L 2450 531 
L 3481 531 
L 3481 0 
L 794 0 
L 794 531 
z
" transform="scale(0.015625)"/>
       </defs>
       <use xlink:href="#DejaVuSans-76"/>
       <use xlink:href="#DejaVuSans-61" transform="translate(59.179688 0)"/>
       <use xlink:href="#DejaVuSans-72" transform="translate(120.458984 0)"/>
       <use xlink:href="#DejaVuSans-31" transform="translate(161.572266 0)"/>
      </g>
     </g>
    </g>
    <g id="xtick_2">
     <g id="line2d_2">
      <path d="M 145.8 157.170287 
L 188.629755 25.353854 
" clip-path="url(#p858659d5f2)" style="fill: none; stroke: #b0b0b0; stroke-width: 0.8; stroke-linecap: square"/>
     </g>
     <g id="text_2">
      <!-- var2 -->
      <g transform="translate(181.695837 14.798438) scale(0.1 -0.1)">
       <defs>
        <path id="DejaVuSans-32" d="M 1228 531 
L 3431 531 
L 3431 0 
L 469 0 
L 469 531 
Q 828 903 1448 1529 
Q 2069 2156 2228 2338 
Q 2531 2678 2651 2914 
Q 2772 3150 2772 3378 
Q 2772 3750 2511 3984 
Q 2250 4219 1831 4219 
Q 1534 4219 1204 4116 
Q 875 4013 500 3803 
L 500 4441 
Q 881 4594 1212 4672 
Q 1544 4750 1819 4750 
Q 2544 4750 2975 4387 
Q 3406 4025 3406 3419 
Q 3406 3131 3298 2873 
Q 3191 2616 2906 2266 
Q 2828 2175 2409 1742 
Q 1991 1309 1228 531 
z
" transform="scale(0.015625)"/>
       </defs>
       <use xlink:href="#DejaVuSans-76"/>
       <use xlink:href="#DejaVuSans-61" transform="translate(59.179688 0)"/>
       <use xlink:href="#DejaVuSans-72" transform="translate(120.458984 0)"/>
       <use xlink:href="#DejaVuSans-32" transform="translate(161.572266 0)"/>
      </g>
     </g>
    </g>
    <g id="xtick_3">
     <g id="line2d_3">
      <path d="M 145.8 157.170287 
L 33.670245 75.703251 
" clip-path="url(#p858659d5f2)" style="fill: none; stroke: #b0b0b0; stroke-width: 0.8; stroke-linecap: square"/>
     </g>
     <g id="text_3">
      <!-- var3 -->
      <g transform="translate(11.08385 70.233632) scale(0.1 -0.1)">
       <defs>
        <path id="DejaVuSans-33" d="M 2597 2516 
Q 3050 2419 3304 2112 
Q 3559 1806 3559 1356 
Q 3559 666 3084 287 
Q 2609 -91 1734 -91 
Q 1441 -91 1130 -33 
Q 819 25 488 141 
L 488 750 
Q 750 597 1062 519 
Q 1375 441 1716 441 
Q 2309 441 2620 675 
Q 2931 909 2931 1356 
Q 2931 1769 2642 2001 
Q 2353 2234 1838 2234 
L 1294 2234 
L 1294 2753 
L 1863 2753 
Q 2328 2753 2575 2939 
Q 2822 3125 2822 3475 
Q 2822 3834 2567 4026 
Q 2313 4219 1838 4219 
Q 1578 4219 1281 4162 
Q 984 4106 628 3988 
L 628 4550 
Q 988 4650 1302 4700 
Q 1616 4750 1894 4750 
Q 2613 4750 3031 4423 
Q 3450 4097 3450 3541 
Q 3450 3153 3228 2886 
Q 3006 2619 2597 2516 
z
" transform="scale(0.015625)"/>
       </defs>
       <use xlink:href="#DejaVuSans-76"/>
       <use xlink:href="#DejaVuSans-61" transform="translate(59.179688 0)"/>
       <use xlink:href="#DejaVuSans-72" transform="translate(120.458984 0)"/>
       <use xlink:href="#DejaVuSans-33" transform="translate(161.572266 0)"/>
      </g>
     </g>
    </g>
    <g id="xtick_4">
     <g id="line2d_4">
      <path d="M 145.8 157.170287 
L 33.670245 238.637323 
" clip-path="url(#p858659d5f2)" style="fill: none; stroke: #b0b0b0; stroke-width: 0.8; stroke-linecap: square"/>
     </g>
     <g id="text_4">
      <!-- var4 -->
      <g transform="translate(11.08385 249.625691) scale(0.1 -0.1)">
       <defs>
        <path id="DejaVuSans-34" d="M 2419 4116 
L 825 1625 
L 2419 1625 
L 2419 4116 
z
M 2253 4666 
L 3047 4666 
L 3047 1625 
L 3713 1625 
L 3713 1100 
L 3047 1100 
L 3047 0 
L 2419 0 
L 2419 1100 
L 313 1100 
L 313 1709 
L 2253 4666 
z
" transform="scale(0.015625)"/>
       </defs>
       <use xlink:href="#DejaVuSans-76"/>
       <use xlink:href="#DejaVuSans-61" transform="translate(59.179688 0)"/>
       <use xlink:href="#DejaVuSans-72" transform="translate(120.458984 0)"/>
       <use xlink:href="#DejaVuSans-34" transform="translate(161.572266 0)"/>
      </g>
     </g>
    </g>
    <g id="xtick_5">
     <g id="line2d_5">
      <path d="M 145.8 157.170287 
L 188.629755 288.98672 
" clip-path="url(#p858659d5f2)" style="fill: none; stroke: #b0b0b0; stroke-width: 0.8; stroke-linecap: square"/>
     </g>
     <g id="text_5">
      <!-- var5 -->
      <g transform="translate(181.695837 305.060886) scale(0.1 -0.1)">
       <defs>
        <path id="DejaVuSans-35" d="M 691 4666 
L 3169 4666 
L 3169 4134 
L 1269 4134 
L 1269 2991 
Q 1406 3038 1543 3061 
Q 1681 3084 1819 3084 
Q 2600 3084 3056 2656 
Q 3513 2228 3513 1497 
Q 3513 744 3044 326 
Q 2575 -91 1722 -91 
Q 1428 -91 1123 -41 
Q 819 9 494 109 
L 494 744 
Q 775 591 1075 516 
Q 1375 441 1709 441 
Q 2250 441 2565 725 
Q 2881 1009 2881 1497 
Q 2881 1984 2565 2268 
Q 2250 2553 1709 2553 
Q 1456 2553 1204 2497 
Q 953 2441 691 2322 
L 691 4666 
z
" transform="scale(0.015625)"/>
       </defs>
       <use xlink:href="#DejaVuSans-76"/>
       <use xlink:href="#DejaVuSans-61" transform="translate(59.179688 0)"/>
       <use xlink:href="#DejaVuSans-72" transform="translate(120.458984 0)"/>
       <use xlink:href="#DejaVuSans-35" transform="translate(161.572266 0)"/>
      </g>
     </g>
    </g>
   </g>
   <g id="matplotlib.axis_2">
    <g id="ytick_1">
     <g id="line2d_6">
      <path d="M 169.055034 157.170287 
C 169.055034 154.116464 168.453497 151.092335 167.28485 148.270971 
C 166.116202 145.449606 164.403171 142.885874 162.243792 140.726495 
C 160.084413 138.567116 157.520681 136.854085 154.699316 135.685437 
C 151.877951 134.51679 148.853823 133.915253 145.8 133.915253 
C 142.746177 133.915253 139.722049 134.51679 136.900684 135.685437 
C 134.079319 136.854085 131.515587 138.567116 129.356208 140.726495 
C 127.196829 142.885874 125.483798 145.449606 124.31515 148.270971 
C 123.146503 151.092335 122.544966 154.116464 122.544966 157.170287 
C 122.544966 160.22411 123.146503 163.248238 124.31515 166.069603 
C 125.483798 168.890968 127.196829 171.4547 129.356208 173.614079 
C 131.515587 175.773458 134.079319 177.486489 136.900684 178.655136 
C 139.722049 179.823784 142.746177 180.42532 145.8 180.42532 
C 148.853823 180.42532 151.877951 179.823784 154.699316 178.655136 
C 157.520681 177.486489 160.084413 175.773458 162.243792 173.614079 
C 164.403171 171.4547 166.116202 168.890968 167.28485 166.069603 
C 168.453497 163.248238 169.055034 160.22411 169.055034 157.170287 
" clip-path="url(#p858659d5f2)" style="fill: none; stroke: #b0b0b0; stroke-width: 0.8; stroke-linecap: square"/>
     </g>
     <g id="text_6">
      <!-- 5 -->
      <g transform="translate(169.055034 155.090599) scale(0.1 -0.1)">
       <use xlink:href="#DejaVuSans-35"/>
      </g>
     </g>
    </g>
    <g id="ytick_2">
     <g id="line2d_7">
      <path d="M 192.310067 157.170287 
C 192.310067 151.062641 191.106994 145.014384 188.769699 139.371655 
C 186.432404 133.728926 183.006342 128.601461 178.687584 124.282703 
C 174.368826 119.963945 169.241361 116.537883 163.598632 114.200588 
C 157.955903 111.863293 151.907646 110.66022 145.8 110.66022 
C 139.692354 110.66022 133.644097 111.863293 128.001368 114.200588 
C 122.358639 116.537883 117.231174 119.963945 112.912416 124.282703 
C 108.593658 128.601461 105.167596 133.728926 102.830301 139.371655 
C 100.493006 145.014384 99.289933 151.062641 99.289933 157.170287 
C 99.289933 163.277933 100.493006 169.32619 102.830301 174.968919 
C 105.167596 180.611648 108.593658 185.739113 112.912416 190.057871 
C 117.231174 194.376629 122.358639 197.802691 128.001368 200.139986 
C 133.644097 202.477281 139.692354 203.680354 145.8 203.680354 
C 151.907646 203.680354 157.955903 202.477281 163.598632 200.139986 
C 169.241361 197.802691 174.368826 194.376629 178.687584 190.057871 
C 183.006342 185.739113 186.432404 180.611648 188.769699 174.968919 
C 191.106994 169.32619 192.310067 163.277933 192.310067 157.170287 
" clip-path="url(#p858659d5f2)" style="fill: none; stroke: #b0b0b0; stroke-width: 0.8; stroke-linecap: square"/>
     </g>
     <g id="text_7">
      <!-- 10 -->
      <g transform="translate(192.310067 155.090599) scale(0.1 -0.1)">
       <defs>
        <path id="DejaVuSans-30" d="M 2034 4250 
Q 1547 4250 1301 3770 
Q 1056 3291 1056 2328 
Q 1056 1369 1301 889 
Q 1547 409 2034 409 
Q 2525 409 2770 889 
Q 3016 1369 3016 2328 
Q 3016 3291 2770 3770 
Q 2525 4250 2034 4250 
z
M 2034 4750 
Q 2819 4750 3233 4129 
Q 3647 3509 3647 2328 
Q 3647 1150 3233 529 
Q 2819 -91 2034 -91 
Q 1250 -91 836 529 
Q 422 1150 422 2328 
Q 422 3509 836 4129 
Q 1250 4750 2034 4750 
z
" transform="scale(0.015625)"/>
       </defs>
       <use xlink:href="#DejaVuSans-31"/>
       <use xlink:href="#DejaVuSans-30" transform="translate(63.623047 0)"/>
      </g>
     </g>
    </g>
    <g id="ytick_3">
     <g id="line2d_8">
      <path d="M 215.565101 157.170287 
C 215.565101 148.008818 213.760491 138.936432 210.254549 130.472339 
C 206.748606 122.008245 201.609513 114.317048 195.131376 107.838911 
C 188.653239 101.360774 180.962042 96.221681 172.497948 92.715738 
C 164.033854 89.209796 154.961469 87.405186 145.8 87.405186 
C 136.638531 87.405186 127.566146 89.209796 119.102052 92.715738 
C 110.637958 96.221681 102.946761 101.360774 96.468624 107.838911 
C 89.990487 114.317048 84.851394 122.008245 81.345451 130.472339 
C 77.839509 138.936432 76.034899 148.008818 76.034899 157.170287 
C 76.034899 166.331756 77.839509 175.404141 81.345451 183.868235 
C 84.851394 192.332329 89.990487 200.023526 96.468624 206.501663 
C 102.946761 212.9798 110.637958 218.118893 119.102052 221.624835 
C 127.566146 225.130778 136.638531 226.935388 145.8 226.935388 
C 154.961469 226.935388 164.033854 225.130778 172.497948 221.624835 
C 180.962042 218.118893 188.653239 212.9798 195.131376 206.501663 
C 201.609513 200.023526 206.748606 192.332329 210.254549 183.868235 
C 213.760491 175.404141 215.565101 166.331756 215.565101 157.170287 
" clip-path="url(#p858659d5f2)" style="fill: none; stroke: #b0b0b0; stroke-width: 0.8; stroke-linecap: square"/>
     </g>
     <g id="text_8">
      <!-- 15 -->
      <g transform="translate(215.565101 155.090599) scale(0.1 -0.1)">
       <use xlink:href="#DejaVuSans-31"/>
       <use xlink:href="#DejaVuSans-35" transform="translate(63.623047 0)"/>
      </g>
     </g>
    </g>
    <g id="ytick_4">
     <g id="line2d_9">
      <path d="M 238.820134 157.170287 
C 238.820134 144.954995 236.413988 132.858481 231.739398 121.573023 
C 227.064808 110.287564 220.212684 100.032635 211.575168 91.395119 
C 202.937652 82.757603 192.682723 75.905479 181.397264 71.230889 
C 170.111806 66.556299 158.015292 64.150153 145.8 64.150153 
C 133.584708 64.150153 121.488194 66.556299 110.202736 71.230889 
C 98.917277 75.905479 88.662348 82.757603 80.024832 91.395119 
C 71.387316 100.032635 64.535192 110.287564 59.860602 121.573023 
C 55.186012 132.858481 52.779866 144.954995 52.779866 157.170287 
C 52.779866 169.385579 55.186012 181.482093 59.860602 192.767551 
C 64.535192 204.053009 71.387316 214.307939 80.024832 222.945455 
C 88.662348 231.58297 98.917277 238.435095 110.202736 243.109685 
C 121.488194 247.784275 133.584708 250.190421 145.8 250.190421 
C 158.015292 250.190421 170.111806 247.784275 181.397264 243.109685 
C 192.682723 238.435095 202.937652 231.58297 211.575168 222.945455 
C 220.212684 214.307939 227.064808 204.053009 231.739398 192.767551 
C 236.413988 181.482093 238.820134 169.385579 238.820134 157.170287 
" clip-path="url(#p858659d5f2)" style="fill: none; stroke: #b0b0b0; stroke-width: 0.8; stroke-linecap: square"/>
     </g>
     <g id="text_9">
      <!-- 20 -->
      <g transform="translate(238.820134 155.090599) scale(0.1 -0.1)">
       <use xlink:href="#DejaVuSans-32"/>
       <use xlink:href="#DejaVuSans-30" transform="translate(63.623047 0)"/>
      </g>
     </g>
    </g>
    <g id="ytick_5">
     <g id="line2d_10">
      <path d="M 262.075168 157.170287 
C 262.075168 141.901172 259.067485 126.78053 253.224248 112.673707 
C 247.38101 98.566884 238.815854 85.748222 228.01896 74.951327 
C 217.222065 64.154432 204.403403 55.589277 190.29658 49.746039 
C 176.189757 43.902802 161.069115 40.895119 145.8 40.895119 
C 130.530885 40.895119 115.410243 43.902802 101.30342 49.746039 
C 87.196597 55.589277 74.377935 64.154432 63.58104 74.951327 
C 52.784146 85.748222 44.21899 98.566884 38.375752 112.673707 
C 32.532515 126.78053 29.524832 141.901172 29.524832 157.170287 
C 29.524832 172.439402 32.532515 187.560044 38.375752 201.666867 
C 44.21899 215.77369 52.784146 228.592352 63.58104 239.389247 
C 74.377935 250.186141 87.196597 258.751297 101.30342 264.594535 
C 115.410243 270.437772 130.530885 273.445455 145.8 273.445455 
C 161.069115 273.445455 176.189757 270.437772 190.29658 264.594535 
C 204.403403 258.751297 217.222065 250.186141 228.01896 239.389247 
C 238.815854 228.592352 247.38101 215.77369 253.224248 201.666867 
C 259.067485 187.560044 262.075168 172.439402 262.075168 157.170287 
" clip-path="url(#p858659d5f2)" style="fill: none; stroke: #b0b0b0; stroke-width: 0.8; stroke-linecap: square"/>
     </g>
     <g id="text_10">
      <!-- 25 -->
      <g transform="translate(262.075168 155.090599) scale(0.1 -0.1)">
       <use xlink:href="#DejaVuSans-32"/>
       <use xlink:href="#DejaVuSans-35" transform="translate(63.623047 0)"/>
      </g>
     </g>
    </g>
   </g>
   <g id="line2d_11">
    <path d="M 206.263087 157.170287 
L 187.479963 28.89255 
L 44.205926 83.357872 
L 93.121591 195.443391 
L 174.544802 245.637692 
L 206.263087 157.170287 
" clip-path="url(#p858659d5f2)" style="fill: none; stroke: #1f77b4; stroke-linecap: square"/>
   </g>
   <g id="patch_4">
    <path d="M 284.4 157.170287 
C 284.4 138.969502 280.814842 120.945696 273.849703 104.130363 
C 266.884564 87.31503 256.674899 72.035186 243.805 59.165287 
C 230.935101 46.295388 215.655257 36.085723 198.839924 29.120584 
C 182.024591 22.155445 164.000785 18.570287 145.8 18.570287 
C 127.599215 18.570287 109.575409 22.155445 92.760076 29.120584 
C 75.944743 36.085723 60.664899 46.295388 47.795 59.165287 
C 34.925101 72.035186 24.715436 87.31503 17.750297 104.130363 
C 10.785158 120.945696 7.2 138.969502 7.2 157.170287 
C 7.2 175.371072 10.785158 193.394878 17.750297 210.210211 
C 24.715436 227.025544 34.925101 242.305388 47.795 255.175287 
C 60.664899 268.045185 75.944743 278.254851 92.760076 285.21999 
C 109.575409 292.185129 127.599215 295.770287 145.8 295.770287 
C 164.000785 295.770287 182.024591 292.185129 198.839924 285.21999 
C 215.655257 278.254851 230.935101 268.045185 243.805 255.175287 
C 256.674899 242.305388 266.884564 227.025544 273.849703 210.210211 
C 280.814842 193.394878 284.4 175.371072 284.4 157.170287 
" style="fill: none; stroke: #000000; stroke-width: 0.8; stroke-linejoin: miter; stroke-linecap: square"/>
   </g>
  </g>
 </g>
 <defs>
  <clipPath id="p858659d5f2">
   <path d="M 284.4 157.170287 
C 284.4 138.969502 280.814842 120.945696 273.849703 104.130363 
C 266.884564 87.31503 256.674899 72.035186 243.805 59.165287 
C 230.935101 46.295388 215.655257 36.085723 198.839924 29.120584 
C 182.024591 22.155445 164.000785 18.570287 145.8 18.570287 
C 127.599215 18.570287 109.575409 22.155445 92.760076 29.120584 
C 75.944743 36.085723 60.664899 46.295388 47.795 59.165287 
C 34.925101 72.035186 24.715436 87.31503 17.750297 104.130363 
C 10.785158 120.945696 7.2 138.969502 7.2 157.170287 
C 7.2 175.371072 10.785158 193.394878 17.750297 210.210211 
C 24.715436 227.025544 34.925101 242.305388 47.795 255.175287 
C 60.664899 268.045185 75.944743 278.254851 92.760076 285.21999 
C 109.575409 292.185129 127.599215 295.770287 145.8 295.770287 
C 164.000785 295.770287 182.024591 292.185129 198.839924 285.21999 
C 215.655257 278.254851 230.935101 268.045185 243.805 255.175287 
C 256.674899 242.305388 266.884564 227.025544 273.849703 210.210211 
C 280.814842 193.394878 284.4 175.371072 284.4 157.170287 
M 145.8 157.170287 
C 145.8 157.170287 145.8 157.170287 145.8 157.170287 
C 145.8 157.170287 145.8 157.170287 145.8 157.170287 
C 145.8 157.170287 145.8 157.170287 145.8 157.170287 
C 145.8 157.170287 145.8 157.170287 145.8 157.170287 
C 145.8 157.170287 145.8 157.170287 145.8 157.170287 
C 145.8 157.170287 145.8 157.170287 145.8 157.170287 
C 145.8 157.170287 145.8 157.170287 145.8 157.170287 
C 145.8 157.170287 145.8 157.170287 145.8 157.170287 
C 145.8 157.170287 145.8 157.170287 145.8 157.170287 
C 145.8 157.170287 145.8 157.170287 145.8 157.170287 
C 145.8 157.170287 145.8 157.170287 145.8 157.170287 
C 145.8 157.170287 145.8 157.170287 145.8 157.170287 
C 145.8 157.170287 145.8 157.170287 145.8 157.170287 
C 145.8 157.170287 145.8 157.170287 145.8 157.170287 
C 145.8 157.170287 145.8 157.170287 145.8 157.170287 
C 145.8 157.170287 145.8 157.170287 145.8 157.170287 
z
"/>
  </clipPath>
 </defs>
</svg>
